<?xml version="1.0" standalone="no"?>
<!DOCTYPE svg PUBLIC "-//W3C//DTD SVG 20010904//EN"
 "http://www.w3.org/TR/2001/REC-SVG-20010904/DTD/svg10.dtd">
<svg version="1.0" xmlns="http://www.w3.org/2000/svg"
 width="530.000000pt" height="81.000000pt" viewBox="0 0 530.000000 81.000000"
 preserveAspectRatio="xMidYMid meet">

<g transform="translate(0.000000,81.000000) scale(0.100000,-0.100000)"
fill="#000000" stroke="none">
<path d="M247 762 c-35 -38 -5 -102 47 -102 28 0 56 33 56 66 0 47 -71 72
-103 36z"/>
<path d="M1422 674 c-31 -22 -30 -69 3 -90 23 -15 27 -15 50 0 33 21 34 68 3
90 -12 9 -25 16 -28 16 -3 0 -16 -7 -28 -16z"/>
<path d="M3462 674 c-42 -29 -17 -104 35 -104 20 0 53 38 53 60 0 22 -33 60
-53 60 -7 0 -23 -7 -35 -16z"/>
<path d="M195 634 c-16 -8 -53 -32 -80 -53 -47 -36 -52 -43 -68 -111 -18 -76
-14 -95 19 -88 13 2 22 21 34 65 11 46 23 68 44 84 l28 22 -8 -54 c-5 -30 -8
-76 -7 -104 3 -74 -22 -160 -73 -248 -49 -84 -53 -120 -17 -125 19 -3 32 12
76 80 30 46 62 107 72 136 11 28 22 52 26 52 21 0 68 -109 74 -172 9 -79 22
-103 53 -94 26 9 28 41 11 146 -8 50 -21 83 -59 143 l-49 77 12 67 12 68 21
-35 c23 -40 97 -95 113 -85 22 13 10 45 -28 72 -26 18 -49 48 -68 87 -21 44
-36 62 -60 73 -40 16 -41 16 -78 -3z"/>
<path d="M2232 640 c-101 -24 -162 -112 -162 -235 0 -99 31 -163 97 -201 41
-25 58 -29 123 -28 41 0 92 6 112 13 l37 12 -13 37 c-10 29 -18 36 -32 32 -11
-3 -51 -5 -91 -5 -62 0 -75 3 -97 24 -55 52 -56 175 -2 238 22 26 30 28 93 28
37 0 77 -3 89 -8 18 -6 22 -2 32 30 13 44 10 47 -61 63 -54 11 -78 11 -125 0z"/>
<path d="M836 573 c-11 -114 -26 -316 -26 -355 l0 -38 45 0 45 0 0 68 c0 96
12 232 20 232 4 0 29 -53 57 -117 49 -117 50 -118 83 -118 33 0 34 1 83 118
27 64 53 117 57 117 4 0 11 -67 15 -150 l8 -150 44 0 45 0 -6 98 c-4 53 -12
157 -18 230 l-11 133 -46 -3 -46 -3 -60 -132 c-33 -73 -62 -133 -65 -133 -3 0
-31 61 -64 135 l-58 135 -48 0 -47 0 -7 -67z"/>
<path d="M4401 611 c-10 -7 -12 -44 -10 -183 3 -148 7 -178 22 -202 26 -39 80
-60 136 -52 55 8 65 17 57 50 -6 23 -12 26 -49 26 -67 0 -72 7 -75 110 l-4 90
61 0 61 0 0 40 0 40 -60 0 -60 0 0 45 c0 44 -1 45 -32 45 -18 0 -39 -4 -47 -9z"/>
<path d="M1663 529 c-42 -12 -73 -53 -73 -96 0 -52 15 -70 91 -109 51 -25 69
-39 67 -52 -3 -14 -15 -17 -80 -16 l-76 1 -6 -30 c-4 -19 -2 -33 5 -38 24 -15
118 -20 159 -9 61 16 80 40 80 99 0 45 -3 52 -32 74 -18 13 -52 32 -76 42 -33
14 -42 23 -40 39 3 19 10 21 65 21 61 0 62 0 66 30 3 16 2 33 -2 37 -11 12
-115 17 -148 7z"/>
<path d="M2570 532 c-32 -6 -35 -10 -35 -41 l0 -35 67 3 c62 2 68 1 84 -24 9
-14 14 -28 11 -32 -4 -3 -33 -7 -64 -8 -70 -2 -110 -20 -129 -56 -30 -58 -8
-127 48 -150 34 -14 154 -17 202 -5 l26 6 0 128 c0 136 -7 162 -50 194 -28 20
-106 30 -160 20z m125 -242 c0 -34 -1 -35 -43 -38 -46 -3 -72 10 -72 37 0 29
23 42 70 39 44 -3 45 -4 45 -38z"/>
<path d="M2970 535 c-8 -2 -32 -6 -52 -10 l-38 -6 0 -169 0 -170 45 0 45 0 0
140 0 140 34 0 c56 0 66 -24 66 -162 l0 -118 46 0 46 0 -4 135 c-3 134 -3 136
20 142 35 8 69 -5 76 -29 3 -13 6 -74 6 -135 l0 -113 46 0 46 0 -4 139 c-4
161 -14 185 -86 211 -38 13 -47 13 -94 -4 -49 -16 -56 -16 -90 -2 -35 15 -71
18 -108 11z"/>
<path d="M3730 535 c-8 -2 -32 -6 -52 -10 l-38 -6 0 -169 0 -170 45 0 45 0 0
140 0 140 39 0 c65 0 71 -13 71 -156 l0 -124 45 0 45 0 0 125 c0 138 -11 182
-53 210 -24 16 -115 28 -147 20z"/>
<path d="M4085 532 c-23 -4 -40 -12 -39 -19 1 -7 2 -23 3 -36 1 -22 4 -23 64
-19 69 4 97 -10 97 -50 0 -17 -4 -19 -30 -13 -46 10 -127 -13 -150 -42 -31
-40 -27 -107 8 -142 41 -42 109 -49 236 -24 l28 5 -4 132 c-4 138 -13 172 -56
195 -26 14 -109 20 -157 13z m125 -242 c0 -40 0 -40 -39 -40 -57 0 -71 8 -71
40 0 33 9 38 68 39 l42 1 0 -40z"/>
<path d="M4732 533 c-36 -5 -47 -21 -39 -56 6 -20 11 -22 70 -19 58 3 66 1 81
-19 26 -37 21 -52 -14 -44 -78 17 -164 -27 -176 -90 -8 -46 19 -99 59 -117 33
-13 154 -16 201 -4 l26 6 0 128 c0 136 -7 162 -50 194 -26 19 -101 29 -158 21z
m128 -243 l0 -40 -48 0 c-50 0 -72 12 -72 40 0 28 22 40 72 40 l48 0 0 -40z"/>
<path d="M5094 521 c-31 -14 -45 -28 -53 -54 -22 -66 1 -103 92 -147 37 -18
52 -31 52 -45 0 -18 -6 -20 -70 -19 -41 1 -73 -3 -77 -10 -14 -20 -8 -55 10
-60 124 -35 232 4 232 83 0 54 -19 79 -89 113 -48 24 -66 38 -66 53 0 18 7 20
60 20 63 0 75 6 75 42 0 28 -6 31 -71 38 -41 4 -64 1 -95 -14z"/>
<path d="M1410 355 l0 -175 40 0 40 0 0 175 0 175 -40 0 -40 0 0 -175z"/>
<path d="M3450 355 l0 -175 45 0 45 0 0 175 0 175 -45 0 -45 0 0 -175z"/>
</g>
</svg>
