<?xml version="1.0" encoding="utf-8"?>
<!-- Generator: Adobe Illustrator 25.1.0, SVG Export Plug-In . SVG Version: 6.00 Build 0)  -->
<svg version="1.1" id="Warstwa_1" xmlns="http://www.w3.org/2000/svg" xmlns:xlink="http://www.w3.org/1999/xlink" x="0px" y="0px"
	 viewBox="0 0 129 129" style="enable-background:new 0 0 129 129;" xml:space="preserve">
<style type="text/css">
	.st0{fill:#D1D3D4;}
	.st1{fill:#231F20;}
	.st2{fill:#FFFFFF;}
	.st3{fill:#38D39F;}
	.st4{fill:none;stroke:#D1D3D4;stroke-width:0.9338;stroke-linecap:round;stroke-linejoin:round;stroke-miterlimit:4.06;}
	.st5{fill:none;}
</style>
<g id="_015">
	<path class="st0" d="M127.58,84.6H0.16C0.07,84.6,0,84.52,0,84.43l0,0c0-0.09,0.07-0.16,0.16-0.16h127.42
		c0.09,0,0.16,0.07,0.16,0.16C127.75,84.52,127.67,84.6,127.58,84.6z"/>
	<path class="st1" d="M103.83,40.27H42.75c-1.3-0.03-2.37,0.99-2.41,2.29c0,0.15,0.01,0.3,0.03,0.45l5.84,44.54
		c0.23,1.54,1.54,2.7,3.1,2.74h61.08c1.3,0.03,2.37-0.99,2.41-2.29c0-0.15-0.01-0.3-0.03-0.45l-5.84-44.54
		C106.69,41.46,105.39,40.31,103.83,40.27z"/>
	<path class="st1" d="M110.39,90.44H49.31c-1.64-0.05-3.01-1.26-3.25-2.88l-5.84-44.54c-0.11-0.74,0.1-1.5,0.59-2.07
		c0.49-0.55,1.2-0.86,1.94-0.84h61.08c1.63,0.04,3,1.24,3.25,2.85l5.84,44.54c0.11,0.74-0.1,1.5-0.59,2.07
		C111.84,90.14,111.13,90.45,110.39,90.44z M42.75,40.43c-0.65-0.01-1.27,0.26-1.7,0.74c-0.43,0.5-0.62,1.16-0.52,1.81l5.84,44.54
		c0.22,1.46,1.46,2.56,2.94,2.6h61.08c0.65,0.01,1.27-0.26,1.7-0.74c0.43-0.5,0.62-1.17,0.52-1.82l-5.84-44.54
		c-0.22-1.46-1.46-2.56-2.94-2.6L42.75,40.43z"/>
	<path class="st2" d="M37.38,47.36h67.34L98,87.55c-0.3,1.55-1.63,2.69-3.21,2.74H32.95c-1.24,0.04-2.29-0.93-2.33-2.18
		c-0.01-0.19,0.01-0.38,0.05-0.56L37.38,47.36z"/>
	<path class="st1" d="M94.81,90.45H32.95c-0.73,0.02-1.43-0.29-1.91-0.85c-0.48-0.58-0.67-1.34-0.53-2.08l6.71-40.18
		c0.01-0.08,0.08-0.13,0.16-0.14h67.34c0.05,0,0.09,0.02,0.12,0.06c0.03,0.04,0.04,0.08,0.04,0.13l-6.72,40.18
		C97.85,89.19,96.46,90.38,94.81,90.45z M37.51,47.53l-6.68,40.05c-0.13,0.64,0.04,1.31,0.45,1.82c0.42,0.47,1.03,0.73,1.67,0.71
		h61.86c1.49-0.05,2.75-1.13,3.04-2.6l6.68-39.99L37.51,47.53z"/>
	<path class="st3" d="M41.3,40.27h61.86c1.24-0.04,2.29,0.93,2.33,2.18c0.01,0.19-0.01,0.38-0.05,0.56l-0.71,4.35H37.39l0.71-4.35
		C38.4,41.46,39.73,40.32,41.3,40.27z"/>
	<path class="st1" d="M104.72,47.52H37.37c-0.05,0-0.1-0.02-0.12-0.06c-0.03-0.04-0.05-0.08-0.04-0.13l0.71-4.35
		c0.32-1.63,1.72-2.81,3.38-2.86h61.86c0.73-0.02,1.44,0.29,1.92,0.85c0.48,0.58,0.67,1.34,0.52,2.08l-0.71,4.35
		C104.87,47.48,104.8,47.53,104.72,47.52z M37.57,47.2h67.01l0.71-4.22c0.13-0.64-0.04-1.31-0.45-1.82
		c-0.42-0.47-1.03-0.73-1.67-0.71H41.3c-1.49,0.05-2.75,1.13-3.03,2.6L37.57,47.2z"/>
	<path class="st1" d="M43.18,84.31h-0.03c-0.09-0.01-0.15-0.1-0.13-0.18c0,0,0,0,0,0l5.39-32.29c0.02-0.09,0.1-0.15,0.19-0.14
		c0.09,0.02,0.15,0.1,0.13,0.19l-5.39,32.29C43.32,84.25,43.26,84.31,43.18,84.31z"/>
	<path class="st1" d="M52.2,84.31h-0.03c-0.09-0.01-0.15-0.09-0.14-0.18c0,0,0,0,0,0l5.4-32.29c0-0.09,0.08-0.16,0.17-0.16
		c0.09,0,0.16,0.08,0.16,0.17c0,0.01,0,0.03-0.01,0.04l-5.4,32.29C52.34,84.25,52.28,84.31,52.2,84.31z"/>
	<path class="st1" d="M61.22,84.31h-0.02c-0.09-0.01-0.15-0.09-0.14-0.18c0,0,0,0,0,0l5.39-32.29c0.02-0.09,0.1-0.15,0.19-0.14
		c0.09,0.01,0.15,0.1,0.13,0.18c0,0,0,0,0,0l-5.39,32.29C61.36,84.25,61.3,84.31,61.22,84.31z"/>
	<path class="st1" d="M70.24,84.31h-0.03c-0.09-0.01-0.15-0.09-0.13-0.18c0,0,0-0.01,0-0.01l5.39-32.29c0-0.09,0.08-0.16,0.17-0.16
		c0.09,0,0.16,0.08,0.16,0.17c0,0.01,0,0.03-0.01,0.04L70.4,84.17C70.39,84.25,70.32,84.31,70.24,84.31z"/>
	<path class="st1" d="M79.26,84.31h-0.02c-0.09-0.01-0.15-0.09-0.14-0.18c0,0,0,0,0,0l5.4-32.29c0-0.09,0.08-0.16,0.17-0.16
		c0.09,0,0.16,0.08,0.16,0.17c0,0.01,0,0.03-0.01,0.04l-5.4,32.29C79.4,84.25,79.34,84.31,79.26,84.31z"/>
	<path class="st1" d="M88.28,84.31h-0.03c-0.09-0.01-0.15-0.1-0.13-0.18c0,0,0,0,0,0l5.39-32.29c0-0.09,0.08-0.16,0.17-0.16
		c0.09,0,0.16,0.08,0.16,0.17c0,0.01,0,0.03-0.01,0.04l-5.38,32.29C88.44,84.26,88.36,84.32,88.28,84.31z"/>
	<path class="st4" d="M43.18,84.31h-0.03c-0.09-0.01-0.15-0.1-0.13-0.18c0,0,0,0,0,0l5.39-32.29c0.02-0.09,0.1-0.15,0.19-0.14
		c0.09,0.02,0.15,0.1,0.13,0.19l-5.39,32.29C43.32,84.25,43.26,84.31,43.18,84.31z"/>
	<path class="st4" d="M52.2,84.31h-0.03c-0.09-0.01-0.15-0.09-0.14-0.18c0,0,0,0,0,0l5.4-32.29c0-0.09,0.08-0.16,0.17-0.16
		c0.09,0,0.16,0.08,0.16,0.17c0,0.01,0,0.03-0.01,0.04l-5.4,32.29C52.34,84.25,52.28,84.31,52.2,84.31z"/>
	<path class="st4" d="M61.22,84.31h-0.02c-0.09-0.01-0.15-0.09-0.14-0.18c0,0,0,0,0,0l5.39-32.29c0.02-0.09,0.1-0.15,0.19-0.14
		c0.09,0.01,0.15,0.1,0.13,0.18c0,0,0,0,0,0l-5.39,32.29C61.36,84.25,61.3,84.31,61.22,84.31z"/>
	<path class="st4" d="M70.24,84.31h-0.03c-0.09-0.01-0.15-0.09-0.13-0.18c0,0,0-0.01,0-0.01l5.39-32.29c0-0.09,0.08-0.16,0.17-0.16
		c0.09,0,0.16,0.08,0.16,0.17c0,0.01,0,0.03-0.01,0.04L70.4,84.17C70.39,84.25,70.32,84.31,70.24,84.31z"/>
	<path class="st4" d="M79.26,84.31h-0.02c-0.09-0.01-0.15-0.09-0.14-0.18c0,0,0,0,0,0l5.4-32.29c0-0.09,0.08-0.16,0.17-0.16
		c0.09,0,0.16,0.08,0.16,0.17c0,0.01,0,0.03-0.01,0.04l-5.4,32.29C79.4,84.25,79.34,84.31,79.26,84.31z"/>
	<path class="st4" d="M88.28,84.31h-0.03c-0.09-0.01-0.15-0.1-0.13-0.18c0,0,0,0,0,0l5.39-32.29c0-0.09,0.08-0.16,0.17-0.16
		c0.09,0,0.16,0.08,0.16,0.17c0,0.01,0,0.03-0.01,0.04l-5.38,32.29C88.44,84.26,88.36,84.32,88.28,84.31z"/>
	<path class="st1" d="M99.28,59.5H40.47c-0.09,0.01-0.17-0.05-0.19-0.14c-0.01-0.09,0.05-0.17,0.14-0.19c0.02,0,0.03,0,0.05,0h58.81
		c0.09-0.01,0.17,0.05,0.19,0.14c0.01,0.09-0.05,0.17-0.14,0.19C99.31,59.51,99.3,59.51,99.28,59.5z"/>
	<path class="st1" d="M97.83,68.16H39.02c-0.09,0.01-0.17-0.05-0.19-0.14s0.05-0.17,0.14-0.19c0.02,0,0.03,0,0.05,0h58.81
		c0.09-0.01,0.17,0.05,0.19,0.14c0.01,0.09-0.05,0.17-0.14,0.19C97.87,68.16,97.85,68.16,97.83,68.16z"/>
	<path class="st1" d="M96.39,76.82H37.57c-0.09,0-0.16-0.07-0.16-0.16c0-0.09,0.07-0.16,0.16-0.16h58.81c0.09,0,0.16,0.07,0.16,0.16
		C96.55,76.75,96.48,76.82,96.39,76.82z"/>
	<line class="st4" x1="40.47" y1="59.34" x2="99.28" y2="59.34"/>
	<path class="st4" d="M99.28,59.5H40.47c-0.09,0.01-0.17-0.05-0.19-0.14c-0.01-0.09,0.05-0.17,0.14-0.19c0.02,0,0.03,0,0.05,0h58.81
		c0.09-0.01,0.17,0.05,0.19,0.14c0.01,0.09-0.05,0.17-0.14,0.19C99.31,59.51,99.3,59.51,99.28,59.5z"/>
	<line class="st4" x1="39.02" y1="68" x2="97.83" y2="68"/>
	<path class="st4" d="M97.83,68.16H39.02c-0.09,0.01-0.17-0.05-0.19-0.14s0.05-0.17,0.14-0.19c0.02,0,0.03,0,0.05,0h58.81
		c0.09-0.01,0.17,0.05,0.19,0.14c0.01,0.09-0.05,0.17-0.14,0.19C97.87,68.16,97.85,68.16,97.83,68.16z"/>
	<line class="st4" x1="37.57" y1="76.66" x2="96.39" y2="76.66"/>
	<path class="st4" d="M96.39,76.82H37.57c-0.09,0-0.16-0.07-0.16-0.16c0-0.09,0.07-0.16,0.16-0.16h58.81c0.09,0,0.16,0.07,0.16,0.16
		C96.55,76.75,96.48,76.82,96.39,76.82z"/>
	<path class="st3" d="M57.23,66.36c-0.05,0-0.09-0.02-0.12-0.06c-0.06-0.07-0.05-0.17,0.02-0.23l6.29-5.23
		c0.07-0.06,0.17-0.05,0.23,0.02c0.06,0.07,0.05,0.17-0.02,0.23l-6.29,5.23C57.3,66.34,57.27,66.36,57.23,66.36z"/>
	<path class="st3" d="M62.64,66.36c-0.05,0-0.09-0.02-0.12-0.05l-4.54-5.23c-0.06-0.06-0.06-0.16,0-0.23
		c0.06-0.06,0.16-0.05,0.22,0.01c0,0,0,0.01,0.01,0.01l4.54,5.23c0.06,0.06,0.06,0.16,0,0.23C62.72,66.34,62.68,66.36,62.64,66.36z"
		/>
	<path class="st3" d="M83,75.5c-0.05,0-0.09-0.02-0.12-0.06c-0.06-0.07-0.05-0.17,0.02-0.23c0,0,0,0,0,0l6.27-5.23
		c0.06-0.06,0.17-0.07,0.23,0c0.06,0.06,0.07,0.17,0,0.23c-0.01,0.01-0.02,0.01-0.02,0.02l-6.27,5.23
		C83.08,75.49,83.04,75.5,83,75.5z"/>
	<path class="st3" d="M88.42,75.5c-0.05,0-0.09-0.02-0.12-0.06l-4.54-5.23c-0.06-0.06-0.06-0.17,0-0.23
		c0.07-0.06,0.17-0.05,0.23,0.02l4.54,5.23c0.06,0.06,0.06,0.17,0,0.23C88.49,75.48,88.45,75.5,88.42,75.5z"/>
	<path class="st2" d="M89.84,90.16l8.74-6.84h-5.06c-1.46,0.05-2.69,1.11-2.96,2.54L89.84,90.16z"/>
	<path class="st1" d="M89.84,90.32c-0.03,0-0.06-0.01-0.08-0.02c-0.06-0.04-0.09-0.1-0.08-0.17l0.71-4.3
		c0.29-1.51,1.59-2.62,3.12-2.68h5.06c0.07,0,0.13,0.04,0.15,0.11c0.02,0.06,0,0.14-0.05,0.18l-8.74,6.84
		C89.91,90.31,89.88,90.32,89.84,90.32z M93.53,83.48c-1.38,0.05-2.55,1.05-2.8,2.41l-0.65,3.88l8.04-6.29H93.53z"/>
	<path class="st1" d="M85.53,45.44c-0.13,0-0.25-0.03-0.36-0.1c-2.13-1.24-2.85-3.96-1.61-6.09c1.24-2.13,3.96-2.85,6.09-1.61
		c0.76,0.44,1.37,1.1,1.76,1.89c0.17,0.35,0.03,0.78-0.33,0.95c-0.35,0.17-0.78,0.03-0.95-0.33c-0.73-1.5-2.55-2.13-4.05-1.39
		c-1.04,0.51-1.7,1.56-1.7,2.72c0,1.08,0.58,2.08,1.51,2.62c0.34,0.2,0.45,0.64,0.25,0.98C86.01,45.3,85.78,45.44,85.53,45.44
		L85.53,45.44z"/>
	<path class="st1" d="M69.5,45.44c-0.13,0-0.25-0.03-0.36-0.1c-2.13-1.24-2.85-3.96-1.62-6.09c0.8-1.37,2.27-2.22,3.85-2.22
		c1.7-0.01,3.26,0.96,4,2.49c0.17,0.35,0.03,0.78-0.33,0.95s-0.78,0.03-0.95-0.33c-0.73-1.5-2.55-2.13-4.05-1.39
		c-1.04,0.51-1.7,1.56-1.7,2.72c0,1.08,0.58,2.08,1.51,2.62c0.34,0.2,0.45,0.64,0.25,0.98C69.98,45.3,69.75,45.43,69.5,45.44
		L69.5,45.44z"/>
	<path class="st1" d="M53.46,45.44c-0.13,0-0.25-0.03-0.36-0.1c-2.13-1.23-2.85-3.96-1.62-6.09s3.96-2.85,6.09-1.62
		c0.76,0.44,1.38,1.11,1.77,1.9c0.18,0.35,0.05,0.78-0.3,0.96c-0.35,0.18-0.78,0.05-0.96-0.3c-0.01-0.01-0.01-0.03-0.02-0.04
		c-0.73-1.51-2.54-2.13-4.05-1.41c-1.05,0.51-1.71,1.57-1.71,2.73c0,1.08,0.58,2.08,1.51,2.62c0.34,0.2,0.45,0.64,0.25,0.98
		C53.95,45.3,53.72,45.44,53.46,45.44L53.46,45.44z"/>
	<path class="st2" d="M52.11,39.23c-0.03,0-0.06-0.01-0.09-0.02c-0.09-0.05-0.12-0.16-0.07-0.25c0.34-0.52,0.81-0.94,1.37-1.21
		c0.08-0.05,0.19-0.03,0.25,0.06c0.05,0.08,0.03,0.19-0.06,0.25c-0.01,0.01-0.02,0.01-0.04,0.02c-0.49,0.25-0.91,0.61-1.21,1.07
		C52.24,39.19,52.18,39.23,52.11,39.23z"/>
	<path class="st2" d="M68.35,39.23c-0.1,0-0.18-0.08-0.18-0.18c0-0.03,0.01-0.06,0.02-0.09c0.34-0.52,0.82-0.94,1.38-1.21
		c0.09-0.04,0.19,0,0.24,0.09c0.04,0.09,0.01,0.19-0.08,0.23c0,0,0,0,0,0c-0.49,0.25-0.91,0.61-1.21,1.07
		C68.48,39.2,68.42,39.23,68.35,39.23z"/>
	<path class="st2" d="M84.21,39.23c-0.03,0-0.06-0.01-0.09-0.02c-0.08-0.05-0.11-0.16-0.06-0.25c0.34-0.52,0.81-0.94,1.37-1.21
		c0.09-0.04,0.2-0.01,0.24,0.08c0,0,0,0,0,0c0.04,0.09,0.01,0.19-0.08,0.23c0,0,0,0,0,0c-0.49,0.25-0.91,0.61-1.21,1.07
		C84.33,39.19,84.27,39.23,84.21,39.23z"/>
	
		<rect x="6.46" y="44.51" transform="matrix(0.9987 -0.0511 0.0511 0.9987 -3.3029 0.6251)" class="st2" width="8.22" height="40.74"/>
	<path class="st0" d="M7.51,85.6c-0.09,0-0.16-0.07-0.16-0.16L5.27,44.76c0-0.04,0.01-0.09,0.04-0.12c0.03-0.03,0.07-0.05,0.11-0.06
		l8.2-0.42c0.09,0,0.17,0.07,0.17,0.16l2.1,40.7c0,0.04-0.01,0.09-0.04,0.12c-0.03,0.03-0.07,0.06-0.11,0.06l-8.2,0.42L7.51,85.6z
		 M5.6,44.91l2.07,40.36l7.88-0.4L13.48,44.5L5.6,44.91z"/>
	
		<rect x="5.43" y="44.64" transform="matrix(0.9988 -0.0499 0.0499 0.9988 -3.2401 0.3796)" class="st2" width="1.1" height="40.79"/>
	<path class="st0" d="M6.42,85.66c-0.04,0-0.08-0.01-0.11-0.04c-0.03-0.03-0.05-0.07-0.05-0.11L4.17,44.82
		c0-0.04,0.01-0.09,0.04-0.12c0.03-0.03,0.07-0.05,0.11-0.05l1.09-0.06c0.09,0,0.17,0.07,0.17,0.16l2.08,40.69
		c0,0.09-0.07,0.17-0.16,0.17L6.42,85.66L6.42,85.66z M4.51,44.96l2.07,40.36l0.77-0.04L5.27,44.92L4.51,44.96z"/>
	<line class="st5" x1="5.78" y1="46.93" x2="7.32" y2="46.84"/>
	<path class="st0" d="M5.79,47.09c-0.09,0-0.16-0.07-0.16-0.16c0-0.09,0.07-0.16,0.16-0.16l1.55-0.08c0.09,0,0.17,0.07,0.17,0.16
		c0,0,0,0,0,0c0.01,0.09-0.06,0.16-0.15,0.17c0,0,0,0,0,0l-1.55,0.08H5.79z"/>
	<line class="st5" x1="5.92" y1="49.66" x2="7.52" y2="49.57"/>
	<path class="st0" d="M5.92,49.82c-0.09,0-0.16-0.07-0.16-0.16c-0.01-0.09,0.06-0.16,0.15-0.17c0,0,0.01,0,0.01,0l1.6-0.09
		c0.09,0,0.17,0.07,0.17,0.16c0,0.09-0.07,0.17-0.16,0.17c0,0,0,0,0,0L5.92,49.82L5.92,49.82z"/>
	<line class="st5" x1="6.06" y1="52.39" x2="8.75" y2="52.25"/>
	<path class="st0" d="M6.06,52.56c-0.09-0.01-0.15-0.1-0.14-0.19c0.01-0.07,0.07-0.13,0.14-0.14l2.69-0.14
		c0.09,0,0.17,0.06,0.17,0.15c0,0.09-0.06,0.17-0.15,0.17l-2.69,0.14L6.06,52.56z"/>
	<line class="st5" x1="6.2" y1="55.12" x2="7.74" y2="55.04"/>
	<path class="st0" d="M6.2,55.28c-0.09,0-0.16-0.07-0.16-0.15c-0.01-0.09,0.06-0.17,0.15-0.17c0,0,0,0,0,0l1.55-0.08
		c0.09,0,0.17,0.07,0.17,0.16c0,0,0,0,0,0c0.01,0.09-0.06,0.16-0.15,0.17c0,0,0,0,0,0L6.2,55.28L6.2,55.28z"/>
	<line class="st5" x1="6.34" y1="57.85" x2="7.97" y2="57.77"/>
	<path class="st0" d="M6.34,58.02c-0.09,0-0.16-0.07-0.16-0.15c0-0.09,0.07-0.17,0.16-0.17l1.64-0.08c0.09,0,0.16,0.07,0.16,0.16
		c0,0.09-0.07,0.16-0.16,0.16l-1.64,0.08H6.34z"/>
	<line class="st5" x1="6.48" y1="60.59" x2="9.17" y2="60.45"/>
	<path class="st0" d="M6.48,60.75c-0.09,0-0.16-0.07-0.16-0.15c0-0.09,0.07-0.17,0.16-0.17l2.69-0.14c0.09-0.01,0.16,0.06,0.17,0.15
		c0,0,0,0,0,0c0,0.09-0.07,0.17-0.16,0.17l-2.69,0.14H6.48z"/>
	
		<rect x="4.47" y="69.91" transform="matrix(0.087 -0.9962 0.9962 0.087 -51.9484 86.5575)" class="st2" width="33.55" height="3.42"/>
	<path class="st0" d="M21.49,88.65L21.49,88.65l-3.41-0.3c-0.04,0-0.08-0.02-0.11-0.06c-0.03-0.03-0.04-0.08-0.04-0.12l2.9-33.44
		c0.01-0.09,0.09-0.15,0.18-0.15l3.41,0.3c0.09,0.01,0.15,0.08,0.15,0.17c0,0,0,0,0,0.01l-2.92,33.43
		C21.65,88.58,21.58,88.65,21.49,88.65L21.49,88.65z M18.26,88.04l3.08,0.27l2.89-33.1l-3.09-0.27L18.26,88.04z"/>
	<path class="st2" d="M24.41,55.06c-0.51,0.34-1.12,0.5-1.74,0.46c-0.65,0.03-1.27-0.25-1.68-0.76l1.28-3.27l0.93-2.38l0.51,2.49
		L24.41,55.06z"/>
	<path class="st0" d="M22.68,55.69c-0.71,0.04-1.38-0.28-1.81-0.84c-0.03-0.04-0.04-0.1-0.02-0.15l2.21-5.65
		c0.02-0.07,0.09-0.11,0.17-0.1c0.07,0.01,0.13,0.06,0.15,0.13l1.2,5.94c0.01,0.06-0.01,0.12-0.06,0.16
		C24.49,55.21,23.91,55.69,22.68,55.69z M21.18,54.73c0.38,0.42,0.93,0.65,1.49,0.62c0.54,0.03,1.08-0.1,1.55-0.36l-1.07-5.29
		L21.18,54.73z"/>
	<polygon class="st3" points="23.72,51.62 22.28,51.49 23.21,49.11 	"/>
	<path class="st3" d="M23.72,51.78L23.72,51.78l-1.43-0.12c-0.05-0.01-0.09-0.04-0.12-0.08c-0.02-0.04-0.02-0.1,0-0.14l0.93-2.38
		c0.03-0.07,0.09-0.11,0.17-0.1c0.07,0.01,0.13,0.06,0.14,0.13l0.51,2.49c0.02,0.09-0.04,0.18-0.13,0.19c-0.01,0-0.02,0-0.03,0
		L23.72,51.78z M22.51,51.35l1,0.09l-0.36-1.75L22.51,51.35z"/>
	
		<rect x="4.2" y="65.91" transform="matrix(0.087 -0.9962 0.9962 0.087 -51.1166 78.7484)" class="st2" width="26.4" height="2.69"/>
	<path class="st0" d="M17.6,80.69L17.6,80.69l-2.69-0.24c-0.09-0.01-0.15-0.08-0.15-0.17c0,0,0,0,0-0.01l2.29-26.3
		c0.01-0.09,0.09-0.16,0.18-0.15l2.69,0.24c0.04,0,0.08,0.02,0.11,0.06c0.03,0.03,0.04,0.08,0.04,0.12l-2.3,26.3
		c0,0.04-0.03,0.08-0.06,0.11C17.68,80.68,17.64,80.7,17.6,80.69z M15.1,80.14l2.36,0.21l2.26-25.98l-2.36-0.2L15.1,80.14z"/>
	<path class="st2" d="M19.9,54.22c-0.33,0.38-0.81,0.58-1.31,0.54c-0.55-0.05-1.06-0.33-1.39-0.78l1.01-2.57l0.71-1.87l0.43,1.98
		L19.9,54.22z"/>
	<path class="st0" d="M18.69,54.93h-0.11c-0.6-0.06-1.14-0.37-1.5-0.84c-0.03-0.04-0.04-0.1-0.02-0.15l1.74-4.45
		c0.03-0.07,0.1-0.12,0.18-0.1c0.07,0.01,0.13,0.06,0.15,0.13l0.92,4.67c0.01,0.05,0,0.09-0.03,0.13
		C19.69,54.71,19.2,54.93,18.69,54.93z M17.4,53.96c0.3,0.36,0.73,0.59,1.2,0.64c0.42,0.03,0.83-0.12,1.12-0.42l-0.82-4.05
		L17.4,53.96z"/>
	<polygon class="st2" points="19.35,51.52 18.22,51.42 18.95,49.54 	"/>
	<path class="st0" d="M19.33,51.68L19.33,51.68l-1.13-0.1c-0.05,0-0.1-0.03-0.12-0.08c-0.02-0.05-0.02-0.1,0-0.15l0.73-1.87
		c0.03-0.07,0.09-0.1,0.16-0.1c0.07,0.01,0.13,0.06,0.15,0.13l0.4,1.97c0.01,0.05,0,0.1-0.04,0.14
		C19.45,51.68,19.39,51.69,19.33,51.68z M18.44,51.28l0.71,0.06l-0.25-1.21L18.44,51.28z"/>
	<line class="st5" x1="18.59" y1="54.76" x2="16.27" y2="80.44"/>
	<path class="st0" d="M16.27,80.61L16.27,80.61c-0.09-0.01-0.16-0.08-0.15-0.17c0,0,0-0.01,0-0.01l2.32-25.68
		c0.01-0.09,0.09-0.15,0.18-0.15c0.09,0.01,0.16,0.09,0.15,0.18l-2.32,25.68C16.44,80.55,16.36,80.62,16.27,80.61
		C16.27,80.61,16.27,80.61,16.27,80.61z"/>
	
		<rect x="8.54" y="64.82" transform="matrix(0.0391 -0.9992 0.9992 0.0391 -53.1548 77.2074)" class="st2" width="10.04" height="2.85"/>
	<path class="st0" d="M14.79,71.48L14.79,71.48l-2.85-0.11c-0.04,0-0.09-0.02-0.11-0.05c-0.03-0.03-0.05-0.07-0.05-0.12l0.4-10.05
		c0.01-0.09,0.08-0.16,0.17-0.16l2.85,0.11c0.09,0.01,0.16,0.08,0.16,0.17l-0.4,10.03c0.01,0.09-0.06,0.17-0.15,0.17
		C14.8,71.48,14.8,71.48,14.79,71.48z M12.11,71.04l2.52,0.1l0.38-9.71l-2.52-0.1L12.11,71.04z"/>
	
		<rect x="8.94" y="54.2" transform="matrix(0.0391 -0.9992 0.9992 0.0391 -42.7448 67.954)" class="st2" width="10.04" height="3.99"/>
	<path class="st0" d="M15.77,61.46L15.77,61.46l-3.99-0.16c-0.04,0-0.08-0.02-0.11-0.05c-0.03-0.03-0.05-0.07-0.04-0.12l0.39-10.03
		c0.01-0.09,0.08-0.16,0.17-0.16l3.99,0.16c0.04,0,0.08,0.02,0.11,0.05c0.03,0.03,0.05,0.07,0.04,0.12L15.94,61.3
		C15.94,61.39,15.86,61.47,15.77,61.46C15.77,61.46,15.77,61.46,15.77,61.46z M11.95,60.99l3.66,0.14l0.38-9.71l-3.66-0.14
		L11.95,60.99z"/>
	<path class="st0" d="M10.5,60.17L10.5,60.17c-0.09,0-0.16-0.08-0.16-0.17l0.27-6.98c0.03-0.68,0.6-1.2,1.28-1.18h0.19
		c0.09,0,0.16,0.07,0.16,0.16c0,0.09-0.07,0.16-0.16,0.16l0,0h-0.19c-0.49-0.02-0.91,0.36-0.93,0.85c0,0,0,0,0,0.01l-0.27,6.98
		c0,0.09-0.08,0.16-0.17,0.16C10.51,60.17,10.5,60.17,10.5,60.17z"/>
	<path class="st2" d="M3.27,62.15h22.47l-1.3,26.78c0,1.47-1.19,2.66-2.67,2.66H7.25c-1.47,0-2.66-1.19-2.66-2.66l0,0L3.27,62.15z"
		/>
	<path class="st0" d="M21.78,91.76H7.25c-1.56,0-2.82-1.27-2.83-2.83L3.11,62.17c0-0.09,0.07-0.17,0.16-0.17h22.47
		c0.04,0,0.09,0.02,0.12,0.05c0.03,0.03,0.05,0.08,0.05,0.12l-1.3,26.77C24.61,90.5,23.34,91.76,21.78,91.76z M3.45,62.32l1.3,26.62
		c0,1.38,1.12,2.49,2.49,2.49h14.53c1.38,0,2.49-1.12,2.49-2.49l1.31-26.62L3.45,62.32z"/>
	<path class="st0" d="M25.34,67.2H3.75c-0.09,0-0.16-0.07-0.16-0.16l0,0c0-0.09,0.07-0.16,0.16-0.16h21.59
		c0.09,0,0.16,0.07,0.16,0.16l0,0C25.5,67.13,25.43,67.2,25.34,67.2C25.34,67.2,25.34,67.2,25.34,67.2z"/>
	<rect x="112.98" y="49.35" class="st2" width="15.2" height="15.06"/>
	<path class="st0" d="M128.18,64.58h-15.2c-0.09,0-0.16-0.07-0.16-0.16V49.35c0-0.09,0.07-0.16,0.16-0.16h15.2
		c0.09,0,0.16,0.07,0.16,0.16v15.06C128.35,64.5,128.27,64.58,128.18,64.58z M113.15,64.25h14.86V49.51h-14.86L113.15,64.25z"/>
	<rect x="119.34" y="46.89" class="st0" width="2.76" height="4.27"/>
	<path class="st0" d="M125.73,52.99h-8.13c-0.09,0-0.16-0.07-0.16-0.16c0-0.09,0.07-0.16,0.16-0.16c0,0,0,0,0,0h8.13
		c0.09,0,0.16,0.07,0.16,0.16C125.89,52.92,125.82,52.99,125.73,52.99z"/>
	<path class="st0" d="M125.73,55.85h-10.44c-0.09,0-0.16-0.07-0.16-0.16c0-0.09,0.07-0.16,0.16-0.16h10.44
		c0.09,0,0.16,0.07,0.16,0.16C125.89,55.77,125.82,55.85,125.73,55.85C125.73,55.85,125.73,55.85,125.73,55.85z"/>
	<path class="st0" d="M125.8,58.7h-10.52c-0.09,0-0.16-0.07-0.16-0.16c0-0.09,0.07-0.16,0.16-0.16h10.52c0.09,0,0.16,0.07,0.16,0.16
		C125.97,58.63,125.89,58.7,125.8,58.7C125.8,58.7,125.8,58.7,125.8,58.7z"/>
	<path class="st0" d="M121.73,61.56h-6.44c-0.09,0-0.16-0.07-0.16-0.16c0-0.09,0.07-0.16,0.16-0.16h6.44c0.09,0,0.16,0.07,0.16,0.16
		C121.89,61.48,121.82,61.56,121.73,61.56z"/>
</g>
</svg>
