<?xml version="1.0" encoding="utf-8"?>
<!-- Generator: Adobe Illustrator 25.1.0, SVG Export Plug-In . SVG Version: 6.00 Build 0)  -->
<svg version="1.1" id="Warstwa_1" xmlns="http://www.w3.org/2000/svg" xmlns:xlink="http://www.w3.org/1999/xlink" x="0px" y="0px"
	 viewBox="0 0 334 231" style="enable-background:new 0 0 334 231;" xml:space="preserve">
<style type="text/css">
	.st0{fill:#FFFFFF;}
	.st1{fill:#231F20;}
	.st2{fill:#38D39F;}
</style>
<g id="_579_football_team_flatline">
	<path class="st0" d="M30.21,147.34c0,0,2.06,11.94,1.62,14c-0.44,2.06-8.07,33-11.15,39.16c0,0-7.78,10.71-8.51,14.67
		s-0.88,8.07,3.38,8.66s8.5,0.44,10.41-3.08s9.68-24.79,9.68-24.79l5.57-50.47L30.21,147.34z"/>
	<path class="st1" d="M18.99,224.59c-1.17-0.01-2.34-0.1-3.5-0.28c-1.27-0.11-2.44-0.75-3.22-1.76c-1.39-1.92-1-5-0.58-7.48
		c0.75-4,8.27-14.43,8.6-14.87c2.91-5.85,10.51-36.4,11.06-39c0.34-1.61-1-10.51-1.62-13.8c-0.02-0.13,0.01-0.27,0.09-0.38
		c0.08-0.11,0.19-0.18,0.32-0.2l11-1.86c0.16-0.02,0.31,0.03,0.43,0.13c0.11,0.11,0.17,0.26,0.15,0.42l-5.57,50.46v0.12
		c-0.32,0.87-7.81,21.34-9.71,24.86C24.86,223.87,21.96,224.59,18.99,224.59z M30.8,147.75c0.42,2.48,1.94,11.77,1.53,13.68
		c-0.33,1.53-8,32.95-11.19,39.29c-0.12,0.17-7.76,10.73-8.47,14.53c-0.42,2.28-0.75,5.11,0.41,6.71c0.61,0.8,1.54,1.29,2.54,1.36
		c5.4,0.75,8.45-0.12,9.91-2.82c1.82-3.36,9.18-23.45,9.68-24.63l5.5-49.74L30.8,147.75z"/>
	<path class="st0" d="M45.82,207c-0.26,12.63-10.72,22.65-23.34,22.39C10.22,229.13,0.34,219.26,0.09,207
		c-0.01-0.62,0.02-1.24,0.09-1.85c1.06-12.58,12.11-21.92,24.69-20.86c11.33,0.95,20.24,10.09,20.91,21.43l0,0
		C45.81,206.14,45.82,206.57,45.82,207z"/>
	<path class="st1" d="M22.95,230.36C10.05,230.35-0.4,219.9-0.41,207c0-0.63,0.03-1.27,0.09-1.9c1.03-12.84,12.27-22.42,25.11-21.4
		c2.46,0.2,4.86,0.78,7.14,1.73c2.71,1.1,5.18,2.72,7.28,4.76c4.24,4.08,6.78,9.62,7.1,15.5c0,0.43,0,0.87,0,1.31
		c-0.01,10.33-6.79,19.43-16.69,22.39C27.45,230.03,25.2,230.36,22.95,230.36z M22.95,184.63c-2.95-0.01-5.87,0.57-8.59,1.71
		c-7.74,3.22-13.02,10.5-13.69,18.85c-0.05,0.55-0.08,1.12-0.08,1.81c-0.26,12.35,9.54,22.58,21.89,22.84
		c12.35,0.26,22.58-9.54,22.84-21.89c0.01-0.32,0.01-0.63,0-0.95c0-0.42,0-0.83,0-1.24c-0.3-5.65-2.75-10.98-6.84-14.89
		c-2-1.95-4.36-3.5-6.94-4.56C28.81,185.18,25.89,184.61,22.95,184.63z"/>
	<polygon class="st1" points="22.96,197.23 13.95,203.78 17.39,214.37 28.52,214.37 31.97,203.78 	"/>
	<path class="st1" d="M28.52,214.87H17.39c-0.22,0-0.41-0.14-0.48-0.35l-3.44-10.59c-0.06-0.21,0.01-0.43,0.18-0.56l9-6.54
		c0.18-0.13,0.41-0.13,0.59,0l9,6.54c0.17,0.13,0.24,0.35,0.18,0.56l-3.44,10.59C28.91,214.72,28.73,214.86,28.52,214.87z
		 M17.75,213.87h10.46l3.22-9.9l-8.47-6.1l-8.42,6.12L17.75,213.87z"/>
	<path class="st1" d="M31.74,185.87l-8.79,6.38l-8.74-6.38c5.62-2.34,11.95-2.34,17.57,0H31.74z"/>
	<path class="st1" d="M22.95,192.77c-0.1,0-0.21-0.04-0.29-0.1l-8.79-6.39c-0.14-0.11-0.22-0.28-0.2-0.46
		c0.02-0.18,0.14-0.33,0.31-0.4c5.75-2.39,12.2-2.39,17.95,0c0.17,0.07,0.28,0.22,0.3,0.4c0.02,0.18-0.06,0.35-0.2,0.46l-8.82,6.39
		C23.13,192.72,23.04,192.76,22.95,192.77z M15.21,186.01l7.75,5.64l7.76-5.63C25.71,184.17,20.21,184.17,15.21,186.01z"/>
	<path class="st1" d="M16.43,228.87c-5.65-1.68-10.43-5.48-13.34-10.6l0.4-0.83l11,1.41L16.43,228.87z"/>
	<path class="st1" d="M16.43,229.41h-0.14c-5.78-1.7-10.67-5.58-13.63-10.83c-0.07-0.14-0.07-0.32,0-0.46l0.4-0.83
		c0.08-0.2,0.29-0.32,0.51-0.29l11,1.41c0.21,0.03,0.38,0.19,0.42,0.4l1.9,10c0.03,0.17-0.03,0.34-0.16,0.46
		C16.65,229.35,16.54,229.4,16.43,229.41z M3.66,218.29c2.7,4.66,7.01,8.18,12.12,9.89l-1.67-8.84l-10.33-1.32L3.66,218.29z"/>
	<path class="st1" d="M42.82,218.31c-2.92,5.11-7.7,8.89-13.34,10.56l1.9-10l11-1.41L42.82,218.31z"/>
	<path class="st1" d="M29.48,229.41c-0.12,0-0.24-0.04-0.33-0.13c-0.13-0.12-0.19-0.29-0.16-0.46l1.9-10
		c0.04-0.21,0.22-0.37,0.43-0.4l11-1.41c0.22-0.03,0.43,0.09,0.52,0.29l0.39,0.83c0.07,0.14,0.07,0.32,0,0.46
		c-2.97,5.24-7.86,9.12-13.63,10.83L29.48,229.41z M31.8,219.34l-1.67,8.84c5.11-1.71,9.42-5.23,12.13-9.89l-0.13-0.27L31.8,219.34z
		"/>
	<path class="st1" d="M9.03,200.3l-8.82,4.85c0.44-5.6,2.93-10.83,7-14.7L9.03,200.3z"/>
	<path class="st1" d="M0.21,205.65c-0.1,0-0.19-0.03-0.27-0.08c-0.15-0.1-0.24-0.27-0.22-0.45c0.46-5.71,3-11.05,7.14-15
		c0.13-0.13,0.33-0.17,0.5-0.11c0.17,0.06,0.3,0.2,0.34,0.38l1.86,9.85c0.04,0.21-0.06,0.43-0.25,0.53l-8.85,4.85
		C0.38,205.65,0.29,205.66,0.21,205.65z M6.89,191.47c-3.36,3.49-5.5,7.98-6.08,12.79l7.7-4.22L6.89,191.47z"/>
	<path class="st1" d="M45.78,205.72l-8.9-4.85l2-10.29C43.01,194.57,45.47,199.98,45.78,205.72z"/>
	<path class="st1" d="M45.78,206.22c-0.08,0-0.17-0.02-0.24-0.06l-8.9-4.88c-0.19-0.1-0.29-0.32-0.25-0.53l1.95-10.3
		c0.03-0.18,0.16-0.33,0.34-0.38c0.18-0.06,0.37-0.01,0.5,0.12c4.24,4.08,6.78,9.62,7.1,15.5c0.01,0.18-0.08,0.35-0.23,0.45
		C45.97,206.19,45.87,206.22,45.78,206.22z M37.44,200.58l7.77,4.29c-0.47-4.98-2.61-9.65-6.06-13.27L37.44,200.58z"/>
	<path class="st1" d="M52.21,89.7c-4,1.32-14.88,6.46-18.23,15.2c-1.79,4.66-7.24,45-7.24,45h14.68L52.21,89.7z"/>
	<path class="st1" d="M41.42,150.41H26.75c-0.28,0-0.5-0.23-0.49-0.51c0-0.02,0-0.04,0-0.06c0.22-1.65,5.48-40.46,7.26-45.11
		c3.24-8.44,13.54-13.84,18.54-15.51c0.17-0.05,0.35-0.02,0.48,0.1c0.14,0.11,0.2,0.29,0.17,0.46L41.91,150
		C41.87,150.24,41.66,150.41,41.42,150.41z M27.32,149.41H41l10.57-59c-5.06,1.89-14.17,7-17.11,14.63
		C32.82,109.33,27.99,144.49,27.32,149.41z"/>
	<path class="st1" d="M30.81,202.99c0,0.73-3.37,15.69-2.2,28.31h64.54c0,0,2.64-30.22-3.67-41.51L30.81,202.99z"/>
	<path class="st1" d="M93.15,231.8H28.61c-0.26,0-0.47-0.2-0.5-0.46c-1-10.61,1.24-23,2-27c0.12-0.66,0.22-1.24,0.23-1.35
		c0.01-0.23,0.17-0.42,0.39-0.48l58.68-13.2c0.21-0.05,0.43,0.05,0.54,0.24c6.31,11.3,3.84,40.56,3.73,41.8
		C93.65,231.62,93.42,231.82,93.15,231.8z M29.07,230.8h63.62c0.29-3.78,2.06-29.94-3.47-40.44l-58,13l-0.19,1.11
		C30.35,208.47,28.21,220.42,29.07,230.8z"/>
	<path class="st2" d="M67.04,83.78c0,0-10.27,0.69-16.72,7.73S37.7,109.7,36.21,120.87s0.29,26.7,0,34.33s-6.75,49-6.75,49
		s20.83,10.27,35.2,5.87c9.78-3.15,19.3-7.08,28.46-11.74l-4.4-36.67c1.17-7.92,6.52-62.55-2-70.59
		C84.27,88.73,80.21,80.87,67.04,83.78z"/>
	<path class="st1" d="M87.9,204.96c-0.25,0-0.47-0.19-0.5-0.44c0-0.29-3.23-29-3.63-36.85s0-31.15,0-31.39
		c-0.01-0.27,0.2-0.48,0.47-0.49c0.01,0,0.03,0,0.04,0c0.28,0.01,0.5,0.23,0.49,0.51c0,0,0,0,0,0c0,0.23-0.39,23.5,0,31.32
		s3.6,36.5,3.63,36.79c0.03,0.27-0.17,0.52-0.44,0.55L87.9,204.96z"/>
	<path class="st0" d="M86.99,145.39l7.43,16.62c0,0-11.07,32.67-11.4,41.08c0,0-5,6.84-5.42,11.73s1.18,11.15,2.94,12.32
		s11.93,1,12.61-2s1.66-9.2,1.27-12.33c-0.21-2.54-0.18-5.09,0.09-7.62c0,0,13.6-26.32,14.39-35.32s-3.52-28.17-3.52-28.17
		L86.99,145.39z"/>
	<path class="st1" d="M84.92,228.31c-1.59,0.11-3.18-0.15-4.66-0.75c-2-1.31-3.56-7.76-3.16-12.78c0.38-4.67,4.72-10.88,5.43-11.87
		c0.43-8.36,10.38-38,11.36-40.87l-7.36-16.45c-0.11-0.26,0.02-0.56,0.28-0.66c0.03-0.01,0.05-0.02,0.08-0.03l18.39-3.72
		c0.26-0.05,0.52,0.12,0.58,0.38c0.18,0.79,4.31,19.35,3.53,28.32s-13.4,33.57-14.39,35.5c-0.25,2.47-0.28,4.95-0.08,7.42
		c0.39,3.12-0.54,9.3-1.28,12.5c-0.2,0.84-1,1.52-2.24,2C89.31,228,87.12,228.34,84.92,228.31z M87.7,145.76l7.18,16.05
		c0.04,0.12,0.04,0.24,0,0.36c-0.11,0.33-11.06,32.7-11.38,40.94c-0.01,0.1-0.04,0.19-0.1,0.27c0,0.07-4.94,6.79-5.32,11.48
		c-0.39,4.92,1.2,10.85,2.71,11.87c1.19,0.79,7.13,0.89,10.23-0.33c0.66-0.26,1.48-0.71,1.62-1.33c0.64-2.7,1.65-9,1.27-12.14
		c-0.21-2.58-0.19-5.17,0.08-7.75c0.01-0.06,0.03-0.12,0.06-0.17c0.13-0.26,13.56-26.42,14.33-35.22c0.7-8-2.76-24.51-3.41-27.53
		L87.7,145.76z"/>
	<path class="st1" d="M83.06,87.1c0,0-10,14-5.52,30.67c2.41,9,9.84,31.73,10.43,32.12s20-4.5,20-4.5s-4.27-27.81-9.75-38.18
		S90.36,91.39,83.06,87.1z"/>
	<path class="st1" d="M88.05,150.38c-0.25,0-0.31,0-0.36-0.08c-0.92-0.61-8.77-25.4-10.63-32.4c-4.45-16.73,5.49-30.95,5.59-31.09
		c0.15-0.21,0.44-0.27,0.66-0.14c6.75,4,9.27,8.78,13.85,17.54l1.45,2.77c5.45,10.32,9.63,37.19,9.8,38.33
		c0.04,0.26-0.12,0.5-0.37,0.56C92.55,149.79,88.98,150.38,88.05,150.38z M83.21,87.77c-1.51,2.35-9.11,15.12-5.18,29.87
		c2.41,9.06,9.18,29.58,10.23,31.77c1.7-0.12,12.26-2.67,19.09-4.39c-0.58-3.63-4.63-28.12-9.62-37.58l-1.46-2.77
		C91.87,96.26,89.41,91.55,83.21,87.77z"/>
	<path class="st0" d="M52.54,75.33c-0.7,0,0,19.63,0.24,21c0.3,1.73,0.94,3.63,2.53,4.36c0.66,0.26,1.36,0.38,2.07,0.35
		c4.55-0.15,8.79-2.36,11.52-6c2.71-3.48,3.49-7.37,4.06-11.62c0.09-0.71,0.27-8.81,0-8.81L52.54,75.33z"/>
	<path class="st1" d="M57.34,101.58c-0.77,0.03-1.53-0.11-2.24-0.4c-1.45-0.66-2.37-2.21-2.81-4.72c0-0.18-1.1-20.28-0.18-21.42
		c0.11-0.12,0.25-0.19,0.41-0.21l0,0l20.4-0.63c0.15,0,0.3,0.06,0.4,0.17c0.54,0.59,0.14,9.12,0.13,9.2
		c-0.52,4-1.28,8.16-4.15,11.85c-2.83,3.76-7.22,6.03-11.92,6.16L57.34,101.58z M52.88,75.87c-0.42,2.39,0.12,19,0.39,20.47
		c0.39,2.16,1.12,3.46,2.25,4c0.59,0.24,1.22,0.35,1.86,0.31c4.39-0.13,8.49-2.25,11.13-5.77c2.72-3.5,3.44-7.54,4-11.37
		c0.1-0.75,0.2-6.72,0.08-8.23L52.88,75.87z M52.56,75.37L52.56,75.37z"/>
	<path class="st0" d="M80.27,59.63c0.23-0.62,0.43-1.24,0.6-1.88c3.3-12.13-1.56-27.7-15.85-28.69c-6.69-0.46-12.69,3.45-16,9.15
		c-4.09,7.13-3,16.25-2.2,24.11c0,0.52,0.15,1.03,0.45,1.46c0.81,1,2.4,0.33,3.46,0.31c1.53,0,3.1,0.23,4.64,0.31
		c2.64,0.13,5.29,0.22,7.94,0.18c3.82-0.06,7.67,0.27,11.45-0.33c1.62-0.26,2.73-0.27,3.81-1.57C79.3,61.76,79.87,60.73,80.27,59.63
		z"/>
	<path class="st1" d="M69.05,65.12h-2.34c-1.12,0-2.23,0-3.35,0c-2.31,0-4.85,0-8-0.18c-0.59,0-1.19-0.09-1.8-0.14
		c-0.93-0.11-1.87-0.16-2.81-0.17c-0.29,0.02-0.58,0.05-0.86,0.1c-1,0.14-2.21,0.32-3-0.59c-0.36-0.5-0.56-1.11-0.57-1.73
		l-0.11-1.12c-0.75-7.68-1.6-16.38,2.38-23.33c3.58-6.25,9.88-9.84,16.43-9.4c5.24,0.27,10.06,2.94,13.07,7.24
		c4,5.7,5.32,14.37,3.22,22.08c-0.2,0.73-0.4,1.36-0.61,1.92l0,0c-0.4,1.16-0.99,2.24-1.75,3.2c-0.89,1.03-2.17,1.63-3.53,1.65
		l-0.58,0.09C72.92,65.02,70.98,65.15,69.05,65.12z M64.37,64.12c0.78,0,1.57,0,2.35,0c2.67,0.12,5.35,0,8-0.35l0.58-0.09
		c1.11,0.01,2.18-0.46,2.91-1.3c0.69-0.87,1.22-1.85,1.58-2.9l0,0c0.23-0.6,0.42-1.22,0.59-1.84c2-7.44,0.81-15.77-3.08-21.24
		c-2.83-4.06-7.38-6.57-12.32-6.82c-6.17-0.42-12.11,3-15.49,8.9c-3.83,6.67-3,15.2-2.25,22.73l0.11,1.08
		c-0.01,0.42,0.1,0.83,0.33,1.18c0.42,0.49,1.26,0.37,2.07,0.25c0.33-0.05,0.66-0.09,1-0.11c0.98,0.01,1.95,0.06,2.92,0.17
		c0.58,0,1.17,0.11,1.75,0.14c3.11,0.16,5.62,0.22,7.92,0.18L64.37,64.12z"/>
	<path class="st0" d="M52.3,61.1c-0.75-6-10.65-7.85-10.41-0.77c0,2.46,0.85,4.84,2.42,6.73c1.64,1.89,4.26,2.6,6.63,1.81"/>
	<path class="st1" d="M49.04,69.71c-1.95-0.03-3.79-0.87-5.09-2.32c-1.65-1.96-2.55-4.44-2.56-7c-0.12-3.5,2.06-4.92,4.14-5.08
		c3.55-0.24,6.69,2.26,7.26,5.77c0.03,0.27-0.15,0.51-0.42,0.55c0,0,0,0-0.01,0c-0.27,0.03-0.52-0.16-0.56-0.43
		c-0.51-2.97-3.18-5.08-6.19-4.9c-2.13,0.17-3.3,1.65-3.22,4c0,2.34,0.81,4.6,2.29,6.41c1.5,1.74,3.9,2.4,6.07,1.67
		c0.24-0.14,0.55-0.05,0.68,0.19c0.14,0.24,0.05,0.55-0.19,0.68c-0.04,0.02-0.08,0.04-0.12,0.05
		C50.46,69.57,49.75,69.71,49.04,69.71z"/>
	<path class="st0" d="M73.86,61.1c0.76-6,10.66-7.85,10.41-0.77c0,2.46-0.85,4.84-2.42,6.73c-1.64,1.9-4.26,2.61-6.64,1.81"/>
	<path class="st1" d="M77.12,69.71c-0.71,0-1.42-0.13-2.08-0.4c-0.26-0.1-0.38-0.39-0.28-0.65c0,0,0,0,0,0
		c0.11-0.25,0.4-0.37,0.66-0.27c2.17,0.73,4.57,0.07,6.06-1.67c1.49-1.8,2.3-4.07,2.29-6.41c0.08-2.4-1.09-3.88-3.21-4
		c-3.01-0.19-5.69,1.92-6.2,4.9c-0.04,0.27-0.29,0.47-0.56,0.43c-0.27-0.03-0.46-0.27-0.43-0.54c0,0,0,0,0-0.01
		c0.57-3.51,3.72-6.01,7.27-5.77c2.07,0.16,4.25,1.58,4.13,5.08c-0.01,2.56-0.91,5.03-2.55,7C80.91,68.84,79.06,69.68,77.12,69.71z"
		/>
	<path class="st1" d="M53.04,77.94c1.43,2.24,3.39,4.08,5.71,5.37c4.05,2.51,8.79,3.66,13.53,3.29l0.22-8.74
		c-3.43,0.31-6.88,0.21-10.29-0.29c-3.04-0.21-6.03-0.88-8.86-2L53.04,77.94z"/>
	<path class="st1" d="M70.39,87.21c-4.2-0.09-8.31-1.28-11.9-3.47c-2.4-1.32-4.43-3.23-5.89-5.55c-0.05-0.09-0.07-0.2-0.06-0.3
		l0.27-2.41c0.03-0.27,0.28-0.47,0.55-0.44c0.05,0.01,0.1,0.02,0.15,0.04c2.78,1.11,5.72,1.78,8.71,2c3.39,0.5,6.82,0.6,10.23,0.29
		c0.14-0.01,0.28,0.04,0.39,0.13c0.11,0.1,0.17,0.24,0.16,0.38l-0.22,8.74c-0.01,0.25-0.19,0.46-0.44,0.49
		C71.69,87.18,71.04,87.21,70.39,87.21z M53.55,77.87c1.39,2.09,3.26,3.8,5.46,5c3.83,2.36,8.29,3.5,12.78,3.27l0.2-7.74
		c-3.3,0.25-6.62,0.13-9.89-0.34c-2.86-0.23-5.67-0.84-8.37-1.81L53.55,77.87z"/>
	<path class="st0" d="M78.78,44.87l-0.76,21.76c-0.03,0.93-0.15,1.85-0.37,2.76c-1.55,6.33-7.33,10.71-13.84,10.48l-1.6-0.06
		c-7.58-0.25-13.53-6.61-13.27-14.19c0-0.01,0-0.02,0-0.03l0.76-21.72c0,0,3.4,4.47,13.13,4.38C68.33,48.3,73.77,47.15,78.78,44.87z
		"/>
	<path class="st1" d="M64.28,80.37h-0.49l-1.6-0.06c-7.87-0.28-14.02-6.87-13.75-14.74l0.77-21.76c0-0.21,0.14-0.39,0.34-0.45
		c0.2-0.07,0.42,0,0.55,0.17c0,0,3.35,4.18,12.46,4.18h0.27c5.42,0.05,10.78-1.08,15.72-3.32c0.25-0.13,0.56-0.03,0.69,0.23
		c0.04,0.07,0.06,0.15,0.05,0.23l-0.76,21.77c-0.03,0.96-0.16,1.92-0.38,2.86C76.58,75.87,70.85,80.36,64.28,80.37z M50.21,45
		l-0.72,20.6c-0.25,7.29,5.43,13.41,12.72,13.7l1.61,0.06h0.45c7.15,0.04,13.03-5.64,13.24-12.79l0.7-20.93
		c-4.88,2.05-10.13,3.09-15.42,3.07h-0.28C55.44,48.71,51.7,46.33,50.21,45z"/>
	<path class="st0" d="M63.63,57.04c0,0,4.52,10,2.52,10.14s-4.83-1.31-4.83-1.31"/>
	<path class="st1" d="M65.81,67.7c-1.65-0.14-3.26-0.62-4.73-1.39c-0.25-0.11-0.36-0.41-0.25-0.66c0.11-0.25,0.41-0.36,0.66-0.25
		c0.02,0.01,0.04,0.02,0.06,0.03c0,0,2.74,1.44,4.56,1.25c0.47-0.55-0.86-4.88-2.93-9.44c-0.12-0.24-0.01-0.54,0.23-0.65
		c0.01,0,0.01-0.01,0.02-0.01c0.25-0.11,0.54,0,0.66,0.25c0.91,2,3.82,8.72,2.87,10.36c-0.16,0.28-0.44,0.46-0.76,0.49L65.81,67.7z"
		/>
	<path class="st1" d="M66.13,73.5c-3-0.07-5.93-0.91-8.51-2.44c-0.26-0.11-0.38-0.4-0.27-0.65s0.4-0.38,0.65-0.27
		c0.03,0.01,0.07,0.03,0.1,0.05c7,3.85,11.53,1.69,11.58,1.67c0.24-0.14,0.54-0.07,0.69,0.17c0.14,0.24,0.07,0.54-0.17,0.69
		c-0.02,0.01-0.04,0.02-0.07,0.03C68.86,73.29,67.5,73.55,66.13,73.5z"/>
	<ellipse class="st1" cx="57.79" cy="55.53" rx="0.94" ry="2.13"/>
	<ellipse class="st1" cx="70.4" cy="55.53" rx="0.94" ry="2.13"/>
	<path class="st1" d="M81.86,91.57c-0.13,0-0.26-0.05-0.36-0.14c-5.41-5.46-9-4.37-9.06-4.35c-0.26,0.09-0.54-0.06-0.63-0.32
		c-0.09-0.26,0.05-0.54,0.31-0.63c0.16-0.06,4.19-1.36,10.09,4.59c0.2,0.19,0.2,0.51,0,0.71c0,0,0,0,0,0
		C82.11,91.52,81.99,91.57,81.86,91.57z"/>
	<path class="st0" d="M65.53,123.46c0,0-2.59-2-2.59-4.5v-6.88h5.18v6.88C68.12,121.44,65.53,123.46,65.53,123.46z"/>
	<path class="st1" d="M65.53,123.96c-0.11,0.01-0.23-0.02-0.32-0.09c-0.11-0.09-2.78-2.2-2.78-4.9v-6.88c0-0.28,0.22-0.5,0.5-0.5
		h5.18c0.28,0,0.5,0.22,0.5,0.5v6.88c0,2.7-2.67,4.81-2.78,4.9C65.74,123.93,65.63,123.96,65.53,123.96z M63.44,112.58v6.38
		c0,1.73,1.44,3.24,2.09,3.84c0.65-0.6,2.09-2.12,2.09-3.84v-6.38H63.44z"/>
	<path class="st0" d="M54.95,168.94H44.11v-7.59l8-20.59h7.3v20.69h2.55v7.49h-2.55v5.16h-4.46V168.94z M54.95,161.45v-15.28l0,0
		l-6.14,15.28H54.95z"/>
	<path class="st1" d="M59.41,174.6h-4.46c-0.28,0-0.5-0.22-0.5-0.5v-4.66H44.11c-0.28,0-0.5-0.22-0.5-0.5v-7.59
		c-0.01-0.06-0.01-0.12,0-0.18l8-20.59c0.07-0.19,0.25-0.32,0.46-0.32h7.34c0.28,0,0.5,0.22,0.5,0.5v20.19h2
		c0.28,0,0.5,0.22,0.5,0.5v7.49c0,0.28-0.22,0.5-0.5,0.5h-2v4.66C59.91,174.38,59.68,174.6,59.41,174.6z M55.41,173.6h3.5v-4.66
		c0-0.28,0.22-0.5,0.5-0.5h2v-6.49h-2c-0.28,0-0.5-0.22-0.5-0.5v-20.19h-6.43l-7.87,20.18v7h10.34c0.28,0,0.5,0.22,0.5,0.5
		L55.41,173.6z M54.91,161.95h-6.1c-0.17,0-0.32-0.08-0.42-0.22c-0.09-0.14-0.11-0.31-0.05-0.47l6.09-15.28
		c0.08-0.19,0.26-0.31,0.47-0.31c0.29,0,0.52,0.22,0.55,0.5v15.28c-0.01,0.27-0.23,0.49-0.5,0.5H54.91z M49.5,160.95h4.91v-12.31
		L49.5,160.95z"/>
	<path class="st1" d="M313.34,231.3l-7.2-50l-56,1.07c-3.52,16.1-5.68,32.47-6.45,48.94L313.34,231.3z"/>
	<path class="st1" d="M313.34,231.8h-69.69c-0.28,0-0.5-0.22-0.5-0.5c0-0.01,0-0.01,0-0.02c0.79-16.48,2.95-32.88,6.47-49
		c0.05-0.22,0.24-0.38,0.47-0.39l56-1.07c0.25-0.02,0.48,0.17,0.51,0.42l7.2,50c0.02,0.14-0.02,0.29-0.12,0.4
		C313.59,231.74,313.47,231.79,313.34,231.8z M244.17,230.8h68.6l-7.06-49l-55.2,1.07c-3.41,15.78-5.51,31.81-6.3,47.93H244.17z"/>
	<path class="st2" d="M264.21,80.93c0,0-18.8,3.37-24,14s-3.56,23,0,28.45c3.56,5.45,7.11,60.47,8.41,62.4s20.6,7.66,34.48,6.46
		c22.31-1.94,26.62-6.46,26.62-6.46l-1.62-51.09c0,0,12.93,10.67,19.4-1.62s-25.86-38.23-29.42-41.9S264.21,80.93,264.21,80.93z"/>
	<path class="st0" d="M281.36,156.77c-0.22-3.12,1.31-5.61,3.71-6.5v-0.07c-1.78-1.17-2.94-3.09-3.13-5.22
		c-0.32-4.47,3.07-6.48,7.74-5.45c4.21,0.93,7.09,3.89,7.36,7.63c0.22,1.57-0.48,3.13-1.8,4v0.07c2.05,1.28,3.34,3.48,3.45,5.89
		c0.28,4.05-2.68,7-7.25,7.33C286.3,164.79,281.71,161.7,281.36,156.77z M294.49,156.21c-0.11-1.55-1.52-2.67-3.83-2.81
		s-3.92,0.9-3.8,2.59s1.74,2.83,4.18,2.82S294.6,157.87,294.49,156.21z M293.03,146.92c-0.11-1.46-1.22-2.48-3-2.79s-3,0.39-2.9,2
		s1.37,2.53,3.23,2.74S293.13,148.31,293.03,146.92z"/>
	<path class="st1" d="M290.61,164.95c-2.26,0.02-4.47-0.68-6.3-2c-2.01-1.44-3.28-3.71-3.45-6.18l0,0
		c-0.34-2.69,0.97-5.32,3.31-6.68c-1.59-1.25-2.58-3.11-2.74-5.12c-0.25-1.81,0.4-3.63,1.74-4.87c1.52-1.31,3.87-1.7,6.61-1.1
		c4.43,1,7.47,4.16,7.75,8.09c0.18,1.5-0.38,2.98-1.49,4c1.87,1.42,3.02,3.58,3.15,5.92c0.18,2.02-0.55,4.02-2,5.45
		c-1.56,1.49-3.61,2.35-5.77,2.42C291.21,164.94,290.9,164.95,290.61,164.95z M281.86,156.74c0.15,2.17,1.24,4.16,3,5.44
		c1.89,1.34,4.19,1.96,6.5,1.75c1.91-0.06,3.74-0.82,5.13-2.13c1.22-1.23,1.83-2.95,1.66-4.68c-0.11-2.24-1.3-4.29-3.2-5.48
		c-0.14-0.08-0.24-0.23-0.25-0.4c-0.02-0.2,0.06-0.39,0.21-0.52c1.17-0.77,1.78-2.14,1.58-3.52c-0.25-3.48-3-6.3-7-7.18
		c-2.42-0.54-4.46-0.23-5.74,0.88c-1.08,1.03-1.6,2.52-1.4,4c0.19,1.98,1.27,3.77,2.94,4.85c0.11,0.09,0.19,0.22,0.2,0.37
		c0.02,0.24-0.1,0.47-0.32,0.58c-2.25,0.84-3.58,3.19-3.38,6L281.86,156.74z M291.01,159.31c-2.72,0-4.5-1.26-4.65-3.28
		c-0.07-0.77,0.2-1.54,0.74-2.09c1-0.83,2.31-1.19,3.59-1c2.52,0.15,4.16,1.41,4.3,3.27l0,0c0.06,0.73-0.18,1.45-0.66,2
		c-0.9,0.8-2.09,1.2-3.29,1.11L291.01,159.31z M290.21,153.87c-0.86-0.07-1.72,0.2-2.39,0.75c-0.35,0.35-0.52,0.83-0.46,1.32
		c0.11,1.47,1.47,2.35,3.65,2.35l0,0c0.92,0.09,1.84-0.2,2.55-0.79c0.31-0.35,0.46-0.82,0.4-1.28l0,0c-0.1-1.32-1.38-2.22-3.36-2.34
		L290.21,153.87z M290.9,149.35c-0.21,0.01-0.42,0.01-0.63,0c-2.11-0.24-3.55-1.5-3.67-3.21c-0.09-0.72,0.16-1.44,0.67-1.95
		c0.81-0.59,1.84-0.79,2.81-0.53c2,0.34,3.33,1.56,3.45,3.25l0,0c0.07,0.67-0.15,1.33-0.62,1.81c-0.56,0.47-1.28,0.7-2.01,0.65
		V149.35z M289.21,144.56c-0.43-0.03-0.86,0.09-1.21,0.35c-0.29,0.3-0.42,0.73-0.35,1.14c0.08,1.23,1.15,2.1,2.79,2.29
		c0.63,0.14,1.29,0.01,1.82-0.36c0.25-0.27,0.37-0.64,0.32-1l0,0c-0.09-1.22-1-2.07-2.62-2.34
		C289.71,144.59,289.46,144.57,289.21,144.56z"/>
	<path class="st0" d="M291.28,119.56c0,0-5-2.23-5-5v-7.57h9.93v7.57C296.21,117.33,291.28,119.56,291.28,119.56z"/>
	<path class="st1" d="M291.28,120.06c-0.07,0-0.14-0.02-0.21-0.05c-0.21-0.09-5.26-2.39-5.26-5.42v-7.57c0-0.28,0.22-0.5,0.5-0.5
		h9.9c0.28,0,0.5,0.22,0.5,0.5v7.57c0,3-5,5.33-5.26,5.42C291.39,120.04,291.34,120.05,291.28,120.06z M286.81,107.52v7.07
		c0,1.89,3,3.74,4.47,4.41c1.41-0.67,4.46-2.52,4.46-4.41v-7.07H286.81z"/>
	<path class="st0" d="M264.26,90.14c-0.82-4.68-0.12-10-0.69-14.38l17.73,2c0.49,2.29,1.07,4.57,1.77,6.8
		c1,3.29,3.44,5.82,1.89,9.33c-2.39,5.42-8.73,7.88-14.15,5.49c-1.09-0.48-2.1-1.14-2.97-1.96C265.86,95.46,264.6,92.9,264.26,90.14
		z"/>
	<path class="st1" d="M275.21,100.76c-2.86,0-5.61-1.07-7.71-3c-2.06-2.01-3.37-4.66-3.73-7.52l0,0c-0.38-2.67-0.53-5.37-0.45-8.06
		c0.05-2.12-0.03-4.23-0.25-6.34c-0.02-0.15,0.03-0.31,0.14-0.42c0.11-0.11,0.26-0.16,0.41-0.15l17.73,2
		c0.21,0.02,0.39,0.18,0.44,0.39c0.51,2.37,1.1,4.64,1.75,6.76c0.3,0.89,0.65,1.77,1.07,2.61c1,2.14,2,4.35,0.81,7.07
		c-1.49,3.31-4.46,5.71-8,6.47C276.69,100.71,275.95,100.77,275.21,100.76z M264.75,90.06c0.31,2.66,1.52,5.13,3.43,7
		c4.13,3.85,10.6,3.62,14.44-0.51c0.78-0.84,1.41-1.8,1.88-2.85c1-2.31,0.18-4.14-0.8-6.25c-0.43-0.88-0.8-1.8-1.11-2.73
		c-0.63-2-1.21-4.23-1.71-6.49l-16.74-1.86c0.16,1.94,0.22,3.89,0.18,5.84c-0.08,2.64,0.06,5.28,0.43,7.89L264.75,90.06z"/>
	<path class="st0" d="M292.98,61.72c1.34-3.13,1.42-6.59,1.44-10.16c0-7.5,4-14.58,6.17-21.75l-7.38,2l3.35-6.45l-13.58,4.51
		c1.96-1.78,3.25-4.18,3.64-6.8c-3.08,3.1-7.8,3.69-12.11,4.46c-3,0.52-6.14,1.32-8.56,3.21c-1.66,1.29-4.49,3.9-5.25,5.79
		c-0.46,1.14-0.9,2.43-2,3c-0.51,0.23-1.04,0.43-1.58,0.6c-1.21,0.6-2.1,1.7-2.44,3c-0.34,1.27-0.49,2.59-0.44,3.91
		c0,2.82,0.1,5.64,0.13,8.46c0,1.89-0.76,4.63-0.06,6.39c1.13,2.86,5.16,3.67,7.75,4.47c4.18,1.29,8.64,0.61,12.93,0.55
		c4-0.07,8.06,0.28,12.05-0.36c1.7-0.27,2.87-0.27,4-1.65C291.83,63.94,292.48,62.87,292.98,61.72z"/>
	<path class="st1" d="M268.21,67.6c-2.12,0.05-4.23-0.22-6.27-0.8l-1-0.3c-2.67-0.77-6-1.73-7.07-4.46c-0.4-1.47-0.45-3.01-0.15-4.5
		c0.1-0.69,0.15-1.38,0.17-2.08c0-1.09,0-2.19-0.07-3.28c0-1.69-0.08-3.45-0.06-5.18c-0.06-1.37,0.1-2.74,0.46-4.06
		c0.4-1.42,1.39-2.61,2.72-3.26c0.23-0.1,0.46-0.17,0.7-0.25c0.29-0.07,0.57-0.18,0.83-0.32c0.81-0.64,1.39-1.53,1.65-2.53
		l0.11-0.26c0.82-2,3.78-4.73,5.4-6c2.55-2,5.87-2.79,8.79-3.3l1-0.18c4-0.69,8.09-1.4,10.82-4.15c0.15-0.15,0.38-0.19,0.57-0.09
		c0.2,0.09,0.31,0.3,0.28,0.52c-0.31,2.06-1.15,4-2.44,5.64l11.76-3.89c0.19-0.07,0.41-0.01,0.54,0.15
		c0.13,0.15,0.15,0.37,0.06,0.55l-2.8,5.46l6.28-1.7c0.17-0.05,0.36,0,0.49,0.13c0.12,0.13,0.17,0.32,0.12,0.5
		c-0.68,2.27-1.56,4.57-2.4,6.79c-1.83,4.8-3.72,9.76-3.75,14.82c0,3.82-0.15,7.23-1.48,10.35l0,0c-0.51,1.18-1.18,2.27-2,3.26
		c-0.94,1.07-2.3,1.68-3.72,1.69l-0.6,0.1c-2.85,0.37-5.73,0.5-8.6,0.37c-1.18,0-2.35,0-3.53,0c-1,0-2,0.06-3,0.11
		C270.74,67.54,269.48,67.6,268.21,67.6z M285.81,24.41c-2.85,2.14-6.57,2.79-10.19,3.41l-1,0.18c-2.79,0.49-6,1.25-8.35,3.11
		c-2,1.56-4.44,4-5.09,5.59l-0.1,0.25c-0.33,1.21-1.07,2.27-2.09,3c-0.32,0.17-0.65,0.31-1,0.4c-0.2,0.07-0.41,0.13-0.61,0.22
		c-1.08,0.54-1.87,1.52-2.17,2.68c-0.33,1.22-0.47,2.49-0.42,3.76c0,1.71,0,3.46,0.06,5.15c0,1.09,0.05,2.19,0.07,3.29
		c-0.02,0.74-0.07,1.48-0.17,2.21c-0.27,1.32-0.25,2.69,0.07,4c0.91,2.28,4,3.16,6.43,3.87l1,0.3c3.11,1,6.46,0.8,9.7,0.64
		c1,0,2-0.1,3.07-0.11c1.18,0,2.37,0,3.55,0c2.82,0.12,5.64,0,8.43-0.36l0.61-0.1c1.34-0.19,2.22-0.32,3.08-1.37
		c0.76-0.9,1.38-1.92,1.84-3l0,0c1.26-2.94,1.38-6.12,1.4-10c0-5.23,2-10.28,3.81-15.17c0.74-1.92,1.49-3.9,2.11-5.86l-6.5,1.76
		c-0.19,0.05-0.39-0.02-0.52-0.17c-0.12-0.16-0.14-0.37-0.05-0.54l2.78-5.36l-12.42,4.1c-0.22,0.08-0.47-0.02-0.59-0.22
		c-0.12-0.2-0.08-0.46,0.1-0.62C284.14,28.09,285.23,26.34,285.81,24.41z"/>
	<path class="st0" d="M285.43,60.72c0.79-6.34,11.21-8.26,10.95-0.81c0.01,2.59-0.89,5.1-2.55,7.09c-1.73,1.99-4.5,2.74-7,1.88"/>
	<path class="st1" d="M288.86,69.76c-0.75,0.01-1.49-0.13-2.18-0.41c-0.26-0.1-0.38-0.39-0.28-0.65c0,0,0,0,0,0
		c0.09-0.25,0.38-0.38,0.63-0.29c0.01,0,0.01,0.01,0.02,0.01c2.3,0.78,4.83,0.08,6.41-1.76c1.58-1.91,2.44-4.31,2.42-6.79
		c0.13-3.62-2.34-4.21-3.4-4.29c-3.18-0.2-6.01,2.03-6.55,5.17c-0.04,0.27-0.29,0.46-0.56,0.44c-0.27-0.04-0.47-0.28-0.44-0.56
		c0.6-3.69,3.9-6.31,7.63-6.05c2.17,0.18,4.45,1.66,4.32,5.32c0,2.7-0.94,5.32-2.68,7.4C292.83,68.82,290.9,69.71,288.86,69.76z"/>
	<path class="st1" d="M264.21,80.93c1.5,2.35,3.56,4.29,6,5.65c4,2.39,10,5.13,14.93,4.55l-0.49-10.26
		c-3.63,0.33-7.28,0.23-10.89-0.3c-3.2-0.23-6.35-0.96-9.33-2.15L264.21,80.93z"/>
	<path class="st1" d="M283.69,91.71c-5.13,0-10.74-2.88-13.78-4.7c-2.52-1.39-4.65-3.4-6.19-5.83c-0.05-0.1-0.07-0.2-0.06-0.31
		l0.28-2.53c0.02-0.16,0.11-0.3,0.25-0.38c0.14-0.07,0.31-0.07,0.45,0c2.94,1.16,6.03,1.87,9.18,2.1c3.57,0.53,7.18,0.63,10.77,0.31
		c0.14-0.02,0.28,0.02,0.38,0.11c0.11,0.09,0.17,0.22,0.18,0.36l0.45,10.29c0.01,0.26-0.18,0.48-0.44,0.51
		C284.67,91.69,284.18,91.72,283.69,91.71z M264.69,80.82c1.46,2.22,3.44,4.05,5.76,5.33c3.13,1.88,9,4.89,14.15,4.53l-0.41-9.29
		c-3.49,0.27-7,0.15-10.47-0.35c-3.02-0.25-5.99-0.89-8.84-1.92L264.69,80.82z"/>
	<path class="st0" d="M290.38,47.1c0.46,0.5,0.73,1.14,0.77,1.82c0.37,2.51-0.19,5.51-0.28,8c-0.14,4-0.41,8-0.41,12
		c-0.03,0.98-0.16,1.95-0.4,2.9c-1.61,6.67-7.7,11.3-14.56,11.06l-1.69-0.01c-6.42-0.22-11.92-4.64-13.52-10.86
		c-1.08-4.14-2.63-8.82-2.15-13.14c0.11-1,0.7-2.25,1.67-2c0.38,0.12,0.7,0.37,0.93,0.69l3.17,3.57c0.18,0.24,0.42,0.43,0.7,0.55
		c0.92,0.31,1.56-0.94,1.68-1.91c0.27-2.08,0.21-4.2,0.52-6.27c0.19-2.11,1.09-4.1,2.54-5.64c1.51-1.54,3.86-1.92,5.78-0.92
		c1.87,1.15,2.71,3.86,4.88,4.29c1.39,0.27,2.74-0.56,3.92-1.35C285.77,48.56,288.88,45.72,290.38,47.1z"/>
	<path class="st1" d="M275.99,83.46h-0.51l-1.69-0.07c-6.64-0.23-12.34-4.81-14-11.24c-0.16-0.64-0.34-1.3-0.52-2
		c-1-3.75-2.06-7.63-1.64-11.41c0.06-0.86,0.46-1.66,1.1-2.23c0.34-0.25,0.77-0.34,1.18-0.25c0.48,0.15,0.9,0.45,1.2,0.85l3.17,3.56
		c0.12,0.18,0.29,0.32,0.48,0.41c0.1,0.06,0.22,0.06,0.32,0c0.41-0.38,0.66-0.9,0.7-1.45c0.13-1,0.18-2,0.23-2.93
		s0.13-2.24,0.29-3.36c0.21-2.22,1.16-4.3,2.69-5.92c1.68-1.71,4.27-2.11,6.39-1c0.82,0.57,1.54,1.28,2.12,2.1
		c0.59,0.99,1.5,1.74,2.59,2.13c1.18,0.23,2.4-0.5,3.56-1.27c0.33-0.22,0.7-0.5,1.09-0.79c2-1.45,4.44-3.27,6-1.86l0,0
		c0.54,0.58,0.87,1.33,0.93,2.12c0.18,1.85,0.15,3.71-0.09,5.55c-0.08,0.91-0.16,1.76-0.19,2.58c0,1.34-0.11,2.68-0.17,4
		c-0.12,2.62-0.24,5.33-0.24,8c-0.04,1.01-0.17,2.02-0.41,3C288.94,78.71,282.91,83.46,275.99,83.46z M259.6,57.26
		c-0.1,0-0.2,0.03-0.28,0.09c-0.4,0.41-0.65,0.95-0.68,1.53c-0.4,3.59,0.62,7.38,1.61,11c0.18,0.67,0.35,1.33,0.52,2
		c1.55,6,6.86,10.27,13.05,10.49l1.7,0.07c7.69,0.28,14.16-5.73,14.44-13.42c0-0.02,0-0.03,0-0.05c0-2.66,0.12-5.38,0.24-8
		c0.07-1.34,0.13-2.68,0.17-4c0-0.84,0.11-1.71,0.19-2.63c0.24-1.76,0.27-3.54,0.1-5.31c-0.03-0.56-0.25-1.1-0.61-1.53
		c-0.93-0.85-3.11,0.75-4.71,1.93c-0.4,0.3-0.79,0.58-1.13,0.81c-1.32,0.89-2.75,1.73-4.3,1.42s-2.32-1.4-3.18-2.48
		c-0.51-0.73-1.14-1.36-1.86-1.88c-1.68-1-3.92-0.33-5.18,0.86c-1.37,1.47-2.21,3.35-2.39,5.35c-0.16,1.07-0.22,2.19-0.28,3.27
		s-0.11,2-0.23,3c-0.08,0.85-0.5,1.63-1.17,2.17c-0.35,0.23-0.78,0.28-1.17,0.14c-0.36-0.15-0.67-0.38-0.91-0.69l-3.17-3.57
		c-0.17-0.24-0.4-0.42-0.67-0.53L259.6,57.26z"/>
	<path class="st0" d="M279.76,59.27c0,0,4.75,10.48,2.65,10.67s-5.09-1.37-5.09-1.37"/>
	<path class="st1" d="M282.04,70.46c-1.73-0.15-3.41-0.64-4.95-1.45c-0.25-0.13-0.34-0.43-0.21-0.67c0,0,0,0,0-0.01
		c0.12-0.24,0.42-0.34,0.66-0.22c0,0,0.01,0,0.01,0.01c0,0,2.89,1.51,4.81,1.33c0.53-0.54-0.89-5.21-3.06-10
		c-0.1-0.26,0.03-0.55,0.29-0.64c0.24-0.09,0.5,0.01,0.62,0.23c1,2.12,4,9.17,3,10.88c-0.16,0.28-0.45,0.47-0.78,0.5L282.04,70.46z"
		/>
	<ellipse class="st1" cx="273.48" cy="58.03" rx="0.99" ry="2.24"/>
	<ellipse class="st1" cx="284.42" cy="58.03" rx="0.99" ry="2.24"/>
	<path class="st0" d="M263.38,60.72c-0.79-6.34-11.22-8.26-11-0.81c-0.01,2.59,0.89,5.1,2.55,7.09c1.73,1.99,4.5,2.73,7,1.88"/>
	<path class="st1" d="M259.95,69.76c-2.04-0.04-3.97-0.92-5.34-2.43c-1.74-2.07-2.69-4.69-2.69-7.4c-0.12-3.66,2.16-5.14,4.33-5.32
		c3.72-0.26,7.03,2.37,7.62,6.05c0.04,0.27-0.16,0.52-0.43,0.56c-0.28,0.03-0.52-0.17-0.56-0.44c-0.55-3.14-3.37-5.37-6.55-5.17
		c-1.07,0.08-3.53,0.67-3.41,4.29c0,2.47,0.85,4.86,2.42,6.76c1.59,1.82,4.11,2.52,6.41,1.76c0.26-0.1,0.55,0.02,0.65,0.27
		c0.1,0.26-0.02,0.55-0.27,0.66C261.43,69.63,260.69,69.76,259.95,69.76z"/>
	<path class="st0" d="M294.29,132.31c-4.38,2.15,17.82,7.59,24.25,7.27s14.27-3.88,13.76-7.22s-8-15.73-12.23-19.07
		c0,0-13.16,2.58-14.69,4.85c-1.09,1.94-1.85,4.06-2.25,6.25L294.29,132.31z"/>
	<path class="st1" d="M318.03,140.09c-5.93,0-24-3.92-24.78-6.89c-0.08-0.3-0.08-0.87,0.75-1.31l8.67-7.76
		c0.4-2.2,1.18-4.32,2.29-6.27c1.6-2.37,13.64-4.8,15-5.06c0.14-0.03,0.3,0,0.41,0.1c4.23,3.37,11.87,15.77,12.42,19.39
		c0.1,0.94-0.21,1.87-0.86,2.56c-2.14,2.62-8.14,5-13.38,5.23L318.03,140.09z M319.93,113.82c-5,1-13.12,3.09-14.14,4.6
		c-1.05,1.87-1.78,3.89-2.16,6c-0.02,0.11-0.08,0.21-0.16,0.29l-8.85,7.92c-0.03,0.03-0.07,0.06-0.11,0.07
		c-0.25,0.13-0.29,0.21-0.29,0.21c0.19,1.72,17.56,6.43,24.29,6.12c4.91-0.25,10.7-2.47,12.65-4.86c0.46-0.47,0.7-1.12,0.65-1.78
		c-0.47-3.01-7.6-14.96-11.88-18.52V113.82z M294.29,132.31L294.29,132.31z"/>
	<path class="st0" d="M273.82,115.98c0,0-11.95,7.44-14.34,16.33c0,0,13.87,14.87,19.23,14.87s28.33-22.39,35-25.7
		c0,0-22.17-1.84-31.41,1.72L273.82,115.98z"/>
	<path class="st1" d="M278.71,147.68c-5.51,0-19-14.42-19.6-15c-0.11-0.13-0.15-0.3-0.11-0.47c2.41-9,14.06-16.32,14.55-16.62
		c0.17-0.13,0.42-0.13,0.59,0l8.29,7c9.39-3.42,30.45-1.73,31.35-1.65c0.22,0.01,0.41,0.18,0.45,0.4c0.04,0.22-0.07,0.44-0.27,0.54
		c-2.73,1.36-8.35,6-14.29,11C290.99,140.18,282.01,147.68,278.71,147.68z M260.04,132.17c1.68,1.78,13.92,14.51,18.67,14.51
		c2.94,0,12.17-7.71,20.32-14.52c5.1-4.26,10-8.32,13.05-10.3c-5.27-0.33-22-1.11-29.57,1.81c-0.17,0.06-0.37,0.03-0.51-0.09
		l-8.22-7C271.93,117.87,262.29,124.47,260.04,132.17z"/>
	<path class="st1" d="M313.74,121.98c-0.17,0-0.33-0.09-0.42-0.23c-0.15-0.23-0.08-0.54,0.15-0.69c1.24-0.77,2.62-1.3,4.05-1.58
		c0.26-0.06,0.53,0.11,0.59,0.37c0,0.01,0,0.01,0,0.02c0.05,0.27-0.13,0.53-0.4,0.59c-1.31,0.25-2.55,0.74-3.69,1.43
		C313.93,121.95,313.84,121.98,313.74,121.98z"/>
	<path class="st0" d="M279.88,121.87c-1.03,1.3-0.96,3.16,0.16,4.38c0.93,0.67,2.07,0.97,3.21,0.83c2.17-0.08,5-0.5,6.8-1.85
		c1.41-1.06,2-3.33,0.74-4.74C288.34,117.87,281.81,119.29,279.88,121.87z"/>
	<path class="st1" d="M282.87,127.62c-1.14,0.07-2.26-0.29-3.16-1c-1.29-1.38-1.39-3.5-0.23-5c1.19-1.62,4-2.86,6.75-3
		c1.8-0.23,3.6,0.35,4.93,1.58c0.62,0.69,0.92,1.62,0.82,2.54c-0.12,1.16-0.71,2.22-1.63,2.94c-2.06,1.55-5.32,1.89-7.08,2
		L282.87,127.62z M286.78,119.62h-0.49c-2.47,0.13-5,1.23-6,2.6l0,0c-0.87,1.09-0.83,2.65,0.09,3.7c0.83,0.6,1.86,0.86,2.87,0.71
		c1.64-0.06,4.67-0.36,6.51-1.75c0.7-0.54,1.15-1.35,1.23-2.23c0.08-0.64-0.12-1.29-0.55-1.77c-0.99-0.92-2.31-1.39-3.66-1.29
		V119.62z M279.88,121.93L279.88,121.93z"/>
	<path class="st1" d="M277.31,74.49c-1.66,0.15-3.28-0.62-4.22-2c-0.15-0.23-0.09-0.54,0.13-0.71c0.2-0.16,0.49-0.13,0.65,0.07
		c0,0.01,0.01,0.01,0.01,0.02l0.06,0.09c1,1.57,3.27,1.94,6.44,1c0.26-0.08,0.53,0.06,0.61,0.32c0,0.01,0,0.01,0.01,0.02
		c0.07,0.26-0.08,0.54-0.34,0.62C279.57,74.26,278.44,74.46,277.31,74.49z"/>
	<path class="st1" d="M254.31,188.87c-0.05,0.01-0.1,0.01-0.15,0c-0.26-0.08-0.41-0.36-0.33-0.62c0.02-0.07,0.06-0.13,0.11-0.18
		c0.53-1.21,5.55-19.09,5-22.55c-0.52-3.66-6.21-31.31-6.27-31.59c-0.05-0.27,0.12-0.53,0.39-0.59c0.26-0.06,0.53,0.11,0.59,0.37
		c0,0.01,0,0.01,0,0.02c0.24,1.14,5.75,27.95,6.28,31.64c0.51,3.5-4.54,22.74-5.32,23.4C254.52,188.83,254.41,188.87,254.31,188.87z
		"/>
	<path class="st1" d="M302.96,96.17c-0.12,0-0.24-0.05-0.34-0.13c-2.09-1.72-4.53-2.95-7.16-3.6c-4.41-1.06-9.59-2.38-9.59-2.38
		l0.24-1c0,0,5.18,1.32,9.59,2.37c2.79,0.69,5.38,2,7.59,3.83c0.2,0.19,0.2,0.51,0,0.71c0,0,0,0,0,0
		C303.21,96.08,303.09,96.15,302.96,96.17z"/>
	<path class="st1" d="M259.52,95.14c-0.07,0.02-0.15,0.02-0.22,0c-0.25-0.12-0.35-0.42-0.23-0.67c0,0,0,0,0,0
		c1.08-2.1,2.85-3.77,5-4.75c0.26-0.09,0.55,0.04,0.65,0.3c0.09,0.26-0.04,0.55-0.3,0.64c-1.92,0.88-3.49,2.38-4.46,4.26
		C259.86,95.06,259.69,95.15,259.52,95.14z"/>
	<path class="st1" d="M277.32,115.98L257.9,92.7c-3.81-4.56-8.53-6.49-13.42-3.12s-13,14.76-5.74,28.82
		c4.14,8,22.14,23.44,22.14,23.44l18.33-23.92L277.32,115.98z"/>
	<path class="st1" d="M260.88,142.34c-0.12,0-0.23-0.04-0.32-0.12c-0.74-0.63-18.13-15.58-22.27-23.59
		c-7.91-15.28,1.86-26.68,5.91-29.46c4.66-3.22,9.67-2.08,14.08,3.21l19.41,23.27l1.83,1.93c0.16,0.18,0.16,0.46,0,0.64
		l-18.27,23.93c-0.08,0.11-0.21,0.18-0.35,0.19H260.88z M249.51,88.34c-1.71,0.04-3.37,0.6-4.75,1.62
		c-4.85,3.34-12.59,14.63-5.58,28.19c3.71,7.17,18.95,20.61,21.63,22.94l17.69-23.17l-1.54-1.63l0,0l-19.45-23.27
		c-1.96-2.35-4.72-4.65-8-4.65L249.51,88.34z"/>
	<path class="st1" d="M303.88,119.97c0,0-1.4-11.41-4.85-19.72s-5.31-10.67-5.31-10.67c5.87,2.32,11.12,5.97,15.33,10.67
		c6.33,7.44,11,13,11,13L303.88,119.97z"/>
	<path class="st1" d="M303.88,120.47c-0.09,0-0.17-0.03-0.25-0.07c-0.14-0.08-0.23-0.21-0.25-0.37c0-0.12-1.43-11.44-4.81-19.58
		s-5.23-10.58-5.24-10.58c-0.13-0.18-0.13-0.42,0-0.6c0.13-0.18,0.36-0.26,0.57-0.18c5.94,2.36,11.26,6.07,15.54,10.82
		c6.26,7.35,11,13,11,13c0.18,0.22,0.15,0.54-0.07,0.72c-0.04,0.03-0.08,0.05-0.12,0.07l-16.19,6.68
		C304,120.42,303.94,120.45,303.88,120.47z M295.01,90.65c1.7,3.04,3.19,6.18,4.48,9.41c3,7.14,4.44,16.65,4.8,19.2l14.92-6.18
		c-1.3-1.55-5.41-6.44-10.57-12.5C304.84,96.34,300.2,92.96,295.01,90.65L295.01,90.65z"/>
	<path class="st0" d="M249.47,230.32c-0.27,0-0.48-0.21-0.5-0.48c-0.58-13.78,3.7-37.25,3.74-37.49c0.06-0.27,0.31-0.44,0.58-0.4
		c0.27,0.05,0.45,0.31,0.4,0.58c0,0.24-4.29,23.6-3.72,37.27c0.02,0.27-0.19,0.5-0.46,0.52c0,0-0.01,0-0.01,0H249.47z"/>
	<path class="st0" d="M285.33,231.8h-0.05c-0.27-0.03-0.48-0.27-0.45-0.55c0,0,0,0,0,0c0-0.09,0.86-8.61,1.76-16.35
		c0.04-0.27,0.29-0.46,0.56-0.44c0.27,0.03,0.47,0.28,0.44,0.55c-0.9,7.73-1.76,16.25-1.77,16.34
		C285.8,231.6,285.58,231.8,285.33,231.8z"/>
	<path class="st1" d="M139.21,162.09c0,0-5,54.61-6.56,67.93l80.7,1.28c0,0-3.13-58.27-7.74-70.56S139.21,162.09,139.21,162.09z"/>
	<path class="st1" d="M213.34,231.8L213.34,231.8l-80.7-1.28c-0.14,0-0.27-0.07-0.37-0.17c-0.09-0.11-0.14-0.25-0.12-0.39
		c1.52-13.16,6.51-67.37,6.56-67.91c0.02-0.22,0.18-0.4,0.39-0.44c2.54-0.57,62.27-13.61,67-1.05c4.58,12.23,7.64,68.33,7.77,70.71
		c0,0.14-0.05,0.27-0.14,0.38C213.62,231.75,213.48,231.8,213.34,231.8z M133.21,229.53l79.62,1.26c-0.33-5.9-3.38-58.42-7.68-69.88
		c-4.23-11.28-60.42,0.51-65.46,1.6C139.21,167.24,134.71,216.08,133.21,229.53z"/>
	<path class="st2" d="M161.69,67.59c0,0-24,4.75-29,11.79c0,0,2.82,79.5,2.82,99.15l74.23-1.76c0,0,1.23-93.32-1.26-97.39
		C202.64,69.93,161.69,67.59,161.69,67.59z"/>
	<path class="st0" d="M168.21,116.29l-13.41,6.85v-10.53l14.2-7.22h9.79v41.13h-10.58V116.29z"/>
	<path class="st1" d="M178.76,147.02h-10.55c-0.27-0.01-0.49-0.23-0.5-0.5V117.1l-12.67,6.49c-0.15,0.09-0.34,0.09-0.49,0
		c-0.15-0.09-0.24-0.25-0.24-0.43v-10.55c0-0.18,0.11-0.35,0.27-0.44l14.2-7.22c0.07-0.04,0.15-0.06,0.23-0.06h9.79
		c0.28,0,0.5,0.22,0.5,0.5v41.13c0,0.28-0.22,0.5-0.5,0.5C178.78,147.02,178.77,147.02,178.76,147.02z M168.67,146.02h9.59v-40.15
		h-9.17l-13.82,7v9.41l12.68-6.41c0.24-0.13,0.54-0.04,0.66,0.2c0.04,0.08,0.06,0.16,0.06,0.25V146.02z"/>
	<path class="st0" d="M161.97,57.11l-1.76,16.76c0,0,4.55,6.75,12,6.84s10.47-4.4,10.47-4.4l-0.72-21.9L161.97,57.11z"/>
	<path class="st1" d="M172.4,81.25h-0.25c-7.58-0.1-12.17-6.79-12.36-7.07c-0.07-0.09-0.1-0.21-0.08-0.33l1.76-16.79
		c0.02-0.23,0.2-0.41,0.43-0.44l19.95-2.68c0.14-0.02,0.29,0.02,0.39,0.12c0.11,0.09,0.17,0.22,0.17,0.36l0.72,21.91
		c0.01,0.11-0.02,0.21-0.08,0.3C182.92,76.87,179.81,81.25,172.4,81.25z M160.72,73.76c0.71,1,5,6.4,11.45,6.49h0.23
		c6.21,0,9.18-3.37,9.73-4.06l-0.7-21.18l-19,2.55L160.72,73.76z"/>
	<path class="st0" d="M192.63,40.43c0.01-0.29-0.02-0.59-0.07-0.88c-0.14-0.43-0.14-0.9,0-1.33c0.24-0.46,0.84-0.61,1.22-1
		c0.84-0.78,0.43-2.16,0-3.21c-0.12-0.23-0.17-0.5-0.14-0.76c0.1-0.29,0.29-0.55,0.54-0.72c2.53-2.43,3.03-6.3,1.2-9.29
		c1.35-1.73,1.15-4.22-0.46-5.71c-0.28-0.16-0.53-0.39-0.71-0.66c-0.08-0.22-0.11-0.45-0.09-0.68c-0.08-2.92-2.02-5.46-4.81-6.32
		c-0.61-1.86-1.92-3.4-3.66-4.3c-1.72-0.87-3.55-1.51-5.44-1.9c0.41-1.28-1-2.42-2.32-2.73c-2.48-0.56-5.08,0.16-6.91,1.93
		c-0.07-0.88-0.7-1.61-1.55-1.83c-0.84-0.2-1.71-0.22-2.56-0.06c-2.93,0.35-6,0.73-8.49,2.25c-0.83,0.47-1.53,1.17-2,2
		c-0.48,0.84-0.48,1.88,0,2.72c-2.61,0.82-4.58,2.96-5.18,5.63c-0.55,2.65-0.17,5.4,1.07,7.8c-2.71,2.15-3.31,6.03-1.37,8.9
		c-0.9-0.27-1.71,0.87-1.54,1.8c0.29,0.91,0.84,1.72,1.57,2.33c0.69,0.63,1.07,1.53,1.04,2.46c-0.11,0.4-0.25,0.79-0.42,1.17
		c-0.47,1.53,0.27,3.17,1.73,3.83c-1,0.36-1,1.94-0.17,2.61c1.47,1.23,4.45,0.62,6.19,0.6s3.27,0.24,4.88,0.32
		c2.79,0.15,5.58,0.24,8.37,0.19c3.54,0,7.11,0.22,10.64-0.16c2.57-0.28,5.59,0.68,7.73-1.2C191.99,43.26,192.61,41.88,192.63,40.43
		z"/>
	<path class="st1" d="M178.57,46.13c-0.84,0-1.67,0-2.49,0c-1.18,0-2.35,0-3.52,0c-2.45,0-5.12,0-8.41-0.19
		c-0.62,0-1.25-0.09-1.88-0.15c-1-0.11-2-0.17-3-0.17c-0.37,0-0.81,0-1.28,0.07c-1.75,0.13-3.93,0.3-5.23-0.78
		c-0.6-0.53-0.88-1.33-0.74-2.12c0.04-0.29,0.16-0.57,0.34-0.81c-1.23-0.93-1.76-2.52-1.32-4l0.18-0.45c0.1-0.2,0.18-0.42,0.22-0.64
		c0.01-0.81-0.36-1.58-1-2.09l-0.2-0.21c-0.71-0.63-1.23-1.45-1.49-2.37c-0.12-0.74,0.15-1.49,0.7-2c0.14-0.13,0.3-0.24,0.48-0.31
		c-1.5-2.91-0.84-6.45,1.6-8.63c-1.17-2.41-1.49-5.15-0.93-7.77c0.6-2.64,2.48-4.82,5-5.81c-0.28-0.89-0.17-1.85,0.28-2.66
		c0.53-0.91,1.3-1.65,2.22-2.15c2.67-1.6,5.87-2,8.69-2.32c0.92-0.17,1.86-0.14,2.77,0.08c0.72,0.22,1.33,0.72,1.69,1.39
		c1.91-1.48,4.38-2.02,6.74-1.49c1.03,0.23,1.92,0.86,2.49,1.74c0.2,0.33,0.3,0.72,0.28,1.11c1.78,0.39,3.5,1.01,5.12,1.86
		c1.77,0.91,3.13,2.46,3.81,4.33c2.85,0.99,4.81,3.62,4.94,6.64c-0.01,0.17,0.01,0.34,0.05,0.5c0.1,0.17,0.23,0.32,0.4,0.43
		l0.14,0.12c1.73,1.58,2.04,4.18,0.73,6.12c1.75,3.17,1.15,7.12-1.46,9.63c-0.2,0.18-0.37,0.33-0.39,0.45
		c0.01,0.14,0.05,0.27,0.11,0.39c0.47,1.13,1,2.76-0.12,3.77c-0.18,0.16-0.38,0.29-0.59,0.41c-0.21,0.09-0.39,0.24-0.53,0.42
		c-0.08,0.27-0.08,0.56,0,0.83v0.18c0.06,0.33,0.09,0.66,0.08,1c-0.02,1.57-0.68,3.06-1.84,4.12c-1.64,1.44-3.67,1.36-5.65,1.29
		c-0.78-0.06-1.57-0.06-2.35-0.02C181.67,46.04,180.12,46.13,178.57,46.13z M173.57,45.08h2.5c2.35,0.08,4.71,0.02,7.05-0.18
		c0.83-0.06,1.66-0.06,2.49,0c1.86,0.07,3.62,0.13,5-1c0.97-0.87,1.53-2.11,1.54-3.42l0,0c0.01-0.26-0.01-0.53-0.06-0.79v-0.16
		c-0.14-0.48-0.11-1,0.08-1.47c0.21-0.36,0.52-0.65,0.9-0.83c0.15-0.08,0.29-0.18,0.42-0.29c0.48-0.44,0.44-1.29-0.13-2.65
		c-0.39-0.69-0.18-1.57,0.49-2c2.37-2.27,2.85-5.87,1.15-8.68c-0.13-0.18-0.13-0.42,0-0.6c1.18-1.52,1.01-3.68-0.39-5l-0.13-0.1
		c-0.3-0.21-0.54-0.49-0.69-0.82c-0.09-0.25-0.13-0.52-0.12-0.79c-0.06-2.73-1.85-5.12-4.46-5.93c-0.17-0.05-0.3-0.18-0.35-0.35
		c-0.57-1.73-1.8-3.16-3.41-4c-1.68-0.86-3.47-1.49-5.32-1.87c-0.14-0.04-0.25-0.13-0.32-0.25c-0.05-0.13-0.05-0.26,0-0.39
		c0.1-0.28,0.06-0.6-0.1-0.85c-0.44-0.63-1.11-1.08-1.86-1.25c-2.31-0.53-4.74,0.14-6.44,1.79c-0.14,0.15-0.36,0.19-0.54,0.11
		c-0.19-0.08-0.31-0.26-0.31-0.46c-0.08-0.66-0.56-1.2-1.2-1.36c-0.77-0.17-1.58-0.17-2.35,0c-2.72,0.32-5.81,0.69-8.3,2.18
		c-0.77,0.41-1.4,1.02-1.85,1.77c-0.39,0.69-0.39,1.53,0,2.22c0.15,0.22,0.09,0.53-0.13,0.68c-0.05,0.03-0.1,0.06-0.16,0.07
		c-2.44,0.76-4.28,2.77-4.82,5.26c-0.53,2.53-0.18,5.16,1,7.46c0.1,0.22,0.04,0.48-0.16,0.62c-2.49,1.99-3.04,5.56-1.25,8.2
		c0.13,0.18,0.13,0.41,0,0.59c-0.12,0.18-0.34,0.25-0.55,0.19c-0.2-0.07-0.43-0.02-0.58,0.14c-0.3,0.28-0.44,0.68-0.38,1.08
		c0.23,0.72,0.65,1.37,1.23,1.86l0.2,0.22c0.84,0.73,1.3,1.81,1.24,2.93c-0.06,0.31-0.16,0.62-0.29,0.91
		c-0.05,0.13-0.11,0.26-0.15,0.39c-0.38,1.28,0.24,2.64,1.45,3.19c0.19,0.08,0.31,0.26,0.31,0.47c0,0.21-0.13,0.39-0.33,0.46
		c-0.23,0.1-0.39,0.33-0.42,0.58c-0.07,0.44,0.08,0.88,0.4,1.18c1,0.82,2.94,0.67,4.51,0.56c0.5,0,1-0.07,1.35-0.08
		c1.03,0,2.05,0.06,3.07,0.18c0.62,0.05,1.24,0.11,1.85,0.14c3.26,0.17,5.9,0.23,8.33,0.19L173.57,45.08z"/>
	<path class="st0" d="M160.91,41.92c-0.79-6.35-11.22-8.27-11-0.81c-0.01,2.59,0.89,5.09,2.55,7.08c1.73,1.99,4.5,2.74,7,1.89"/>
	<path class="st1" d="M157.48,50.96c-2.04-0.04-3.97-0.92-5.34-2.43c-1.74-2.07-2.69-4.69-2.69-7.4c-0.12-3.66,2.16-5.15,4.33-5.32
		c3.71-0.26,7.01,2.33,7.63,6c0.03,0.27-0.16,0.52-0.43,0.56c0,0,0,0-0.01,0c-0.27,0.03-0.52-0.16-0.56-0.43
		c-0.54-3.15-3.36-5.38-6.55-5.18c-1.07,0.09-3.53,0.68-3.41,4.29c-0.02,2.49,0.84,4.9,2.42,6.82c1.59,1.83,4.12,2.53,6.42,1.77
		c0.25-0.11,0.54,0.01,0.64,0.26c0,0,0,0.01,0.01,0.01c0.1,0.26-0.02,0.55-0.28,0.65c0,0,0,0,0,0
		C158.96,50.83,158.22,50.97,157.48,50.96z"/>
	<path class="st0" d="M183.61,41.92c0.79-6.35,11.22-8.27,10.95-0.81c0.02,2.59-0.88,5.09-2.54,7.08c-1.73,1.99-4.5,2.74-7,1.89"/>
	<path class="st1" d="M187.04,50.96c-0.75,0-1.49-0.14-2.18-0.42c-0.26-0.1-0.38-0.39-0.28-0.65c0,0,0,0,0,0
		c0.1-0.25,0.38-0.38,0.64-0.28c0,0,0.01,0,0.01,0.01c2.3,0.77,4.83,0.08,6.42-1.75c1.57-1.9,2.43-4.29,2.42-6.76
		c0.12-3.61-2.35-4.2-3.41-4.29c-3.18-0.19-6.01,2.04-6.55,5.18c-0.04,0.27-0.29,0.46-0.56,0.43c-0.27-0.03-0.47-0.28-0.44-0.55
		c0,0,0,0,0-0.01c0.62-3.67,3.92-6.26,7.63-6c2.17,0.17,4.45,1.66,4.33,5.32c0,2.71-0.96,5.32-2.69,7.4
		C191,50.08,189.07,50.94,187.04,50.96z"/>
	<path class="st1" d="M161.69,59.65c1.5,2.35,3.56,4.29,6,5.65c4,2.39,9.78,5.81,14.74,5.22l-0.26-11
		c-3.63,0.33-7.28,0.23-10.89-0.3c-3.2-0.23-6.34-0.96-9.32-2.15L161.69,59.65z"/>
	<path class="st1" d="M181.31,71.09c-4.94,0-10.46-3.32-13.87-5.36c-2.54-1.4-4.68-3.41-6.23-5.86c-0.05-0.1-0.07-0.2-0.06-0.31
		l0.28-2.53c0.02-0.16,0.11-0.3,0.25-0.38c0.14-0.07,0.32-0.07,0.46,0c2.93,1.16,6.02,1.87,9.17,2.1c3.57,0.53,7.19,0.63,10.78,0.31
		c0.14-0.02,0.28,0.03,0.38,0.12c0.1,0.09,0.16,0.22,0.17,0.36l0.26,11c0.01,0.26-0.18,0.48-0.44,0.51
		C182.07,71.09,181.69,71.1,181.31,71.09z M162.21,59.54c1.46,2.22,3.43,4.05,5.75,5.33c3.46,2.08,9.17,5.49,14,5.2l-0.24-10
		c-3.5,0.29-7.03,0.18-10.51-0.32c-3.01-0.23-5.98-0.86-8.82-1.88L162.21,59.54z"/>
	<path class="st0" d="M184.32,25.98c-0.26,0.94-0.3,1.93-0.11,2.89c0.23,1,1.13,1.69,2.15,1.66c-2.2,0.32,1.85,2.81,1.72,2.64
		c0.89,1.18,0.31,3.52,0.26,4.9l-0.33,9.6c-0.23,7.97-6.88,14.24-14.84,14.01c-0.05,0-0.11,0-0.16-0.01l-1.69-0.07
		c-6.42-0.22-11.93-4.65-13.52-10.87c-0.35-1.33-0.49-2.71-0.44-4.09c0.17-5-1-12.53,1.57-16.92c0.88,0.32,1.86,0.04,2.45-0.69
		c0.56-0.74,0.85-1.64,0.83-2.56c1.98,1.02,4.41,0.36,5.6-1.52c0.93,1.1,2.35,1.67,3.79,1.51c1.41-0.18,2.79-0.58,4.07-1.2
		c0.93,1.34,2.46,2.15,4.1,2.15C181.39,27.39,182.97,26.89,184.32,25.98z"/>
	<path class="st1" d="M173.52,62.18h-0.51l-1.69-0.07c-8.24-0.26-14.71-7.16-14.44-15.4c0-0.03,0-0.05,0-0.08c0-1.27,0-2.71,0-4.24
		c-0.15-4.47-0.31-9.54,1.69-12.91c0.13-0.22,0.4-0.31,0.63-0.2c0.68,0.22,1.43,0,1.87-0.57c0.48-0.65,0.73-1.44,0.71-2.24
		c0-0.18,0.1-0.34,0.25-0.42c0.15-0.09,0.34-0.09,0.49,0c1.74,0.89,3.87,0.31,4.93-1.33c0.08-0.15,0.23-0.24,0.4-0.25
		c0.17-0.02,0.33,0.06,0.43,0.2c0.84,0.96,2.09,1.45,3.36,1.31c1.36-0.17,2.68-0.57,3.91-1.16c0.22-0.1,0.48-0.02,0.61,0.19
		c0.84,1.18,2.2,1.87,3.64,1.86c1.52-0.02,3-0.49,4.26-1.35c0.17-0.11,0.38-0.11,0.55,0c0.16,0.12,0.24,0.32,0.2,0.51
		c-0.26,0.88-0.3,1.8-0.14,2.7c0.18,0.74,0.83,1.28,1.6,1.3l0,0c0.27-0.04,0.52,0.14,0.56,0.41c0,0,0,0.01,0,0.01
		c0.04,0.27-0.15,0.52-0.42,0.57l0,0h-0.2c0.57,0.65,1.24,1.2,2,1.61c0.12,0.02,0.22,0.09,0.29,0.19c0.8,1.06,0.61,2.76,0.46,4.12
		c0,0.4-0.09,0.77-0.1,1.09l-0.33,9.6c-0.03,1.01-0.17,2.02-0.41,3C186.52,57.4,180.47,62.18,173.52,62.18z M159.21,30.32
		c-1.65,3.13-1.5,7.85-1.36,12c0,1.54,0.09,3,0,4.31c-0.05,1.33,0.09,2.66,0.42,3.95c1.54,5.98,6.83,10.24,13,10.49l1.7,0.07
		c6.64,0.26,12.55-4.19,14.14-10.64c0.22-0.92,0.35-1.86,0.38-2.81l0.33-9.6c0-0.34,0.06-0.74,0.11-1.17
		c0.12-1.14,0.28-2.54-0.2-3.31c-0.53-0.3-2.68-1.6-2.54-2.69l0,0c-0.72-0.38-1.26-1.04-1.49-1.82c-0.17-0.69-0.2-1.4-0.07-2.1
		c-1.18,0.65-2.51,0.99-3.86,1c-1.65,0.01-3.22-0.73-4.27-2c-1.21,0.57-2.52,0.94-3.85,1.08c-1.37,0.13-2.74-0.3-3.78-1.2
		c-1.28,1.5-3.34,2.07-5.21,1.46c-0.09,0.78-0.39,1.52-0.88,2.14C161.12,30.19,160.15,30.5,159.21,30.32z"/>
	<path class="st0" d="M172.84,37.64c0,0,4.76,10.49,2.65,10.68s-5.09-1.38-5.09-1.38"/>
	<path class="st1" d="M175.13,48.87c-1.75-0.14-3.45-0.64-5-1.45c-0.25-0.13-0.34-0.43-0.21-0.68s0.43-0.34,0.68-0.21
		c0,0,2.87,1.5,4.82,1.32c0.53-0.54-0.9-5.2-3.06-10c-0.12-0.24-0.02-0.54,0.23-0.65c0,0,0.01,0,0.01-0.01
		c0.25-0.11,0.55,0,0.67,0.25c1,2.11,4,9.16,3,10.88c-0.16,0.28-0.45,0.47-0.78,0.5L175.13,48.87z"/>
	<path class="st1" d="M175.47,54.95c-3.15-0.08-6.23-0.96-8.95-2.56c-0.24-0.14-0.33-0.44-0.19-0.69c0.14-0.24,0.44-0.33,0.68-0.19
		c7.39,4.07,12.16,1.78,12.2,1.76c0.25-0.12,0.55-0.03,0.67,0.22c0.13,0.24,0.03,0.54-0.2,0.66c-0.01,0-0.01,0.01-0.02,0.01
		C178.33,54.73,176.9,55,175.47,54.95z"/>
	<ellipse class="st1" cx="166.69" cy="36.05" rx="0.99" ry="2.24"/>
	<ellipse class="st1" cx="179.96" cy="36.05" rx="0.99" ry="2.24"/>
	<path class="st0" d="M194.02,160.58c-3.97,9.3-13.57,14.89-23.62,13.75c-2.2-0.25-4.35-0.82-6.39-1.69
		c-11.61-4.96-17.01-18.39-12.06-30c0.25-0.57,0.51-1.13,0.8-1.66c5.89-11.16,19.72-15.44,30.89-9.54
		c10.07,5.32,14.69,17.23,10.84,27.94l0,0C194.34,159.79,194.21,160.19,194.02,160.58z"/>
	<path class="st1" d="M173.02,174.98c-0.9,0-1.79-0.05-2.68-0.15c-12.83-1.47-22.03-13.06-20.56-25.89
		c0.26-2.23,0.83-4.42,1.71-6.49c0.29-0.67,0.55-1.21,0.82-1.71c4.07-7.76,12.14-12.59,20.9-12.5
		c12.91,0.12,23.27,10.68,23.15,23.59c-0.02,2.63-0.49,5.24-1.39,7.72c-0.14,0.41-0.3,0.82-0.47,1.23l0,0
		c-3.68,8.59-12.11,14.18-21.46,14.2L173.02,174.98z M173.02,129.24c-8.33-0.01-15.97,4.62-19.83,12c-0.29,0.53-0.55,1.07-0.78,1.63
		c-4.63,11.45,0.9,24.49,12.35,29.13c11.15,4.51,23.88-0.61,28.8-11.59l0,0c0.16-0.38,0.31-0.76,0.44-1.15
		c1.93-5.3,1.78-11.14-0.42-16.33c-2.27-5.33-6.5-9.59-11.83-11.87c-2.71-1.16-5.62-1.77-8.57-1.79L173.02,129.24z"/>
	<polygon class="st1" points="176.81,142.63 165.96,145.12 164.97,156.21 175.21,160.58 182.53,152.18 	"/>
	<path class="st1" d="M175.21,161.08c-0.06,0.01-0.13,0.01-0.19,0l-10.25-4.37c-0.2-0.09-0.32-0.29-0.3-0.51l1-11.09
		c0.02-0.21,0.18-0.39,0.39-0.44l10.85-2.49c0.21-0.05,0.43,0.04,0.54,0.23l5.72,9.55c0.11,0.19,0.09,0.42-0.05,0.59l-7.33,8.32
		C175.5,161,175.36,161.07,175.21,161.08z M165.5,155.87l9.58,4.08l6.84-7.84l-5.35-8.93l-10.15,2.32L165.5,155.87z"/>
	<path class="st1" d="M189.34,135.64l-10.58,2.42l-5.55-9.32c6.09,0.05,11.91,2.53,16.16,6.9L189.34,135.64z"/>
	<path class="st1" d="M178.76,138.56c-0.18,0-0.34-0.09-0.43-0.25l-5.58-9.32c-0.09-0.15-0.09-0.35,0-0.5
		c0.09-0.16,0.25-0.25,0.43-0.25l0,0c6.22,0.04,12.16,2.56,16.51,7c0.12,0.13,0.17,0.32,0.12,0.49c-0.05,0.17-0.19,0.3-0.37,0.34
		l-10.58,2.42L178.76,138.56z M174.08,129.26l4.92,8.23l9.34-2.14c-1.92-1.83-4.15-3.29-6.59-4.32
		C179.31,129.99,176.72,129.39,174.08,129.26L174.08,129.26z"/>
	<path class="st1" d="M158.39,169.21c-4.55-3.76-7.46-9.14-8.12-15l0.69-0.61l9.61,5.62L158.39,169.21z"/>
	<path class="st1" d="M158.39,169.71c-0.12,0-0.23-0.04-0.32-0.12c-4.65-3.83-7.62-9.32-8.29-15.3c-0.02-0.16,0.04-0.32,0.16-0.43
		l0.69-0.62c0.17-0.14,0.4-0.16,0.59-0.05l9.61,5.62c0.19,0.11,0.28,0.33,0.23,0.54l-2.19,10c-0.04,0.17-0.16,0.3-0.32,0.36
		C158.49,169.72,158.44,169.72,158.39,169.71z M150.8,154.43c0.66,5.35,3.25,10.28,7.28,13.86l1.93-8.8l-9-5.26L150.8,154.43z"/>
	<path class="st1" d="M186.82,169.81c-4.69,3.57-10.57,5.19-16.42,4.52l5.67-8.48l10.71,3L186.82,169.81z"/>
	<path class="st1" d="M173.02,174.98c-0.9,0-1.79-0.05-2.68-0.15c-0.27-0.03-0.47-0.27-0.44-0.55c0.01-0.08,0.04-0.16,0.08-0.23
		l5.68-8.48c0.12-0.18,0.34-0.26,0.55-0.2l10.71,3c0.21,0.06,0.35,0.24,0.36,0.46v0.92c0.01,0.16-0.07,0.32-0.2,0.42
		C183.04,173.27,178.1,174.96,173.02,174.98z M171.28,173.87c5.36,0.41,10.69-1.13,15-4.34v-0.3l-10-2.84L171.28,173.87z"/>
	<path class="st1" d="M162.8,139.99l-10.05,1c2.6-4.97,6.94-8.81,12.2-10.78L162.8,139.99z"/>
	<path class="st1" d="M152.75,141.48c-0.16,0-0.32-0.08-0.41-0.22c-0.1-0.16-0.1-0.35,0-0.51c2.66-5.07,7.1-8.99,12.46-11
		c0.17-0.06,0.36-0.03,0.5,0.09c0.14,0.12,0.2,0.31,0.17,0.49l-2.15,9.78c-0.05,0.21-0.22,0.37-0.44,0.4l-10,1L152.75,141.48z
		 M164.26,131.01c-4.47,1.89-8.19,5.18-10.62,9.38l8.75-0.86L164.26,131.01z M162.8,140.01L162.8,140.01z"/>
	<path class="st1" d="M194.48,159.38l-6.27-8l5.83-8.71C196.3,147.98,196.45,153.95,194.48,159.38z"/>
	<path class="st1" d="M194.48,159.87c-0.15,0-0.3-0.07-0.39-0.19l-6.27-8c-0.13-0.18-0.13-0.41,0-0.59l5.83-8.71
		c0.1-0.15,0.28-0.24,0.47-0.22c0.18,0.02,0.34,0.14,0.41,0.31c2.29,5.41,2.45,11.48,0.45,17c-0.06,0.17-0.21,0.3-0.39,0.33
		L194.48,159.87z M188.83,151.37l5.48,7c1.51-4.77,1.38-9.9-0.39-14.58L188.83,151.37z"/>
	<path class="st0" d="M188.31,102.03c0,0-4.5-2-4.5-4.5v-6.88h9v6.88C192.82,100.02,188.31,102.03,188.31,102.03z"/>
	<path class="st1" d="M188.31,102.53c-0.07,0.01-0.13,0.01-0.2,0c-0.2-0.09-4.8-2.18-4.8-5v-6.88c0-0.28,0.22-0.5,0.5-0.5h9
		c0.27,0.01,0.49,0.23,0.5,0.5v6.88c0,2.78-4.61,4.87-4.8,5C188.44,102.54,188.37,102.54,188.31,102.53z M184.31,91.15v6.38
		c0,1.67,2.72,3.33,4,4c1.29-0.62,4-2.28,4-4v-6.38H184.31z"/>
	<path class="st1" d="M132.64,79.38c0,0-51,81.24-42.82,94.14s53.17-11.43,53.17-11.43l-5.18-11.76l-20.24-0.56
		c2.74-8.22,17-29.62,17-29.62L132.64,79.38z"/>
	<path class="st1" d="M99.11,177.79c-4.38,0-7.89-1.13-9.71-4c-8.29-13,40.72-91.35,42.81-94.68c0.11-0.19,0.34-0.28,0.55-0.22
		c0.21,0.06,0.36,0.24,0.37,0.46l2,40.78c0.01,0.11-0.02,0.21-0.08,0.3c-0.14,0.21-13.56,20.37-16.73,28.86l19.55,0.54
		c0.2,0.01,0.37,0.12,0.45,0.3l5.13,11.74c0.11,0.24,0.01,0.52-0.22,0.64C141.78,163.32,114.82,177.79,99.11,177.79z M132.21,81
		c-3,4.91-13.76,22.41-23.62,40.85c-19.28,36-20.62,47.84-18.35,51.41c4.06,6.38,18.05,2.94,29.07-1.08
		c7.87-2.96,15.55-6.4,23-10.31l-4.83-11l-19.93-0.55c-0.15-0.01-0.3-0.09-0.39-0.21c-0.09-0.13-0.12-0.3-0.07-0.45
		c2.65-7.93,15.65-27.59,17-29.6L132.21,81z"/>
	<path class="st0" d="M145.73,162.09c0,0,4.81-0.86,7.39-4.09s2.59-8.95,4.49-10s7.16-0.14,6.37-2.64s-5.19-1.9-5.19-1.9
		s7.59-1,5.19-3.08s-7.39-1.18-7.39-1.18s9.38-1.32,5.72-3.37s-7.68,1-7.68,1s7.05-3.15,4.43-4.07s-8.49,1.58-10.1,4.07
		s-1.32,6.6-7.34,10.85L145.73,162.09z"/>
	<path class="st1" d="M145.73,162.59c-0.22,0-0.42-0.14-0.48-0.36l-4.11-14.36c-0.05-0.2,0.02-0.42,0.19-0.55
		c2.89-1.92,5.01-4.79,6-8.12c0.29-0.9,0.68-1.77,1.16-2.59c1.67-2.58,7.69-5.32,10.69-4.27c0.73,0.26,0.9,0.69,0.91,1
		c-0.05,0.51-0.32,0.98-0.74,1.29c1.1-0.03,2.19,0.23,3.15,0.77c0.83,0.47,1.2,1,1.09,1.57c-0.14,0.73-1.16,1.3-2.41,1.73
		c1.12,0.16,2.18,0.61,3.07,1.31c0.49,0.32,0.73,0.91,0.6,1.48c-0.23,0.79-1.38,1.35-2.64,1.75c1.02,0.25,1.85,1.01,2.19,2
		c0.18,0.47,0.14,1-0.13,1.43c-0.59,0.9-2.11,1.07-3.73,1.25c-0.94,0.04-1.86,0.22-2.74,0.55c-0.76,0.41-1.23,2.07-1.74,3.82
		c-0.47,2.15-1.35,4.19-2.6,6c-2.67,3.34-7.49,4.24-7.69,4.28L145.73,162.59z M142.21,147.93l3.88,13.57
		c1.22-0.3,4.66-1.33,6.65-3.81c1.16-1.73,1.98-3.66,2.42-5.69c0.59-2,1.09-3.81,2.23-4.42c0.99-0.4,2.04-0.62,3.1-0.67
		c1.19-0.13,2.67-0.29,3-0.8c0-0.05,0.13-0.2,0-0.57c-0.65-2.07-4.6-1.57-4.65-1.57c-0.27,0.04-0.52-0.16-0.56-0.43
		c-0.03-0.27,0.16-0.52,0.43-0.56c2.37-0.32,5-1.1,5.22-1.76c0-0.14-0.19-0.36-0.29-0.44c-1.85-1.59-5.52-1.26-6.64-1.11h-0.35
		c-0.27,0.04-0.52-0.15-0.57-0.42c-0.04-0.27,0.14-0.52,0.41-0.57l0.42-0.06c2.95-0.46,5.63-1.32,5.73-1.87c0,0-0.08-0.23-0.59-0.51
		c-1.42-0.74-3.08-0.85-4.58-0.29c-1,0.56-2,1-2.64,1.34c-0.24,0.1-0.51,0.01-0.64-0.21c-0.13-0.22-0.07-0.5,0.13-0.65
		c0.84-0.61,1.77-1.09,2.75-1.42c1.2-0.7,2-1.35,2.06-1.66l0,0c-0.08-0.05-0.16-0.09-0.25-0.12c-2.29-0.8-8,1.51-9.51,3.87
		c-0.44,0.76-0.8,1.56-1.06,2.39C147.3,142.92,145.14,145.9,142.21,147.93z"/>
	<polygon class="st0" points="141.62,147.73 135.46,149.2 140.25,165.72 145.73,162.09 	"/>
	<path class="st1" d="M140.21,166.22h-0.17c-0.15-0.05-0.27-0.18-0.31-0.33l-4.79-16.52c-0.06-0.12-0.06-0.27,0-0.39
		c0.07-0.12,0.18-0.21,0.32-0.24l6.16-1.46c0.26-0.06,0.52,0.09,0.59,0.34l4.2,14.34c0.06,0.21-0.02,0.43-0.2,0.55l-5.48,3.63
		C140.43,166.2,140.32,166.23,140.21,166.22z M136.05,149.56l4.46,15.37l4.6-3.05l-3.88-13.55L136.05,149.56z"/>
	<path class="st1" d="M208.43,79.38c0,0,51,81.24,42.81,94.14s-53.17-11.43-53.17-11.43l5.14-11.76l20.25-0.56
		c-2.74-8.22-17-29.62-17-29.62L208.43,79.38z"/>
	<path class="st1" d="M241.95,177.79c-15.7,0-42.67-14.47-44.12-15.26c-0.23-0.12-0.32-0.4-0.22-0.64l5.18-11.76
		c0.08-0.18,0.26-0.29,0.45-0.3l19.55-0.54c-3.16-8.49-16.59-28.65-16.73-28.86c-0.06-0.09-0.08-0.19-0.08-0.3l1.95-40.78
		c0.01-0.22,0.16-0.4,0.37-0.46c0.21-0.06,0.44,0.03,0.55,0.22c2.09,3.33,51.11,81.66,42.82,94.68
		C249.84,176.66,246.33,177.79,241.95,177.79z M198.71,161.87c7.46,3.91,15.16,7.36,23.05,10.31c11,4,25,7.46,29.06,1.08
		c2.27-3.57,0.93-15.39-18.34-51.41c-9.87-18.44-20.59-35.94-23.63-40.85l-1.86,39c1.33,2,14.34,21.67,17,29.6
		c0.05,0.15,0.03,0.32-0.06,0.45c-0.1,0.12-0.24,0.2-0.4,0.21l-19.93,0.55L198.71,161.87z"/>
	<path class="st0" d="M195.33,162.09c0,0-4.8-0.86-7.39-4.09s-2.58-8.95-4.49-10s-7.15-0.14-6.36-2.64s5.18-1.9,5.18-1.9
		s-7.59-1-5.18-3.08s7.39-1.18,7.39-1.18s-9.39-1.32-5.72-3.37s7.67,1,7.67,1s-7.05-3.15-4.43-4.07s8.49,1.58,10.11,4.07
		s1.32,6.6,7.33,10.85L195.33,162.09z"/>
	<path class="st1" d="M195.33,162.59h-0.12c-0.2,0-5-0.94-7.69-4.28c-1.24-1.81-2.13-3.85-2.6-6c-0.5-1.75-1-3.41-1.74-3.82
		c-0.88-0.33-1.8-0.51-2.74-0.55c-1.61-0.18-3.14-0.35-3.73-1.25c-0.26-0.43-0.31-0.96-0.13-1.43c0.34-0.99,1.17-1.75,2.19-2
		c-1.26-0.4-2.41-1-2.64-1.75c-0.13-0.57,0.11-1.16,0.6-1.48c0.89-0.7,1.96-1.15,3.08-1.31c-1.26-0.43-2.28-1-2.41-1.73
		c-0.11-0.57,0.25-1.1,1.08-1.57c0.96-0.53,2.05-0.8,3.15-0.77c-0.41-0.31-0.68-0.78-0.74-1.29c0-0.32,0.18-0.75,0.92-1
		c3-1.05,9,1.69,10.69,4.27c0.48,0.82,0.87,1.69,1.15,2.59c1.01,3.33,3.15,6.2,6.05,8.12c0.17,0.13,0.25,0.34,0.19,0.55l-4.11,14.36
		C195.71,162.45,195.53,162.58,195.33,162.59z M181.21,143.92c-1.23,0-3.17,0.23-3.61,1.61c-0.11,0.38,0,0.53,0,0.58
		c0.33,0.51,1.81,0.67,3,0.8c1.07,0.05,2.12,0.27,3.11,0.67c1.13,0.61,1.64,2.38,2.22,4.42c0.44,2.03,1.26,3.96,2.42,5.69
		c2,2.48,5.43,3.51,6.65,3.81l3.88-13.57c-2.94-2.02-5.1-4.98-6.12-8.39c-0.27-0.83-0.62-1.63-1.05-2.39
		c-1.53-2.36-7.22-4.67-9.52-3.87c-0.1,0.03-0.18,0.08-0.26,0.14c0,0.29,0.86,0.93,2.06,1.64c0.99,0.33,1.93,0.81,2.77,1.42
		c0.24,0.14,0.31,0.45,0.16,0.69c-0.14,0.23-0.44,0.31-0.67,0.17c-0.66-0.3-1.68-0.78-2.64-1.34c-1.5-0.56-3.17-0.45-4.59,0.29
		c-0.51,0.28-0.6,0.48-0.59,0.51c0.1,0.55,2.78,1.41,5.73,1.87l0.42,0.06c0.27,0.05,0.45,0.3,0.41,0.57
		c-0.05,0.27-0.29,0.45-0.56,0.42h-0.35c-1.12-0.15-4.8-0.48-6.65,1.11c-0.1,0.08-0.33,0.3-0.29,0.44c0.2,0.66,2.86,1.44,5.22,1.76
		c0.28,0.04,0.47,0.29,0.43,0.57s-0.29,0.47-0.57,0.43C182.23,144.03,181.77,143.92,181.21,143.92z"/>
	<polygon class="st0" points="199.44,147.73 205.6,149.2 200.81,165.72 195.33,162.09 	"/>
	<path class="st1" d="M200.81,166.22c-0.1,0-0.2-0.02-0.28-0.08l-5.47-3.63c-0.19-0.11-0.27-0.34-0.21-0.55l4.11-14.37
		c0.07-0.26,0.34-0.41,0.6-0.34l6.16,1.46c0.13,0.03,0.24,0.12,0.31,0.24c0.07,0.12,0.09,0.26,0.05,0.39l-4.79,16.53
		c-0.04,0.15-0.16,0.28-0.31,0.33C200.92,166.22,200.86,166.22,200.81,166.22z M195.91,161.87l4.61,3.05l4.45-15.37l-5.18-1.23
		L195.91,161.87z"/>
	<path class="st1" d="M132.93,86.05c-0.28,0-0.5-0.23-0.5-0.5c0-0.15,0.07-0.29,0.19-0.39c16-13,27.18-11.81,27.64-11.76
		c0.27,0.04,0.47,0.28,0.44,0.56c-0.03,0.27-0.28,0.47-0.55,0.44c0,0,0,0-0.01,0c-0.11,0-11.27-1.18-26.89,11.54
		C133.16,86.01,133.04,86.05,132.93,86.05z"/>
	<path class="st1" d="M208.21,83.52c-0.1,0-0.2-0.03-0.28-0.09c-9.3-6.56-25.08-6.56-25.29-6.56l0,0c-0.27,0-0.49-0.22-0.5-0.49
		c0-0.28,0.22-0.5,0.5-0.51c0.67,0,16.31,0,25.91,6.77c0.23,0.16,0.28,0.47,0.12,0.7c0,0,0,0,0,0
		C208.56,83.48,208.38,83.55,208.21,83.52z"/>
	<path class="st0" d="M136.72,228.17L136.72,228.17c-0.27-0.03-0.48-0.27-0.46-0.54l3.88-47.82c0.02-0.28,0.26-0.48,0.54-0.46
		c0,0,0,0,0,0c0.27,0.02,0.47,0.26,0.45,0.53c0,0,0,0.01,0,0.01l-3.92,47.82C137.19,227.97,136.97,228.16,136.72,228.17z"/>
	<path class="st0" d="M172.98,230.32L172.98,230.32c-0.27-0.03-0.48-0.27-0.46-0.54l1.88-21.52c0.02-0.28,0.27-0.48,0.54-0.46
		s0.48,0.27,0.46,0.54l-1.92,21.52C173.45,230.13,173.23,230.32,172.98,230.32z"/>
</g>
</svg>
