<?xml version="1.0" encoding="utf-8"?>
<!-- Generator: Adobe Illustrator 25.1.0, SVG Export Plug-In . SVG Version: 6.00 Build 0)  -->
<svg version="1.1" id="Warstwa_1" xmlns="http://www.w3.org/2000/svg" xmlns:xlink="http://www.w3.org/1999/xlink" x="0px" y="0px"
	 viewBox="0 0 129 129" style="enable-background:new 0 0 129 129;" xml:space="preserve">
<style type="text/css">
	.st0{fill:#FFFFFF;}
	.st1{fill:#231F20;}
	.st2{fill:#38D39F;}
	.st3{fill:#D1D3D4;}
	.st4{fill:#68E1FD;}
</style>
<g id="_248_checklist_flatline">
	<path class="st0" d="M29.47,108.28c0,0,1.96-16.03,3.09-19.53c1.13-3.5,0.81-37.04,0.85-37.38c0.04-0.34-18.14,8.72-19.73,11.42
		s2.55,20.28,1.39,22.83c-1.16,2.54-4.94,13.68-4.94,13.68L29.47,108.28z"/>
	<path class="st1" d="M29.47,108.54c-0.04,0-0.07-0.01-0.11-0.03l-19.35-8.99c-0.12-0.05-0.18-0.19-0.14-0.31
		c0.15-0.46,3.81-11.18,4.96-13.71c0.52-1.12-0.12-5.75-0.74-10.22c-0.75-5.46-1.55-11.11-0.63-12.62
		c0.91-1.52,6.14-4.54,10.41-6.86c1.4-0.76,9.12-4.83,9.62-4.68c0.12,0.04,0.19,0.16,0.18,0.28c0,0.08,0,0.98,0,2.23
		c0.03,7.97,0.1,32.2-0.87,35.21c-1.1,3.43-3.05,19.31-3.09,19.47c-0.02,0.13-0.13,0.22-0.26,0.23H29.47z M10.45,99.15l18.81,8.77
		c0.3-2.42,2.01-15.98,3.05-19.22c0.62-1.94,0.91-13.73,0.84-35.06c0-1.03,0-1.61,0-1.92c-2.39,0.95-17.84,8.8-19.25,11.21
		c-0.8,1.36,0,7.17,0.71,12.29c0.68,4.97,1.27,9.28,0.7,10.51C14.25,88.02,11,97.58,10.45,99.15z"/>
	<polygon class="st1" points="29.18,122.35 32.29,101.62 11.15,91.16 0.46,121.3 	"/>
	<path class="st1" d="M29.18,122.61L29.18,122.61l-28.71-1.03c-0.08,0-0.16-0.04-0.21-0.11c-0.05-0.07-0.06-0.15-0.03-0.23
		L10.9,91.07c0.05-0.14,0.21-0.2,0.35-0.15c0,0,0.01,0,0.01,0.01l21.14,10.47c0.1,0.05,0.16,0.16,0.14,0.27l-3.09,20.73
		C29.43,122.52,29.32,122.62,29.18,122.61z M0.82,121.06l28.14,1.03l3.05-20.32L11.3,91.52L0.82,121.06z"/>
	<path class="st0" d="M32.71,11.31h64.64c1.82,0,3.3,1.48,3.3,3.3v85.58c0,1.82-1.48,3.3-3.3,3.3H32.71c-1.82,0-3.3-1.48-3.3-3.3
		V14.61C29.41,12.79,30.89,11.31,32.71,11.31z"/>
	<path class="st1" d="M97.35,103.75H32.7c-1.96-0.01-3.55-1.6-3.55-3.56V14.6c0-1.96,1.59-3.55,3.55-3.56h64.64
		c1.96,0,3.55,1.59,3.56,3.56v85.59C100.9,102.16,99.31,103.75,97.35,103.75z M32.7,11.57c-1.68,0-3.04,1.36-3.04,3.04v85.59
		c0,1.68,1.36,3.04,3.04,3.04h64.64c1.68,0,3.04-1.36,3.04-3.04V14.61c0-1.68-1.36-3.04-3.04-3.04L32.7,11.57z"/>
	<rect x="33.77" y="16.96" class="st0" width="62.51" height="80.88"/>
	<path class="st1" d="M96.28,98.11H33.77c-0.14,0-0.26-0.12-0.26-0.26V16.96c0-0.14,0.12-0.26,0.26-0.26h62.51
		c0.14,0,0.26,0.12,0.26,0.26v80.88C96.54,97.99,96.42,98.11,96.28,98.11z M34.03,97.59h61.99V17.22H34.03L34.03,97.59z"/>
	<path class="st2" d="M81.36,8.06h-9.01C71.57,4,67.64,1.35,63.59,2.14c-3,0.58-5.34,2.92-5.92,5.92h-8.97
		c-1.19,0-2.16,0.96-2.16,2.16v7.51c0,1.19,0.97,2.16,2.16,2.16h32.67c1.19,0,2.16-0.96,2.16-2.16v-7.52
		C83.52,9.02,82.55,8.06,81.36,8.06z M65.03,9.04c-1.06,0-1.92-0.85-1.92-1.91c0-1.06,0.85-1.92,1.91-1.92
		c1.06,0,1.92,0.85,1.92,1.91c0,0,0,0,0,0.01C66.94,8.18,66.09,9.03,65.03,9.04z"/>
	<path class="st3" d="M57.86,42.84h-15.1c-0.13,0-0.24-0.11-0.24-0.24v0V26.47c0-0.13,0.11-0.24,0.24-0.24l0,0h15.1
		c0.13,0,0.23,0.11,0.24,0.24v16.13C58.09,42.74,57.99,42.84,57.86,42.84z M43,42.36h14.62V26.71H43V42.36z"/>
	<path class="st2" d="M61.39,30.42c-0.08,0.13-0.17,0.26-0.27,0.38l-9.76,9.75c-0.16,0.25-0.5,0.33-0.75,0.17
		c-0.07-0.04-0.13-0.1-0.17-0.17l-5.49-5.67c-0.24-0.16-0.31-0.48-0.15-0.71c0.05-0.07,0.11-0.13,0.18-0.17l1.38-1.24
		c0.17-0.23,0.49-0.28,0.72-0.11c0.04,0.03,0.08,0.07,0.11,0.11c1.08,1.1,2.16,2.21,3.24,3.31c0.16,0.26,0.51,0.33,0.76,0.17
		c0.07-0.04,0.12-0.1,0.17-0.17l7.58-7.52c0.17-0.25,0.51-0.32,0.76-0.15c0.06,0.04,0.11,0.09,0.15,0.15
		c0.43,0.43,0.86,0.86,1.28,1.29c0.1,0.11,0.18,0.24,0.26,0.36L61.39,30.42z"/>
	<path class="st3" d="M88.43,32.24H66.75c-0.13-0.02-0.22-0.14-0.2-0.28c0.02-0.11,0.1-0.19,0.2-0.2h21.68
		c0.13,0.02,0.22,0.14,0.2,0.28C88.62,32.14,88.54,32.23,88.43,32.24L88.43,32.24z"/>
	<path class="st3" d="M82.67,37.31H66.75c-0.13,0-0.24-0.11-0.24-0.24c0-0.13,0.11-0.24,0.24-0.24h15.92c0.13,0,0.24,0.11,0.24,0.24
		S82.8,37.31,82.67,37.31C82.67,37.31,82.67,37.31,82.67,37.31z"/>
	<path class="st3" d="M57.86,64.87h-15.1c-0.13,0-0.23-0.1-0.24-0.23c0,0,0-0.01,0-0.01V48.5c0-0.13,0.11-0.24,0.24-0.24l0,0h15.1
		c0.13,0,0.23,0.11,0.24,0.24v16.13C58.09,64.76,57.99,64.87,57.86,64.87z M43,64.4h14.62V48.74H43V64.4z"/>
	<path class="st2" d="M61.39,52.45c-0.08,0.13-0.17,0.26-0.27,0.38l-9.76,9.74c-0.16,0.25-0.5,0.33-0.75,0.17
		c-0.07-0.04-0.13-0.1-0.17-0.17l-5.49-5.67c-0.24-0.16-0.31-0.48-0.15-0.71c0.05-0.07,0.11-0.13,0.18-0.17l1.38-1.24
		c0.17-0.23,0.49-0.28,0.72-0.11c0.04,0.03,0.08,0.07,0.11,0.11c1.08,1.1,2.16,2.21,3.24,3.31c0.16,0.26,0.51,0.33,0.76,0.17
		c0.07-0.04,0.12-0.1,0.17-0.17l7.58-7.51c0.17-0.25,0.51-0.32,0.76-0.15c0.06,0.04,0.11,0.09,0.15,0.15
		c0.43,0.43,0.86,0.86,1.28,1.29c0.1,0.11,0.18,0.24,0.26,0.36L61.39,52.45z"/>
	<path class="st3" d="M88.43,54.27H66.75c-0.13-0.02-0.22-0.14-0.2-0.28c0.02-0.11,0.1-0.19,0.2-0.2h21.68
		c0.13,0.02,0.22,0.14,0.2,0.28C88.62,54.18,88.54,54.26,88.43,54.27L88.43,54.27z"/>
	<path class="st3" d="M82.67,59.34H66.75c-0.13,0-0.24-0.11-0.24-0.24c0-0.13,0.11-0.24,0.24-0.24h15.92c0.13,0,0.24,0.11,0.24,0.24
		C82.9,59.24,82.8,59.34,82.67,59.34z"/>
	<path class="st3" d="M57.86,86.81h-15.1c-0.13,0-0.24-0.11-0.24-0.24v0V70.45c0-0.13,0.11-0.24,0.24-0.24h0h15.1
		c0.13,0,0.23,0.11,0.24,0.24v16.13C58.09,86.71,57.98,86.81,57.86,86.81z M43,86.34h14.62V70.68H43V86.34z"/>
	<path class="st2" d="M61.39,74.38c-0.08,0.13-0.17,0.26-0.27,0.38l-9.76,9.74c-0.34,0.34-0.59,0.34-0.92,0
		c-1.83-1.89-3.66-3.78-5.49-5.67c-0.24-0.16-0.31-0.48-0.15-0.71c0.05-0.07,0.11-0.13,0.18-0.17l1.38-1.24
		c0.17-0.23,0.49-0.28,0.72-0.11c0.04,0.03,0.08,0.07,0.11,0.11l3.24,3.31c0.16,0.26,0.51,0.33,0.76,0.17
		c0.07-0.04,0.12-0.1,0.17-0.17l7.58-7.51c0.17-0.25,0.51-0.32,0.76-0.15c0.06,0.04,0.11,0.09,0.15,0.15
		c0.43,0.43,0.86,0.86,1.28,1.29c0.1,0.11,0.18,0.24,0.26,0.36L61.39,74.38z"/>
	<path class="st3" d="M88.43,76.21H66.75c-0.13,0-0.23-0.11-0.24-0.24c0-0.13,0.11-0.24,0.24-0.24h0h21.68
		c0.13,0,0.24,0.11,0.24,0.24v0C88.67,76.1,88.56,76.21,88.43,76.21z"/>
	<path class="st3" d="M82.67,81.28H66.75c-0.13,0-0.24-0.11-0.24-0.24v0c0-0.13,0.11-0.23,0.24-0.24h15.92
		c0.13,0,0.23,0.11,0.24,0.24C82.91,81.17,82.8,81.28,82.67,81.28L82.67,81.28z"/>
	<path class="st0" d="M19.53,67.3c3.8-4.12,8.33-7.56,13.06-10.59c1.17-0.75,2.43-1.51,3.83-1.55c1.39-0.04,2.91,0.95,2.95,2.34
		c0.03,1.09-0.79,2-1.55,2.77L27.69,70.45c2.5,4.74,1.94,10.53-1.44,14.7"/>
	<path class="st1" d="M26.25,85.4c-0.06,0-0.12-0.02-0.16-0.06c-0.11-0.09-0.12-0.26-0.03-0.37c3.29-4.09,3.85-9.75,1.41-14.41
		c-0.05-0.1-0.03-0.22,0.05-0.3l10.1-10.15c0.77-0.77,1.52-1.61,1.49-2.58c-0.04-1.26-1.45-2.12-2.69-2.06
		c-1.23,0.06-2.49,0.72-3.69,1.5c-5.5,3.52-9.64,6.87-13.01,10.55c-0.1,0.11-0.26,0.11-0.37,0.02c-0.11-0.1-0.11-0.26-0.02-0.37
		c3.4-3.71,7.57-7.09,13.11-10.64c1.27-0.81,2.53-1.55,3.96-1.55s3.17,1.03,3.21,2.58c0.04,1.18-0.79,2.11-1.64,2.96l-9.97,9.95
		c2.49,4.81,1.88,10.63-1.55,14.82C26.42,85.36,26.34,85.4,26.25,85.4z"/>
	<path class="st0" d="M108,97.81l-12.48,8.94L72.18,77.9c0.04-1.55-1.03-8.34,1.27-7.22c2.3,1.12,10.9,10.92,12.32,11.24
		c1.42,0.32,4.7-1.29,4.21-4.46c-0.49-3.17-1.09-8.51-4.2-8.73c-4.71-0.34-9.09,2.79-10.95,2.06s-3.4-3.2-0.36-5.02
		c3.48-2.06,10.96-3.4,16.95-2.75s10.54,12.72,10.97,21.55C103.97,90.19,107.02,95.31,108,97.81z"/>
	<path class="st1" d="M95.52,107.01c-0.08,0-0.15-0.04-0.2-0.1L71.98,78.07c-0.04-0.05-0.06-0.11-0.06-0.17
		c0-0.31-0.03-0.85-0.08-1.47c-0.2-2.78-0.3-5.33,0.64-5.98c0.33-0.2,0.74-0.2,1.07,0c1.23,0.58,4.04,3.42,6.77,6.16
		c2.29,2.3,4.88,4.91,5.5,5.06s1.9-0.21,2.82-1.06c0.87-0.78,1.27-1.95,1.08-3.09l-0.1-0.63c-0.46-3.06-1.17-7.68-3.86-7.88
		c-2.52-0.18-4.99,0.67-6.96,1.35c-1.75,0.6-3.12,1.07-4.06,0.72c-1.17-0.41-2.03-1.42-2.24-2.65c-0.07-0.75,0.2-1.85,1.84-2.84
		c3.61-2.17,11.29-3.42,17.11-2.79c6.32,0.69,10.77,13.13,11.2,21.77c1.08,3.83,2.85,7.46,4.15,10.11c0.6,1.23,1.12,2.29,1.43,3.09
		c0.04,0.11,0.01,0.23-0.09,0.3L95.67,107C95.62,107.02,95.57,107.02,95.52,107.01z M72.44,77.82l23.12,28.59l12.12-8.68
		c-0.31-0.75-0.79-1.74-1.35-2.86c-1.31-2.68-3.09-6.34-4.19-10.22c0-0.02,0-0.04,0-0.06c-0.4-8.25-4.77-20.66-10.74-21.31
		c-5.73-0.62-13.27,0.59-16.79,2.71c-1.12,0.68-1.67,1.48-1.59,2.35c0.18,1.03,0.91,1.88,1.91,2.22c0.76,0.28,2.12-0.18,3.71-0.73
		c2.03-0.69,4.54-1.55,7.17-1.37c3.09,0.23,3.85,5.09,4.34,8.32l0.1,0.63c0.22,1.32-0.24,2.67-1.24,3.57
		c-0.95,0.89-2.36,1.4-3.28,1.19c-0.73-0.17-2.66-2.06-5.75-5.19c-2.58-2.58-5.48-5.52-6.62-6.06c-0.36-0.17-0.52-0.06-0.57-0.03
		c-0.78,0.52-0.55,3.77-0.42,5.51C72.4,76.99,72.44,77.48,72.44,77.82L72.44,77.82z"/>
	<polygon class="st0" points="64.4,72.52 64.93,76.73 60.48,75.9 58.11,75.46 60.3,74.44 	"/>
	<path class="st1" d="M64.93,76.99h-0.05l-6.82-1.27c-0.11-0.02-0.19-0.11-0.21-0.22c-0.02-0.11,0.04-0.22,0.14-0.27l6.29-2.93
		c0.07-0.04,0.16-0.04,0.24,0c0.07,0.04,0.12,0.11,0.13,0.2l0.52,4.21C65.18,76.85,65.07,76.98,64.93,76.99c-0.01,0-0.02,0-0.02,0
		H64.93z M58.95,75.35l5.67,1.06l-0.44-3.51L58.95,75.35z"/>
	<path class="st2" d="M97.62,72.59l-32.7,4.12c-0.34-0.64-0.57-1.34-0.68-2.06c-0.07-0.72-0.02-1.45,0.15-2.16l32.69-4.12
		L97.62,72.59z"/>
	<path class="st1" d="M64.93,76.99c-0.09,0-0.18-0.05-0.22-0.13c-0.36-0.67-0.6-1.4-0.71-2.15c-0.08-0.75-0.03-1.52,0.15-2.25
		c0.03-0.1,0.11-0.18,0.22-0.19l32.7-4.15c0.14-0.01,0.27,0.09,0.29,0.23l0.52,4.21c0.01,0.07-0.01,0.14-0.05,0.19
		c-0.04,0.05-0.1,0.09-0.17,0.09l-32.69,4.15H64.93z M64.61,72.76c-0.13,0.62-0.17,1.26-0.1,1.89c0.09,0.63,0.29,1.24,0.57,1.8
		l32.26-4.09l-0.47-3.7L64.61,72.76z"/>
	<path class="st0" d="M102.86,71.93l-5.23,0.66l0,0l-0.53-4.21l0,0l5.23-0.66c0.64-0.08,1.23,0.37,1.31,1.02l0.24,1.88
		C103.96,71.26,103.5,71.85,102.86,71.93z"/>
	<path class="st1" d="M97.62,72.85c-0.13,0-0.24-0.1-0.26-0.23l-0.52-4.21c-0.01-0.07,0.01-0.14,0.05-0.19
		c0.04-0.05,0.1-0.09,0.17-0.1l5.23-0.66c0.79-0.1,1.5,0.46,1.6,1.24l0.24,1.88c0.1,0.79-0.46,1.5-1.24,1.6l-5.23,0.66L97.62,72.85z
		 M97.37,68.6l0.47,3.7l4.98-0.63c0.5-0.07,0.86-0.53,0.79-1.03l-0.24-1.88c-0.06-0.5-0.52-0.86-1.03-0.79c0,0,0,0,0,0L97.37,68.6z"
		/>
	
		<rect x="98.47" y="68.18" transform="matrix(0.992 -0.1259 0.1259 0.992 -8.0622 12.9902)" class="st1" width="0.6" height="4.24"/>
	
		<rect x="99.66" y="68.03" transform="matrix(0.992 -0.1259 0.1259 0.992 -8.0341 13.1386)" class="st1" width="0.6" height="4.24"/>
	<polygon class="st4" points="60.3,74.44 60.48,75.9 58.11,75.46 	"/>
	<path class="st1" d="M60.5,76.16h-0.05l-2.37-0.44c-0.11-0.02-0.19-0.11-0.21-0.22c-0.02-0.11,0.04-0.22,0.14-0.27l2.18-1.03
		c0.07-0.04,0.16-0.04,0.24,0c0.07,0.04,0.12,0.11,0.13,0.2l0.19,1.46c0.02,0.14-0.08,0.27-0.22,0.29c-0.01,0-0.02,0-0.03,0V76.16z
		 M58.95,75.35l1.23,0.23l-0.09-0.76L58.95,75.35z"/>
	<path class="st0" d="M73.36,79.36c0,0-3.23-4.01-4.17-5.49c-1.55-2.41,2.25-4.55,3.61-3.54c0.97,0.72,6,5.16,7.01,6.11"/>
	<path class="st1" d="M73.36,79.62c-0.08,0-0.15-0.04-0.2-0.1c-0.13-0.16-3.24-4.03-4.19-5.51c-0.67-1.02-0.45-2.39,0.52-3.15
		c0.95-0.89,2.58-1.4,3.51-0.73c0.93,0.67,6.01,5.16,7.03,6.13c0.1,0.1,0.11,0.26,0.01,0.37c-0.1,0.1-0.26,0.11-0.37,0.01
		c-1.03-0.97-6.02-5.39-6.98-6.09c-0.62-0.45-1.97-0.13-2.85,0.69c-0.76,0.6-0.94,1.68-0.41,2.5c0.93,1.45,4.12,5.42,4.16,5.47
		c0.09,0.11,0.08,0.27-0.03,0.36c0,0,0,0-0.01,0C73.49,79.6,73.42,79.62,73.36,79.62z"/>
	<polygon class="st1" points="105.73,88.1 88.07,101.5 96.28,123.43 127.75,121.89 	"/>
	<path class="st1" d="M96.28,123.69c-0.11,0-0.2-0.06-0.24-0.17l-8.21-21.93c-0.04-0.11-0.01-0.23,0.08-0.29l17.66-13.41
		c0.06-0.04,0.13-0.06,0.2-0.05c0.07,0.01,0.13,0.05,0.17,0.11l22.02,33.79c0.08,0.11,0.05,0.27-0.06,0.35
		c-0.04,0.03-0.09,0.04-0.14,0.05L96.3,123.7L96.28,123.69z M88.38,101.59l8.08,21.58l30.83-1.51L105.66,88.5L88.38,101.59z"/>
</g>
</svg>
