<?xml version="1.0" encoding="utf-8"?>
<!-- Generator: Adobe Illustrator 25.1.0, SVG Export Plug-In . SVG Version: 6.00 Build 0)  -->
<svg version="1.1" id="Warstwa_1" xmlns="http://www.w3.org/2000/svg" xmlns:xlink="http://www.w3.org/1999/xlink" x="0px" y="0px"
	 viewBox="0 0 406 306" style="enable-background:new 0 0 406 306;" xml:space="preserve">
<style type="text/css">
	.st0{fill:#FFFFFF;}
	.st1{fill:#231F20;}
	.st2{fill:#38D39F;}
	.st3{fill:#D1D3D4;}
</style>
<g id="_94_tennis">
	<path class="st0" d="M126.57,84.74c0,0-46.22,20.54-47.75,21.47c-1.53,0.93-6.36,5.59-8.32,7.78c-3.46,3.82-4.6,4.59-5.26,2.42
		c-0.65-2.17,3.06-5.43,3.06-5.43s-18.26-0.29-16.92-4.28c3.62-10.21,15.5-7.18,17.25-7.39c1.75-0.22,21.75-19.77,55.07-29.43"/>
	<path class="st1" d="M66.23,118.22c-0.09,0.01-0.19,0.01-0.28,0c-0.79-0.17-1.11-0.97-1.29-1.56c-0.53-1.69,1.06-3.79,2.21-5.03
		c-3.91-0.14-13.94-0.75-15.78-3.37c-0.35-0.48-0.44-1.11-0.23-1.67c3.15-9.04,12.4-8.22,16.35-7.88c0.46,0.06,0.93,0.09,1.4,0.08
		c1.1-0.7,2.17-1.48,3.18-2.31c7.59-5.82,25.37-19.44,51.8-27.11c0.31-0.1,0.64,0.08,0.74,0.39c0,0.01,0,0.02,0.01,0.02
		c0.09,0.32-0.09,0.65-0.41,0.75c-26.22,7.54-43.86,21.1-51.41,26.87c-2.51,1.92-3.26,2.49-3.77,2.55c-0.55,0.02-1.11,0-1.66-0.07
		c-3.62-0.33-12.25-1.08-15.09,7.07c-0.08,0.19-0.06,0.41,0.07,0.58c1.37,1.93,10.68,2.79,16.23,2.89c0.25,0,0.47,0.15,0.56,0.39
		c0.09,0.24,0.02,0.5-0.17,0.66c-1.32,1.21-3.27,3.52-2.89,4.83c0.22,0.69,0.4,0.74,0.4,0.74c0.65,0.16,2.96-2.42,3.84-3.43
		c1.99-2.21,6.83-6.96,8.46-7.9s45.91-20.65,47.81-21.5c0.31-0.16,0.69-0.04,0.85,0.27c0.16,0.31,0.04,0.69-0.27,0.85l0,0
		c-15.99,7.12-46.52,20.76-47.71,21.43c-2.94,2.32-5.67,4.88-8.17,7.66C68.61,116.98,67.29,118.22,66.23,118.22z"/>
	<path class="st0" d="M227.29,107.08l38.39,19.33c0,0,9.53-1.32,11.5,0c1.97,1.32,12.84,5.75,7.97,11.26
		c-2.04,2.3-6.5,8.29-18.49,4.24c-4.28-1.44-8.87-8.93-8.87-8.93s-25.19-3.62-30.51-5.58c-5.32-1.96-25.01-18.4-25.01-18.4
		L227.29,107.08z"/>
	<path class="st1" d="M274.15,143.97c-2.62-0.05-5.21-0.53-7.67-1.41c-4.04-1.37-8.19-7.61-9.05-8.95
		c-2.9-0.42-25.26-3.7-30.34-5.58c-5.35-1.98-24.4-17.82-25.19-18.5c-0.19-0.16-0.27-0.42-0.19-0.65c0.07-0.24,0.29-0.4,0.53-0.41
		l25.01-1.93c0.11-0.01,0.23,0.02,0.33,0.07l38.27,19.25c1.61-0.21,9.67-1.21,11.73,0.12c0.28,0.19,0.76,0.45,1.34,0.76
		c2.8,1.51,7.47,4.04,8.07,7.43c0.21,1.46-0.28,2.94-1.33,3.98l-0.29,0.34C282.72,142,278.55,144.04,274.15,143.97z M203.81,109.5
		c4.28,3.53,19.26,15.71,23.69,17.35c5.2,1.92,30.12,5.51,30.38,5.55c0.17,0.03,0.33,0.14,0.42,0.29c0,0.07,4.54,7.32,8.55,8.68
		c11.04,3.72,15.43-1.3,17.53-3.73l0.3-0.35c0.8-0.76,1.19-1.86,1.05-2.96c-0.51-2.82-5.03-5.26-7.46-6.57
		c-0.63-0.34-1.14-0.62-1.45-0.81c-1.29-0.87-7.48-0.41-11.08,0.08c-0.11,0.04-0.24,0.04-0.35,0l-38.24-19.33L203.81,109.5z"/>
	<path class="st2" d="M119.34,68.98c0,0,6.79-4.22,31.1-7.09c24.31-2.88,29.89,1.67,40.86,7.97c0,0,9.38,4.11,10.97,6.31
		l25.01,30.92l-19.33,10.68l-14.62-12.53c-4.35,7.08-18.46,30.69-20.92,36.74c0,0-25.37-5.51-43.12-24.17
		c-1.79,3.62,9.3-23.91,8.68-30.33c0,0,0.27-0.43,0.71-1.21l-14.85,2.42L119.34,68.98z"/>
	<path class="st0" d="M130.74,172.45c0,0-16.4,18.12-20.19,19.77S49.7,208.65,49.7,208.65l-0.36-16.67l50.28-16.49l13.29-22.06
		L130.74,172.45z"/>
	<path class="st1" d="M49.7,209.26c-0.32-0.01-0.59-0.27-0.6-0.59l-0.36-16.67c0-0.27,0.17-0.5,0.42-0.59l50.06-16.41l13.17-21.88
		c0.17-0.29,0.54-0.38,0.83-0.21c0.05,0.03,0.1,0.07,0.14,0.11l17.83,19.03c0.22,0.23,0.22,0.58,0,0.81
		c-0.66,0.75-16.53,18.12-20.4,19.92c-3.87,1.8-58.61,15.8-60.93,16.46L49.7,209.26z M49.95,192.41l0.34,15.45
		c6.69-1.7,56.54-14.63,60-16.2c2.85-1.27,13.87-12.88,19.62-19.21L113,154.42l-12.88,21.37c-0.08,0.12-0.2,0.22-0.34,0.27
		L49.95,192.41z"/>
	<path class="st1" d="M150.37,153.74c0,0-9.82,14.43-19.63,18.72l-19.92-20.18c0,0,8.33-15.16,13.97-27.43
		S150.37,153.74,150.37,153.74z"/>
	<path class="st1" d="M130.74,173.04c-0.16,0-0.31-0.06-0.42-0.17l-19.94-20.18c-0.19-0.19-0.22-0.48-0.1-0.71
		c0.08-0.16,8.39-15.28,13.94-27.38c0.47-1.49,1.8-2.54,3.36-2.63l0,0c7.79,0,21.75,28.27,23.31,31.5c0.1,0.19,0.1,0.42,0,0.6
		c-0.41,0.59-10.03,14.61-19.89,18.92C130.92,173.03,130.83,173.05,130.74,173.04z M111.55,152.17l19.33,19.56
		c8.66-4.02,17.39-16.05,18.8-18.05c-4.3-8.8-16.18-30.51-22.05-30.51l0,0c-0.94,0-1.68,0.64-2.27,1.93
		C120.25,136.14,112.89,149.7,111.55,152.17z"/>
	<polyline class="st0" points="178.4,148.77 199.67,163.61 235.66,222.98 224.93,237.88 182.86,177.41 154.24,166.89 178.4,151.45 	
		"/>
	<path class="st1" d="M224.93,238.48L224.93,238.48c-0.2-0.01-0.38-0.11-0.5-0.27l-41.98-60.3l-28.43-10.42
		c-0.21-0.08-0.37-0.27-0.4-0.5c-0.02-0.23,0.08-0.45,0.28-0.58l24.17-15.44c0.29-0.17,0.66-0.06,0.82,0.23
		c0.15,0.27,0.08,0.61-0.17,0.79l-23.14,14.79l27.49,10.09c0.11,0.05,0.21,0.13,0.28,0.23l41.59,59.76l9.99-13.88l-35.73-58.92
		l-21.16-14.81c-0.27-0.19-0.34-0.55-0.15-0.82c0,0,0-0.01,0.01-0.01c0.19-0.27,0.56-0.34,0.83-0.16l21.27,14.85
		c0.07,0.05,0.13,0.11,0.18,0.18l35.99,59.37c0.13,0.2,0.13,0.46,0,0.66l-10.74,14.9C225.32,238.4,225.13,238.49,224.93,238.48z"/>
	<path class="st1" d="M182.38,41c0.75-2.29,2.1-4.34,3.91-5.93c2.85-2.15,6.77-2.04,10.34-1.84c4.05,0.24,8.46,0.6,11.5,3.23
		c1,0.88,1.85,1.91,2.54,3.04c1.41,2.07,2.2,4.49,2.3,7c0.08,2.53-1.09,4.93-3.13,6.43c-4.2,2.83-10.73,0-14.5,3.37
		c-1.21,1.11-1.99,2.75-3.41,3.62c-0.92,0.53-1.96,0.83-3.02,0.87c-2.24,0.34-4.52-0.24-6.33-1.59
		C177.13,54.56,180.21,46.38,182.38,41z"/>
	<path class="st1" d="M187.73,61.47c-2.01,0.09-3.99-0.55-5.57-1.79c-5.91-5.09-2.28-14.08-0.34-18.91l0,0
		c0.79-2.39,2.21-4.52,4.11-6.17c2.94-2.22,6.75-2.2,10.73-1.96c3.62,0.21,8.46,0.5,11.87,3.36c1.04,0.92,1.94,2,2.66,3.19
		c1.47,2.14,2.31,4.65,2.42,7.25c0.08,2.73-1.19,5.33-3.4,6.94c-2.15,1.45-4.83,1.52-7.38,1.58c-2.55,0.06-5.27,0.14-7.08,1.75
		c-0.49,0.47-0.94,0.97-1.34,1.52c-0.58,0.85-1.3,1.58-2.14,2.17c-1,0.58-2.13,0.9-3.29,0.95
		C188.58,61.45,188.16,61.47,187.73,61.47z M182.9,41.23c-2.54,6.3-4.83,13.36,0,17.53c1.7,1.24,3.82,1.76,5.9,1.45
		c0.97-0.03,1.91-0.3,2.75-0.77c0.73-0.52,1.37-1.16,1.88-1.9c0.44-0.61,0.94-1.18,1.49-1.69c2.15-1.9,5.05-1.97,7.85-2.04
		c2.5-0.07,4.83-0.13,6.73-1.38c1.87-1.39,2.94-3.6,2.86-5.93c-0.27-3.66-1.92-7.09-4.62-9.58c-2.84-2.42-6.73-2.82-11.15-3.08
		c-3.76-0.22-7.33-0.25-9.93,1.72c-1.73,1.52-3.02,3.48-3.73,5.68L182.9,41.23z"/>
	<path class="st0" d="M191.39,73.93c-2.54,5.03-1.9,6.61-8.12,8.26c-0.95,0.31-1.96,0.42-2.96,0.33c-1.86-0.43-3.45-1.66-4.33-3.36
		c-4.35-7.17,0.27-15.71,2.59-22.76c0.13-0.53,0.39-1.02,0.75-1.43c0.46-0.36,1-0.61,1.57-0.74c2.36-0.91,4.35-2.57,5.69-4.71
		c1.32-2.14,2.37-4.43,3.13-6.83c-0.34,0.97,5.65,5.15,6.46,5.7c2.46,1.7,5.12,3.1,7.91,4.17c1.91,0.72,1.84,0.69,1.41,2.72
		c-0.34,1.61-0.68,3.21-1.08,4.83c-0.75,3.19-1.83,6.29-3.21,9.26c-0.63,1.55-1.69,2.89-3.04,3.88
		C196.2,74.53,193.63,74.24,191.39,73.93z"/>
	<path class="st1" d="M180.96,83.17c-0.25,0.02-0.49,0.02-0.74,0c-2.05-0.43-3.8-1.76-4.76-3.62c-3.75-6.19-1.11-13.29,1.21-19.54
		c0.47-1.28,0.93-2.53,1.33-3.73c0.15-0.63,0.47-1.21,0.91-1.68c0.45-0.37,0.97-0.64,1.53-0.79l0.25-0.08
		c2.23-0.87,4.12-2.44,5.38-4.47c1.28-2.09,2.3-4.33,3.03-6.67l0,0c0.11-0.31,0.46-0.48,0.77-0.37c0.27,0.09,0.43,0.36,0.4,0.64
		c0.24,0.58,2.42,2.54,6.22,5.14c2.42,1.67,5.03,3.05,7.78,4.1c2.1,0.8,2.27,1.1,1.84,3.2v0.21c-0.33,1.53-0.68,3.19-1.09,4.83
		c-0.76,3.2-1.84,6.32-3.24,9.3c-0.68,1.63-1.78,3.05-3.19,4.11c-2.01,1.32-4.45,1.21-6.81,0.86c-0.4,0.82-0.71,1.53-0.99,2.17
		c-1.4,3.17-2.04,4.62-7.32,6.04C182.66,83.04,181.81,83.16,180.96,83.17z M189.82,44.13c-0.69,2.01-1.61,3.93-2.74,5.73
		c-1.42,2.26-3.54,3.99-6.04,4.94l-0.27,0.08c-0.39,0.09-0.76,0.27-1.08,0.52c-0.3,0.35-0.5,0.76-0.59,1.21
		c-0.4,1.21-0.87,2.49-1.35,3.78c-2.22,6.04-4.75,12.8-1.29,18.49c0.8,1.54,2.21,2.66,3.89,3.08c0.92,0.07,1.84-0.04,2.72-0.33
		c4.72-1.21,5.22-2.42,6.52-5.33c0.33-0.76,0.71-1.62,1.21-2.62c0.11-0.23,0.36-0.36,0.62-0.33c2.42,0.34,4.64,0.56,6.42-0.62
		c1.23-0.94,2.18-2.19,2.75-3.62c1.4-2.93,2.48-6,3.23-9.16c0.41-1.63,0.76-3.26,1.08-4.83v-0.21c0.28-1.32,0.28-1.32-1.06-1.82
		c-2.85-1.08-5.56-2.5-8.06-4.24C193.63,47.49,191.64,45.91,189.82,44.13z M190.25,42.93L190.25,42.93z"/>
	<path class="st0" d="M181.33,60.77c-1.56-0.04-3.04-0.69-4.12-1.81c-1.73-2.01-2.09-4.87-0.89-7.25c0.27-0.62,0.68-1.16,1.21-1.57
		c0.97-0.63,2.24-0.58,3.15,0.13c1.49,0.89,1.74,1.9,2.42,3.37"/>
	<path class="st1" d="M181.33,61.38L181.33,61.38c-1.72-0.04-3.35-0.76-4.54-2.01c-1.9-2.18-2.3-5.29-1-7.88
		c0.31-0.72,0.8-1.34,1.43-1.81c1.16-0.79,2.69-0.74,3.81,0.11c1.15,0.7,2.01,1.79,2.42,3.07l0.25,0.58c0.13,0.3,0,0.66-0.3,0.8
		c-0.31,0.13-0.66-0.01-0.8-0.31c0,0,0,0,0,0l-0.27-0.58c-0.29-1.05-0.98-1.95-1.91-2.51c-1.33-0.8-2.05-0.47-2.49-0.17
		c-0.45,0.36-0.81,0.82-1.04,1.35c-1.05,2.14-0.74,4.69,0.79,6.52c0.97,1.01,2.3,1.59,3.7,1.63c0.33,0,0.6,0.27,0.6,0.6
		c0,0.33-0.27,0.6-0.6,0.6H181.33z"/>
	<path class="st1" d="M189.3,78.53c-2.43-0.48-4.4-2.24-5.16-4.59c-1.62-4.22,0-5.8,0-5.8s0.63,3.47,7.18,5.63L189.3,78.53z"/>
	<path class="st1" d="M189.3,79.14L189.3,79.14c-2.66-0.48-4.84-2.39-5.67-4.97c-1.74-4.53,0-6.37,0.1-6.44
		c0.16-0.16,0.39-0.22,0.6-0.16c0.21,0.07,0.37,0.25,0.41,0.47c0,0,0.72,3.17,6.78,5.16c0.16,0.06,0.29,0.17,0.36,0.33
		c0.07,0.15,0.07,0.33,0,0.48l-1.98,4.76C189.8,79.02,189.56,79.16,189.3,79.14z M184.1,69.63c-0.2,1.4,0,2.83,0.59,4.12
		c0.65,1.99,2.23,3.53,4.24,4.12l1.55-3.72C186.61,72.72,184.88,70.84,184.1,69.63z"/>
	<path class="st0" d="M198.23,58.14c0,0,1.3,6.81,0.07,7.38c-1.23,0.57-3.35-1.05-3.35-1.05"/>
	<path class="st1" d="M197.71,66.23c-1.16-0.12-2.25-0.57-3.17-1.29c-0.26-0.19-0.32-0.57-0.12-0.83c0-0.01,0.01-0.01,0.01-0.02
		c0.21-0.26,0.58-0.3,0.85-0.11c0.59,0.46,2.04,1.29,2.72,0.98c0.37-0.41,0.19-3.62-0.41-6.72c-0.05-0.33,0.17-0.64,0.5-0.69
		c0.03,0,0.05-0.01,0.08-0.01c0.33-0.06,0.64,0.15,0.71,0.47c0.63,3.32,1.1,7.42-0.28,8.05C198.32,66.19,198.02,66.24,197.71,66.23z
		"/>
	
		<ellipse transform="matrix(0.3484 -0.9373 0.9373 0.3484 77.2871 227.0127)" class="st1" cx="201.93" cy="57.92" rx="1.5" ry="0.57"/>
	
		<ellipse transform="matrix(0.3484 -0.9373 0.9373 0.3484 76.1248 219.8162)" class="st1" cx="196.17" cy="55.15" rx="1.5" ry="0.57"/>
	<path class="st1" d="M195.68,70.53c-0.82,0-3.77-0.58-7.83-7.9c-0.18-0.28-0.1-0.65,0.18-0.83c0.28-0.18,0.65-0.1,0.83,0.18
		c0.01,0.02,0.02,0.04,0.03,0.06c4.11,7.41,6.78,7.25,6.81,7.25c0.33-0.05,0.64,0.19,0.69,0.52c0.05,0.33-0.19,0.64-0.52,0.69
		L195.68,70.53z"/>
	<path class="st1" d="M172.36,141.98l15.07,8.2L174,175.96c0,0-42.39-15.07-48.33-29.52c-5.94-14.45,3.62-28.62,3.62-28.62
		L172.36,141.98z"/>
	<path class="st1" d="M174,176.54c-0.07,0.01-0.14,0.01-0.21,0c-1.74-0.62-42.71-15.32-48.66-29.87s3.5-29,3.62-29.16
		c0.17-0.26,0.52-0.34,0.79-0.18l43.12,24.17l15.07,8.19c0.29,0.15,0.4,0.51,0.25,0.8c0,0,0,0.01-0.01,0.01l-13.42,25.75
		C174.44,176.44,174.23,176.55,174,176.54z M129.44,118.62c-1.52,2.55-8.32,15.02-3.19,27.56c5.4,13.22,42.71,27.27,47.45,29
		l12.92-24.76l-14.5-7.91l0,0L129.44,118.62z"/>
	<path class="st1" d="M208.4,214.73c-0.18,0-0.36-0.08-0.47-0.23c-0.21-0.26-0.16-0.64,0.1-0.85l14.72-11.84
		c0.28-0.18,0.65-0.11,0.84,0.17c0.16,0.25,0.13,0.57-0.09,0.77l-14.7,11.87C208.68,214.7,208.54,214.74,208.4,214.73z"/>
	<path class="st1" d="M123.78,89.24c-0.29,0-0.54-0.21-0.59-0.5c-0.06-0.33,0.16-0.64,0.48-0.7L156.15,82
		c0.33-0.06,0.65,0.16,0.71,0.5c0.06,0.33-0.16,0.65-0.5,0.71l-32.48,6.04L123.78,89.24z"/>
	<path class="st0" d="M143.24,163.54c-0.09,0-0.18-0.02-0.27-0.06c-0.17-0.08-16.99-8.53-19.77-25.46
		c-0.06-0.32,0.16-0.63,0.48-0.69c0.01,0,0.01,0,0.02,0c0.33-0.05,0.63,0.17,0.69,0.5c2.69,16.32,18.95,24.48,19.11,24.56
		c0.3,0.15,0.43,0.51,0.28,0.81C143.69,163.4,143.47,163.54,143.24,163.54L143.24,163.54z"/>
	<path class="st1" d="M49.33,191.98c0,0-13.4-2.97-13.9-1.38c-0.5,1.59-9.67,39.87-7.56,40.54c2.1,0.66,5.07,3.32,7.84-0.79
		c2.77-4.11,15.85-20.99,17.42-22.96C50.53,202.68,49.22,197.36,49.33,191.98z"/>
	<path class="st1" d="M32.24,233.2c-1.19-0.08-2.34-0.42-3.38-0.99c-0.39-0.19-0.8-0.35-1.21-0.5c-0.76-0.25-1.81-0.6,2.42-20.63
		c2.07-9.75,4.48-19.8,4.75-20.67c0.45-1.4,5.35-1.08,14.61,0.97c0.29,0.06,0.49,0.33,0.47,0.63c-0.11,5.29,1.17,10.51,3.72,15.14
		c0.12,0.22,0.1,0.48-0.06,0.68c-1.58,1.96-14.6,18.79-17.29,22.86C35.47,232.19,33.93,233.15,32.24,233.2z M28.23,230.63
		c0.36,0.13,0.74,0.3,1.14,0.5c1.92,0.89,3.9,1.81,5.86-1.11c2.63-3.91,14.78-19.6,17.19-22.63c-2.47-4.59-3.74-9.72-3.7-14.93
		c-5.52-1.21-11.77-2.1-12.74-1.58C34.92,194.42,27.29,227.63,28.23,230.63z"/>
	<path class="st1" d="M75.44,202.18c-0.26,0-0.49-0.17-0.57-0.41l-5.27-15.47c-0.1-0.31,0.06-0.65,0.37-0.76
		c0.32-0.11,0.66,0.06,0.77,0.37l5.27,15.42c0.11,0.32-0.06,0.66-0.37,0.77L75.44,202.18z"/>
	<path class="st1" d="M175.63,136c-0.09,0-0.18-0.02-0.27-0.06c-0.29-0.14-0.42-0.5-0.28-0.79c0-0.01,0.01-0.01,0.01-0.02
		c3.25-6.54,23.02-39.6,23.21-39.87c0.17-0.29,0.54-0.38,0.83-0.22c0.28,0.18,0.37,0.55,0.21,0.83
		c-0.19,0.34-19.94,33.35-23.17,39.87C176.06,135.92,175.85,136.02,175.63,136z"/>
	<path class="st1" d="M329.45,117.07h-0.63c-8.04-0.16-14.89-3.37-19.33-9.06c-4.45-5.69-5.82-13.12-3.98-20.94
		c2.07-8.05,6.83-15.14,13.48-20.12c14.21-11.01,33.09-10.51,42.1,1.11s4.77,30.04-9.42,41.08
		C345.34,114.16,337.53,116.95,329.45,117.07z M341.17,62.61c-7.28,0.15-14.3,2.7-19.98,7.25l0,0
		c-5.97,4.49-10.24,10.88-12.08,18.12c-1.59,6.73-0.41,13.07,3.31,17.88s9.58,7.53,16.49,7.67c7.47-0.01,14.72-2.57,20.54-7.25
		c12.63-9.79,16.57-25.92,8.78-35.96C354.24,65.17,347.99,62.61,341.17,62.61z M320.07,68.42L320.07,68.42z"/>
	<path class="st1" d="M288.69,127.75c-0.56,0-1.09-0.26-1.43-0.7c-0.61-0.78-0.48-1.91,0.3-2.53c0,0,0.01-0.01,0.01-0.01
		c16.51-12.8,32.97-12.41,33.67-12.38c1,0.04,1.78,0.87,1.75,1.87c-0.01,0.98-0.82,1.77-1.8,1.75c-0.03,0-0.05,0-0.08,0
		c-0.19,0-15.94-0.31-31.33,11.62C289.49,127.62,289.09,127.75,288.69,127.75z"/>
	<path class="st1" d="M286.95,125.5c-1,0-1.81-0.82-1.81-1.82c0-0.55,0.26-1.08,0.69-1.42c15.43-11.96,19.04-27.29,19.07-27.44
		c0.22-0.98,1.19-1.59,2.16-1.38c0.98,0.22,1.59,1.19,1.38,2.16c-0.14,0.68-3.88,16.72-20.38,29.52
		C287.75,125.37,287.35,125.5,286.95,125.5z"/>
	<path class="st1" d="M261.08,146.7l-1.12-1.45c-0.79-1.02-0.6-2.48,0.42-3.27l26.05-20.18c1.02-0.79,2.48-0.6,3.27,0.42l1.12,1.45
		c0.79,1.02,0.6,2.48-0.42,3.27l-26.05,20.18C263.33,147.9,261.87,147.72,261.08,146.7z"/>
	<path class="st1" d="M262.92,148.17c-0.12,0.01-0.25,0.01-0.37,0c-0.78-0.09-1.48-0.49-1.96-1.11l-1.11-1.44l0,0
		c-0.99-1.28-0.76-3.13,0.52-4.12c0,0,0,0,0,0l26.04-20.18c1.28-0.99,3.13-0.76,4.12,0.52c0,0,0,0,0,0l1.11,1.45
		c0.99,1.28,0.76,3.13-0.52,4.12c0,0,0,0,0,0l-26.04,20.17C264.2,147.97,263.57,148.18,262.92,148.17z M260.42,144.86l1.12,1.44
		c0.29,0.38,0.73,0.63,1.21,0.66c0.46,0.05,0.91-0.07,1.28-0.35L290,126.42c0.75-0.58,0.89-1.66,0.31-2.42l-1.12-1.45
		c-0.59-0.75-1.66-0.88-2.42-0.3l-26.04,20.18c-0.75,0.58-0.89,1.66-0.31,2.42L260.42,144.86z"/>
	<path class="st0" d="M274.72,125.93c2.93,1.28,5.6,3.06,7.91,5.27c0.51,0.39,0.83,0.98,0.87,1.62c-0.16,0.68-0.74,1.17-1.44,1.21
		c-0.69,0.02-1.38-0.12-2.01-0.4c-2.42-0.87-4.87-1.68-7.37-2.42c-0.35-0.15-0.74-0.18-1.11-0.07c-0.2,0.11-0.38,0.25-0.52,0.42
		c-1.98,2.04-4.66,3.26-7.5,3.4"/>
	<path class="st1" d="M263.56,135.55c-0.33,0-0.6-0.27-0.6-0.6s0.27-0.6,0.6-0.6c2.69-0.12,5.22-1.27,7.09-3.2
		c0.19-0.24,0.44-0.43,0.71-0.57c0.5-0.19,1.05-0.19,1.55,0c2.42,0.79,4.95,1.63,7.37,2.49c0.55,0.24,1.15,0.37,1.75,0.36
		c0.4,0,0.86-0.34,0.89-0.71s-0.33-0.77-0.69-1.12c-2.26-2.16-4.88-3.91-7.75-5.16c-0.28-0.18-0.37-0.55-0.2-0.83
		c0.15-0.24,0.44-0.34,0.7-0.26c2.99,1.31,5.73,3.13,8.1,5.39c0.64,0.51,1.02,1.27,1.04,2.09c-0.16,0.98-0.98,1.72-1.97,1.8
		c-0.78,0.04-1.57-0.11-2.28-0.42c-2.42-0.86-4.83-1.69-7.35-2.42c-0.22-0.09-0.45-0.13-0.69-0.1c-0.11,0.07-0.21,0.15-0.29,0.25
		c-2.09,2.19-4.93,3.48-7.95,3.62L263.56,135.55z"/>
	<path class="st1" d="M168.81,86.79c-0.33,0.01-0.65-0.08-0.93-0.24c-0.62-0.46-0.99-1.19-1-1.96c-0.59-4.24-0.52-8.55,0.19-12.77
		c0.37-2.2,1.21-5.33,3.54-6.98c0.28-0.18,0.66-0.09,0.83,0.19c0.16,0.26,0.1,0.61-0.14,0.8c-2.02,1.4-2.69,4.2-3.03,6.19
		c-0.7,4.11-0.76,8.3-0.19,12.42c0,0.45,0.16,0.92,0.42,1.08c0.36,0.1,0.74,0.07,1.09-0.07c2.42-0.69,4.92-1.43,7.33-2.2
		c0.32-0.1,0.66,0.08,0.76,0.4c0.09,0.32-0.08,0.65-0.4,0.75c-2.42,0.77-4.91,1.52-7.37,2.21
		C169.55,86.71,169.18,86.78,168.81,86.79z"/>
	<path class="st1" d="M183.57,92.45c-2.53,0-3.21-6.42-3.36-8.39c-0.02-0.33,0.23-0.61,0.56-0.64c0.33-0.02,0.62,0.22,0.65,0.56
		c0.25,3.43,1.21,7.25,2.15,7.25c0.94,0,5.93-2.42,8.61-6.31c1.64-2,2.14-4.71,1.33-7.17c-0.12-0.31,0.03-0.66,0.34-0.78
		c0.31-0.12,0.66,0.03,0.78,0.34c0,0.01,0.01,0.02,0.01,0.03c0.94,2.83,0.38,5.94-1.47,8.28C190.36,89.64,185.26,92.45,183.57,92.45
		z"/>
	<path class="st1" d="M222.6,234.92c0,0,10.75-6.15,11.5-15.02c4.72,2.02,10.07,2.02,14.79,0c8.3-3.35,15.57-6.04,16.84-4.39
		c1.27,1.66-0.88,5.18-0.88,5.18s-25.53,28.77-32.55,29.48S222.6,234.92,222.6,234.92z"/>
	<path class="st1" d="M231.84,250.87c-7.1,0-9.73-15.14-9.84-15.79c-0.04-0.25,0.07-0.5,0.29-0.63c0.11-0.06,10.49-6.04,11.2-14.5
		c0.02-0.2,0.14-0.37,0.31-0.47c0.18-0.1,0.39-0.1,0.57,0c4.56,1.93,9.72,1.93,14.28,0c10.77-4.34,16.13-6.04,17.56-4.2
		s-0.6,5.47-0.85,5.87c-1.11,1.27-25.84,29-33.01,29.77L231.84,250.87z M223.26,235.28c0.46,2.42,3.06,14.38,8.58,14.38h0.4
		c5.36-0.56,23.39-19.4,32.16-29.29c0.45-0.74,1.69-3.32,0.86-4.42c-1.12-1.47-11.27,2.62-16.14,4.58c-4.62,1.95-9.8,2.06-14.5,0.33
		c-1.21,7.73-9.47,13.21-11.36,14.37L223.26,235.28z"/>
	<path class="st3" d="M405.38,273.48H0.6c-0.33-0.01-0.6-0.27-0.6-0.6v-105.7c0.01-0.33,0.27-0.6,0.6-0.6h404.77
		c0.33,0.01,0.6,0.27,0.6,0.6v105.7C405.97,273.2,405.71,273.47,405.38,273.48z M1.22,272.27h403.56V167.78H1.22V272.27z"/>
	<rect x="0.63" y="158.3" class="st3" width="404.74" height="8.87"/>
	<path class="st3" d="M405.38,167.78H0.6c-0.33,0-0.6-0.27-0.6-0.6v-8.87c0.01-0.33,0.27-0.6,0.6-0.6h404.77
		c0.33,0.01,0.6,0.27,0.6,0.6v8.87C405.98,167.51,405.71,167.78,405.38,167.78z M1.22,166.57h403.56v-7.66H1.22V166.57z"/>
	<path class="st3" d="M19.22,273.48c-0.33-0.01-0.6-0.27-0.6-0.6v-105.7c0.01-0.33,0.27-0.6,0.6-0.6c0.33,0,0.6,0.27,0.6,0.6v105.7
		C19.83,273.21,19.56,273.48,19.22,273.48C19.22,273.48,19.22,273.48,19.22,273.48z"/>
	<path class="st3" d="M38.68,273.48c-0.33,0-0.6-0.27-0.6-0.6v-105.7c0-0.33,0.27-0.6,0.6-0.6c0.33,0,0.6,0.27,0.6,0.6v105.7
		C39.28,273.21,39.01,273.48,38.68,273.48C38.68,273.48,38.68,273.48,38.68,273.48z"/>
	<path class="st3" d="M58.01,273.48c-0.33,0-0.6-0.27-0.6-0.6v-105.7c0-0.33,0.27-0.6,0.6-0.6c0.33,0.01,0.6,0.27,0.6,0.6v105.7
		C58.61,273.2,58.34,273.47,58.01,273.48z"/>
	<path class="st3" d="M77.43,273.48c-0.33-0.01-0.6-0.27-0.6-0.6v-105.7c0.01-0.33,0.27-0.6,0.6-0.6c0.33,0,0.6,0.27,0.6,0.6v105.7
		C78.03,273.21,77.76,273.48,77.43,273.48C77.43,273.48,77.43,273.48,77.43,273.48z"/>
	<path class="st3" d="M96.83,273.48c-0.33,0-0.6-0.27-0.6-0.6v-105.7c0-0.33,0.27-0.6,0.6-0.6s0.6,0.27,0.6,0.6v105.7
		C97.44,273.21,97.16,273.48,96.83,273.48C96.83,273.48,96.83,273.48,96.83,273.48z"/>
	<path class="st3" d="M116.24,273.48c-0.33,0-0.6-0.27-0.6-0.6v-105.7c0-0.33,0.27-0.6,0.6-0.6c0.33,0.01,0.6,0.27,0.6,0.6v105.7
		C116.83,273.2,116.57,273.47,116.24,273.48z"/>
	<path class="st3" d="M135.63,273.48c-0.33,0-0.6-0.27-0.6-0.6v-105.7c0-0.33,0.27-0.6,0.6-0.6s0.6,0.27,0.6,0.6v105.7
		C136.23,273.21,135.96,273.48,135.63,273.48L135.63,273.48z"/>
	<path class="st3" d="M155.03,273.48c-0.33,0-0.6-0.27-0.6-0.6v-105.7c0-0.33,0.27-0.6,0.6-0.6c0.33,0.01,0.6,0.27,0.6,0.6v105.7
		C155.63,273.2,155.36,273.47,155.03,273.48z"/>
	<path class="st3" d="M174.43,273.48c-0.33-0.01-0.6-0.27-0.6-0.6v-105.7c0.01-0.33,0.27-0.6,0.6-0.6c0.33,0,0.6,0.27,0.6,0.6v105.7
		C175.03,273.21,174.76,273.48,174.43,273.48L174.43,273.48z"/>
	<path class="st3" d="M193.83,273.48c-0.33,0-0.6-0.27-0.6-0.6v-105.7c0-0.33,0.27-0.6,0.6-0.6s0.6,0.27,0.6,0.6v105.7
		C194.44,273.21,194.16,273.48,193.83,273.48L193.83,273.48z"/>
	<path class="st3" d="M213.24,273.48c-0.33,0-0.6-0.27-0.6-0.6v-105.7c0-0.33,0.27-0.6,0.6-0.6c0.33,0.01,0.6,0.27,0.6,0.6v105.7
		C213.83,273.2,213.57,273.47,213.24,273.48z"/>
	<path class="st3" d="M232.63,273.48c-0.33-0.01-0.6-0.27-0.6-0.6v-105.7c0.01-0.33,0.27-0.6,0.6-0.6c0.33,0,0.6,0.27,0.6,0.6v105.7
		C233.23,273.21,232.96,273.48,232.63,273.48L232.63,273.48z"/>
	<path class="st3" d="M252.03,273.48c-0.33,0-0.6-0.27-0.6-0.6v-105.7c0-0.33,0.27-0.6,0.6-0.6s0.6,0.27,0.6,0.6v105.7
		C252.64,273.21,252.37,273.48,252.03,273.48L252.03,273.48z"/>
	<path class="st3" d="M271.44,273.48c-0.33,0-0.6-0.27-0.6-0.6v-105.7c0-0.33,0.27-0.6,0.6-0.6c0.33,0.01,0.6,0.27,0.6,0.6v105.7
		C272.04,273.2,271.77,273.47,271.44,273.48z"/>
	<path class="st3" d="M290.83,273.48c-0.33-0.01-0.6-0.27-0.6-0.6v-105.7c0.01-0.33,0.27-0.6,0.6-0.6c0.33,0,0.6,0.27,0.6,0.6v105.7
		C291.44,273.21,291.16,273.48,290.83,273.48C290.83,273.48,290.83,273.48,290.83,273.48z"/>
	<path class="st3" d="M310.24,273.48c-0.33,0-0.6-0.27-0.6-0.6v-105.7c0-0.33,0.27-0.6,0.6-0.6c0.33,0.01,0.6,0.27,0.6,0.6v105.7
		C310.83,273.2,310.57,273.47,310.24,273.48z"/>
	<path class="st3" d="M329.63,273.48c-0.33-0.01-0.6-0.27-0.6-0.6v-105.7c0.01-0.33,0.27-0.6,0.6-0.6c0.33,0,0.6,0.27,0.6,0.6v105.7
		C330.23,273.21,329.96,273.48,329.63,273.48C329.63,273.48,329.63,273.48,329.63,273.48z"/>
	<path class="st3" d="M349.03,273.48c-0.33,0-0.6-0.27-0.6-0.6v-105.7c0-0.33,0.27-0.6,0.6-0.6c0.33,0,0.6,0.27,0.6,0.6v105.7
		C349.64,273.21,349.37,273.48,349.03,273.48C349.03,273.48,349.03,273.48,349.03,273.48z"/>
	<path class="st3" d="M368.44,273.48c-0.33,0-0.6-0.27-0.6-0.6v-105.7c0-0.33,0.27-0.6,0.6-0.6c0.33,0.01,0.6,0.27,0.6,0.6v105.7
		C369.04,273.2,368.77,273.47,368.44,273.48z"/>
	<path class="st3" d="M387.87,273.48c-0.33-0.01-0.6-0.27-0.6-0.6v-105.7c0.01-0.33,0.27-0.6,0.6-0.6c0.33,0,0.6,0.27,0.6,0.6v105.7
		C388.47,273.21,388.2,273.48,387.87,273.48C387.87,273.48,387.87,273.48,387.87,273.48z"/>
	<path class="st3" d="M405.38,183H0.6c-0.33,0-0.6-0.27-0.6-0.6s0.27-0.6,0.6-0.6h404.77c0.33,0,0.6,0.27,0.6,0.6
		S405.71,183,405.38,183z"/>
	<path class="st3" d="M405.38,201.81H0.6c-0.33,0-0.6-0.27-0.6-0.6c0-0.33,0.27-0.6,0.6-0.6h404.77c0.33,0,0.6,0.27,0.6,0.6
		C405.98,201.54,405.71,201.81,405.38,201.81z"/>
	<path class="st3" d="M405.38,220.66H0.6c-0.33,0-0.6-0.27-0.6-0.6s0.27-0.6,0.6-0.6h404.77c0.33,0,0.6,0.27,0.6,0.6
		S405.71,220.66,405.38,220.66z"/>
	<path class="st3" d="M405.38,239.44H0.6c-0.33-0.01-0.6-0.27-0.6-0.6c0-0.33,0.27-0.6,0.6-0.6h404.77c0.33,0,0.6,0.27,0.6,0.6
		C405.97,239.17,405.71,239.43,405.38,239.44z"/>
	<path class="st3" d="M405.38,258.25H0.6c-0.33-0.01-0.6-0.27-0.6-0.6c0-0.33,0.27-0.6,0.6-0.6h404.77c0.33,0,0.6,0.27,0.6,0.6
		C405.97,257.98,405.71,258.25,405.38,258.25z"/>
	<circle class="st2" cx="356.1" cy="71.9" r="23.46"/>
	<path class="st0" d="M346.79,91.44c-0.08,0.02-0.17,0.02-0.25,0c-0.3-0.14-0.43-0.5-0.29-0.8c0,0,0,0,0-0.01
		c4.2-8.99,4.2-17.17,0-24.3c-1.91-3.23-4.52-6-7.64-8.1c-0.29-0.17-0.38-0.53-0.22-0.82c0.17-0.29,0.54-0.38,0.83-0.22
		c0.19,0.12,18.58,11.5,8.11,33.95C347.21,91.33,347.01,91.44,346.79,91.44z"/>
	<path class="st0" d="M371.01,85.34c-0.19,0-0.38-0.09-0.5-0.24c-13.15-18.04-4.12-32.02-4.02-32.16c0.18-0.27,0.55-0.35,0.82-0.17
		c0,0,0.01,0.01,0.01,0.01c0.28,0.18,0.35,0.56,0.17,0.83c-1.56,2.7-2.52,5.7-2.8,8.81c-0.54,5.01,0.19,12.9,6.8,21.97
		c0.19,0.27,0.13,0.65-0.13,0.85C371.26,85.3,371.14,85.34,371.01,85.34z"/>
</g>
</svg>
