<?xml version="1.0" encoding="utf-8"?>
<!-- Generator: Adobe Illustrator 25.1.0, SVG Export Plug-In . SVG Version: 6.00 Build 0)  -->
<svg version="1.1" id="Warstwa_1" xmlns="http://www.w3.org/2000/svg" xmlns:xlink="http://www.w3.org/1999/xlink" x="0px" y="0px"
	 viewBox="0 0 129 129" style="enable-background:new 0 0 129 129;" xml:space="preserve">
<style type="text/css">
	.st0{fill:#FFFFFF;}
	.st1{fill:#231F20;}
	.st2{fill:#D1D3D4;}
	.st3{fill:#38D39F;}
	.st4{fill:#68E1FD;}
</style>
<g id="_43_time">
	<path class="st0" d="M33.64,99.49l-5.27,6.17c0,0-10.19-5.72-9.82-6.85c0.37-1.13,7,0.57,7,0.57l3.29-4.26"/>
	<path class="st1" d="M28.37,105.87c-0.04,0-0.07-0.01-0.1-0.03c-3.11-1.74-10.3-5.93-9.91-7.09c0.39-1.17,5.38-0.03,7.12,0.42
		l3.2-4.16c0.07-0.09,0.2-0.11,0.29-0.04c0.09,0.07,0.11,0.2,0.04,0.29l-3.29,4.26c-0.05,0.07-0.14,0.1-0.22,0.07
		c-3.11-0.8-6.56-1.27-6.75-0.71c-0.09,0.64,4.87,3.87,9.57,6.52l5.16-6.05c0.08-0.08,0.22-0.08,0.29,0.01
		c0.07,0.07,0.08,0.18,0.02,0.26l-5.27,6.17C28.49,105.84,28.43,105.87,28.37,105.87z"/>
	<path class="st0" d="M50.59,40.92c-0.55-0.54-1.25-0.91-2.01-1.07c-0.65-0.1-1.01,0.18-1.55,0.42c-0.22,0.1-0.24,0.42-0.47,0.51
		c-0.23,0.1-0.7-0.14-0.96-0.15c-1.42-0.08-2.79,0.51-3.71,1.59c-0.56,0.79-1,1.65-1.3,2.57c-1.56,3.93-3.94,7.87-7.81,9.57
		c3.5,2.5,7.78,4.08,12.07,3.83c2.1-0.12,4.14-0.71,5.99-1.7c1.45-0.79,4.09-2.41,4.35-4.22c0.25-1.69-0.56-4.29-1.09-5.89
		C53.43,44.29,52.22,42.4,50.59,40.92z"/>
	<path class="st1" d="M43.96,58.42c-3.8,0-7.78-1.36-11.31-3.89c-0.06-0.04-0.09-0.12-0.08-0.19c0.01-0.07,0.05-0.14,0.12-0.17
		c3.22-1.41,5.74-4.5,7.71-9.45l0.09-0.22c0.29-0.86,0.71-1.67,1.25-2.41c0.96-1.13,2.4-1.75,3.88-1.66
		c0.14,0.01,0.28,0.04,0.42,0.08c0.15,0.05,0.3,0.08,0.45,0.07c0.05,0,0.09-0.09,0.13-0.17c0.06-0.14,0.18-0.26,0.32-0.34
		c0.1-0.05,0.2-0.1,0.29-0.14c0.41-0.25,0.89-0.36,1.37-0.3c0.8,0.17,1.53,0.56,2.11,1.13l0,0c1.66,1.51,2.89,3.43,3.57,5.56
		c0.59,1.76,1.34,4.3,1.1,5.99c-0.26,1.76-2.56,3.33-4.46,4.37c-1.88,1.01-3.95,1.59-6.07,1.72C44.56,58.41,44.26,58.42,43.96,58.42
		z M33.2,54.42c3.66,2.53,7.78,3.81,11.65,3.58c2.06-0.12,4.08-0.69,5.9-1.66c2.56-1.39,4.07-2.83,4.24-4.07
		c0.23-1.6-0.5-4.07-1.08-5.79c-0.65-2.07-1.84-3.93-3.45-5.38l0,0c-0.52-0.51-1.18-0.87-1.9-1.03c-0.4-0.04-0.8,0.05-1.13,0.27
		c-0.1,0.05-0.2,0.1-0.3,0.14c-0.06,0.04-0.1,0.1-0.13,0.17c-0.07,0.16-0.2,0.28-0.36,0.35c-0.23,0.04-0.47,0.02-0.69-0.07
		c-0.11-0.03-0.22-0.06-0.34-0.07c-1.35-0.09-2.67,0.46-3.56,1.49c-0.5,0.7-0.9,1.47-1.17,2.29l-0.09,0.22
		C38.85,49.76,36.36,52.88,33.2,54.42z"/>
	<path class="st0" d="M43.36,54.18c0.69-0.73-1.81-0.16-2.04,4.61c-0.18,3.64,1,9.6,1,9.6l-7.83,6.55l4.84,1.38
		c0,0,8.83-6.42,8.82-6.89C48.14,68.97,43.36,54.18,43.36,54.18z"/>
	<path class="st1" d="M39.33,76.51c-0.02,0-0.04,0-0.05,0l-4.84-1.38c-0.07-0.02-0.12-0.08-0.13-0.15
		c-0.01-0.07,0.01-0.14,0.07-0.18l7.74-6.47c-0.16-0.83-1.15-6.18-0.98-9.54c0.17-3.46,1.54-4.89,2.18-5.04
		c0.12-0.05,0.26,0,0.34,0.11c0.06,0.13,0.03,0.27-0.07,0.37c0.87,2.68,4.74,14.75,4.76,15.21s-4.84,4.09-8.9,7.04
		C39.4,76.5,39.37,76.51,39.33,76.51z M34.88,74.85l4.41,1.25c3.22-2.34,8.29-6.14,8.66-6.7c-0.13-0.7-2.91-9.4-4.77-15.17l0,0
		c-0.49,0.36-1.52,1.6-1.66,4.58c-0.17,3.58,0.99,9.5,1,9.57c0.01,0.07-0.01,0.14-0.07,0.18L34.88,74.85z M48.13,69.47L48.13,69.47z
		"/>
	<ellipse class="st2" cx="63.77" cy="107.41" rx="45.23" ry="2.88"/>
	<path class="st3" d="M57.15,50.22c-0.29-0.22-13.02,0.57-15.21,4.81s5.71,17.06,5.71,17.06l16.1-4.82
		C63.74,67.27,64.89,56.28,57.15,50.22z"/>
	<path class="st0" d="M107.99,87.67c2.08,9.57-4.83,16.53-4.83,16.53H54.53c0,0-6.9-6.93-4.83-16.53
		c2.07-9.6,16.73-14.83,21.18-18.77c4.46-3.94,2.87-10.63-4.14-15.74S50.24,44.8,50.51,33.74c0.16-7.07,5.73-11.68,5.73-11.68h45.22
		c0,0,5.58,4.58,5.73,11.68c0.25,11.06-9.24,14.3-16.25,19.42c-7.01,5.12-8.6,11.81-4.14,15.74
		C91.27,72.84,105.92,78.1,107.99,87.67z"/>
	<path class="st1" d="M103.16,104.4H54.53c-0.05,0-0.1-0.02-0.14-0.06c-0.07-0.07-6.94-7.14-4.88-16.71
		c1.5-6.93,9.6-11.68,15.51-15.14c2.41-1.41,4.48-2.62,5.73-3.74c1.64-1.38,2.54-3.44,2.43-5.58c-0.15-3.33-2.54-6.94-6.55-9.87
		c-1.38-1.01-2.88-1.96-4.34-2.88C56.29,46.63,50.1,42.7,50.3,33.72c0.16-7.07,5.75-11.78,5.8-11.82c0.03-0.03,0.08-0.05,0.12-0.05
		h45.23c0.04,0,0.09,0.02,0.12,0.05c0.05,0.05,5.64,4.73,5.8,11.82c0.2,8.98-6,12.9-11.99,16.69c-1.45,0.92-2.96,1.88-4.34,2.88
		c-4.01,2.91-6.4,6.52-6.55,9.87c-0.11,2.14,0.78,4.2,2.42,5.58c1.25,1.11,3.33,2.32,5.73,3.74c5.91,3.46,14.01,8.21,15.51,15.14
		c2.08,9.57-4.81,16.64-4.88,16.71C103.26,104.38,103.21,104.4,103.16,104.4z M103.16,104.21L103.16,104.21z M54.6,104.01h48.47
		c0.64-0.68,6.66-7.39,4.73-16.3c-1.46-6.77-9.48-11.46-15.33-14.89c-2.42-1.41-4.51-2.64-5.79-3.77c-1.73-1.45-2.68-3.64-2.55-5.9
		c0.16-3.46,2.6-7.17,6.71-10.16c1.39-1.02,2.91-1.97,4.36-2.91c5.9-3.74,12-7.6,11.8-16.36c-0.15-6.55-5.06-11.01-5.61-11.49H56.3
		c-0.56,0.48-5.47,4.94-5.62,11.49c-0.2,8.76,5.91,12.63,11.81,16.36c1.46,0.92,2.97,1.88,4.36,2.91c4.1,3,6.55,6.7,6.71,10.16
		c0.12,2.25-0.83,4.43-2.55,5.88c-1.29,1.14-3.37,2.36-5.79,3.77c-5.85,3.43-13.87,8.12-15.33,14.89
		C47.95,96.63,53.97,103.34,54.6,104.01L54.6,104.01z"/>
	<path class="st3" d="M64.46,48.06c1.5,0.95,3.06,1.93,4.53,3.01c3.48,2.43,6.1,5.89,7.49,9.9c1.34,3.84,0.97,7.94,1.8,11.91
		c0.02,0.31,0.19,0.59,0.45,0.76c0.39,0.16,0.84,0.06,1.13-0.25c0.22-0.29,0.36-0.64,0.38-1.01c0.52-3.19,0.5-6.2,0.7-9.42
		c0.26-4.13,3.07-8.46,7.75-11.88c1.48-1.08,3.03-2.06,4.54-3.01c3.39-2.15,16.64-11.63,7.83-14.46c-1.88-0.6-3.99-0.44-6-0.27
		l-31.51,2.71c-1.83,0.16-3.69,0.32-5.36,0.96c-1.67,0.63-3.13,1.82-3.43,3.33C54.21,43.18,61.99,46.51,64.46,48.06z"/>
	<path class="st3" d="M103.2,86.87c-1.84-1.42-4.13-2.14-6.45-2.03c-3.22,0.12-6.35,1.17-9.57,1.02c-3.83-0.18-7.45-2.08-11.26-1.69
		c-4.47,0.44-7.72,3.83-12.07,4.84c-2.31,0.53-4.82,0.36-7.07,1.06c-2.65,0.83-3.82,3.07-3.51,5.27c0.1,0.69,1.97,6.08,3.02,6.08
		h45.09c2.32,0,4.07-9.9,3.83-11.28C104.96,88.84,104.25,87.68,103.2,86.87z"/>
	<path class="st1" d="M55.4,18.52h46.89c0.98,0,1.77,0.79,1.77,1.77v0c0,0.98-0.79,1.77-1.77,1.77H55.4c-0.98,0-1.77-0.79-1.77-1.77
		v0C53.63,19.32,54.42,18.52,55.4,18.52z"/>
	<path class="st1" d="M102.29,22.25h-46.9c-1.08,0-1.96-0.88-1.95-1.96c0-1.08,0.88-1.95,1.95-1.95h46.9c1.08,0,1.96,0.88,1.96,1.96
		S103.37,22.25,102.29,22.25z M55.39,18.71c-0.88-0.04-1.62,0.63-1.67,1.51c-0.04,0.88,0.63,1.62,1.51,1.67c0.05,0,0.11,0,0.16,0
		h46.9c0.88-0.04,1.55-0.79,1.51-1.67c-0.04-0.81-0.69-1.46-1.51-1.51H55.39z"/>
	<path class="st1" d="M54.5,104.21h48.7c0.98,0,1.77,0.79,1.77,1.77v0c0,0.98-0.79,1.77-1.77,1.77H54.5c-0.98,0-1.77-0.79-1.77-1.77
		v0C52.72,105,53.52,104.21,54.5,104.21z"/>
	<path class="st1" d="M103.19,107.93H54.51c-1.08,0-1.95-0.88-1.95-1.96c0-1.08,0.88-1.95,1.95-1.95h48.68
		c1.08,0,1.96,0.87,1.96,1.95C105.15,107.06,104.28,107.93,103.19,107.93C103.19,107.93,103.19,107.93,103.19,107.93z M54.51,104.39
		c-0.88,0-1.59,0.71-1.59,1.59c0,0.88,0.71,1.59,1.59,1.59h48.68c0.88,0,1.59-0.71,1.59-1.59c0-0.88-0.71-1.59-1.59-1.59H54.51z"/>
	<path class="st4" d="M78.13,75.22c-1.35,0-1.35,4.46,0,4.46S79.48,75.22,78.13,75.22z"/>
	<path class="st4" d="M80.49,79.67c-0.55,0-0.55,1.58,0,1.58S81.03,79.67,80.49,79.67z"/>
	<path class="st1" d="M77.15,43.91c-6.19-0.05-12.35-0.98-18.28-2.77c-0.1-0.03-0.15-0.13-0.12-0.23c0,0,0-0.01,0-0.01
		c0.03-0.1,0.14-0.15,0.24-0.12c0.26,0.09,26.1,8.47,39.94-4.49c0.08-0.07,0.2-0.06,0.27,0.02c0.07,0.08,0.06,0.19-0.01,0.26
		C93.09,42.29,84.7,43.91,77.15,43.91z"/>
	<path class="st1" d="M71.32,94.21c-4.86,0-9.7-0.7-14.36-2.08c-0.1-0.03-0.17-0.13-0.14-0.23c0.03-0.1,0.13-0.17,0.23-0.14
		c0.01,0,0.02,0.01,0.03,0.01c0.14,0.05,14.18,4.65,26.87,0l15.05-5.51c0.09-0.05,0.21-0.01,0.26,0.09
		c0.05,0.09,0.01,0.21-0.09,0.26c-0.01,0.01-0.03,0.01-0.04,0.01l-15.03,5.5C80,93.56,75.67,94.26,71.32,94.21z"/>
	<path class="st1" d="M90.11,87.21h-0.05c-4.34-1.07-11.9-2.89-11.98-2.91c-0.1-0.03-0.15-0.14-0.12-0.24
		c0.03-0.09,0.12-0.14,0.21-0.13c0.07,0.02,7.64,1.83,11.98,2.91c0.1,0.02,0.16,0.12,0.14,0.22c0,0,0,0,0,0.01
		C90.27,87.15,90.2,87.21,90.11,87.21z"/>
	<path class="st0" d="M50.84,50.94l0.9,2.81c0,0,0.05,1.4-1.98,1.56c-2.02,0.16-2.72-1.04-2.72-1.04l-1.48-5.31
		c0,0,2.42-2.52,1.02-5.41c1.22,1.18,3.05,1.47,4.58,0.73c0.48,1.38,0.87,2.78,1.17,4.2C52.59,50.03,50.84,50.94,50.84,50.94z"/>
	<path class="st1" d="M49.39,55.54c-1.83,0-2.5-1.1-2.53-1.15c0-0.02,0-0.03,0-0.05l-1.49-5.3c-0.02-0.07,0-0.15,0.05-0.2
		c0.02-0.02,2.31-2.46,0.99-5.17c-0.05-0.1,0-0.23,0.1-0.28c0.08-0.04,0.17-0.02,0.23,0.04c1.16,1.13,2.9,1.4,4.34,0.69
		c0.05-0.02,0.11-0.02,0.17,0c0.06,0.02,0.1,0.07,0.12,0.12c0.48,1.39,0.88,2.8,1.18,4.24c0.23,1.39-1.01,2.29-1.45,2.56l0.83,2.65
		c0,0.02,0,0.04,0,0.05c0,0,0.02,1.6-2.17,1.78C49.64,55.54,49.52,55.54,49.39,55.54z M47.24,54.2c0.1,0.15,0.78,1.05,2.5,0.92
		s1.78-1.14,1.79-1.32l-0.89-2.78c-0.03-0.1,0.01-0.2,0.1-0.25c0,0,1.61-0.86,1.39-2.22c-0.28-1.34-0.64-2.66-1.09-3.95
		c-1.31,0.56-2.81,0.42-3.99-0.38c0.69,2.36-0.88,4.38-1.25,4.83L47.24,54.2z"/>
	<path class="st0" d="M46.4,48.54c-0.15-0.23-0.37-0.41-0.63-0.52c-0.25-0.08-0.51-0.12-0.77-0.11c-0.14-0.01-0.28,0.01-0.42,0.06
		c-0.09,0.04-0.17,0.11-0.23,0.18c-0.17,0.16-0.28,0.38-0.3,0.62c0,0.19,0.06,0.38,0.15,0.55c0.09,0.19,0.2,0.36,0.33,0.52
		c0.57,0.65,1.55,0.71,2.2,0.14c0.01,0,0.01-0.01,0.02-0.01"/>
	<path class="st1" d="M45.71,50.58h-0.1c-0.48-0.02-0.93-0.24-1.25-0.6c-0.15-0.17-0.27-0.36-0.36-0.57
		c-0.11-0.2-0.17-0.42-0.17-0.64c0.02-0.29,0.14-0.56,0.35-0.76c0.08-0.1,0.19-0.18,0.3-0.23c0.16-0.06,0.34-0.09,0.51-0.07
		c0.28-0.01,0.56,0.03,0.83,0.12c0.3,0.12,0.56,0.33,0.73,0.6c0.06,0.09,0.04,0.22-0.06,0.28c0,0-0.01,0-0.01,0
		c-0.1,0.06-0.22,0.03-0.29-0.07c-0.13-0.19-0.31-0.34-0.52-0.42c-0.23-0.07-0.46-0.11-0.7-0.1c-0.11-0.01-0.22,0-0.32,0.04
		c-0.06,0.04-0.12,0.08-0.17,0.14c-0.13,0.13-0.22,0.3-0.24,0.49c0.01,0.16,0.05,0.31,0.13,0.45c0.08,0.17,0.18,0.33,0.3,0.47
		c0.24,0.27,0.58,0.43,0.94,0.46c0.36,0.02,0.71-0.1,0.98-0.35c0.08-0.08,0.21-0.08,0.29,0c0,0,0,0,0,0c0.08,0.08,0.08,0.21,0,0.29
		c0,0,0,0,0,0C46.57,50.41,46.14,50.58,45.71,50.58z"/>
	<path class="st0" d="M49.25,46.45c0,0,1.5,1.09,1.36,1.43c-0.14,0.34-0.83,0.42-0.83,0.42"/>
	<path class="st1" d="M49.77,48.49c-0.11,0.01-0.21-0.08-0.22-0.2c-0.01-0.11,0.08-0.21,0.2-0.22c0.25-0.02,0.62-0.14,0.67-0.28
		c-0.37-0.46-0.8-0.86-1.29-1.18c-0.09-0.07-0.11-0.19-0.05-0.29c0.06-0.09,0.19-0.12,0.28-0.05c0,0,0.01,0,0.01,0.01
		c1.08,0.79,1.56,1.35,1.44,1.66c-0.18,0.42-0.88,0.52-1.02,0.53L49.77,48.49z"/>
	
		<ellipse transform="matrix(0.8437 -0.5369 0.5369 0.8437 -17.2579 33.0641)" class="st1" cx="48.15" cy="46.17" rx="0.25" ry="0.36"/>
	
		<ellipse transform="matrix(0.8437 -0.5369 0.5369 0.8437 -16.6931 33.8317)" class="st1" cx="49.75" cy="45.58" rx="0.25" ry="0.36"/>
	<path class="st0" d="M51.07,48.59c0,0-2.01,2.13-3.07,0"/>
	<path class="st1" d="M49.26,49.76c-0.07,0.01-0.14,0.01-0.21,0c-0.57-0.11-1.04-0.51-1.25-1.05c-0.05-0.1-0.01-0.23,0.1-0.28
		c0.1-0.05,0.23-0.01,0.28,0.1c0,0,0,0,0,0c0.15,0.42,0.49,0.73,0.92,0.83c0.83,0.13,1.8-0.86,1.81-0.87c0.08-0.08,0.21-0.08,0.29,0
		c0,0,0,0,0,0c0.08,0.08,0.08,0.21,0,0.3C51.18,48.79,50.25,49.76,49.26,49.76z"/>
	<path class="st1" d="M50.84,50.94c0,0-1.47,0.42-2.27,0.24c0,0,1.06,1.51,2.78,1.46L50.84,50.94z"/>
	<path class="st1" d="M51.28,52.85c-1.76,0-2.83-1.49-2.88-1.56c-0.07-0.09-0.04-0.22,0.05-0.29c0.05-0.03,0.11-0.05,0.17-0.03
		c0.74,0.18,2.15-0.22,2.16-0.23c0.11-0.03,0.22,0.03,0.26,0.14l0.51,1.7c0.02,0.06,0.01,0.13-0.03,0.18
		c-0.04,0.05-0.1,0.08-0.16,0.09L51.28,52.85z M49.07,51.44c0.53,0.55,1.24,0.9,2,0.99l-0.37-1.25c-0.53,0.14-1.08,0.22-1.63,0.24
		L49.07,51.44z"/>
	<path class="st1" d="M63.74,67.29c0,0,0,8.12-0.94,11.55c-2.69,9.72-22.32,25.25-22.32,25.25l-4.35-4.32l11.95-17.22L33.64,99.47
		l-4.8-4.36L47.64,72.1L63.74,67.29z"/>
	<path class="st1" d="M40.48,104.3c-0.05,0-0.11-0.02-0.15-0.06l-4.35-4.3c-0.07-0.07-0.08-0.18-0.02-0.27l9.59-13.82L33.8,99.62
		c-0.04,0.04-0.09,0.07-0.15,0.07c-0.06,0-0.11-0.02-0.15-0.05l-4.8-4.36c-0.08-0.08-0.08-0.21,0-0.29l18.79-23.01
		c0.03-0.03,0.06-0.05,0.1-0.07l16.1-4.82c0.06-0.02,0.13,0,0.18,0.03c0.05,0.04,0.08,0.1,0.08,0.17c0,0.33,0,8.19-0.95,11.61
		c-1.12,4.07-5.23,9.57-12.22,16.36c-5.19,5.05-10.12,8.95-10.17,8.99C40.57,104.28,40.53,104.3,40.48,104.3z M36.4,99.77l4.09,4.05
		c1.79-1.44,19.59-15.92,22.1-25.03c0.83-3.01,0.92-9.76,0.94-11.23l-15.77,4.75L29.12,95.12l4.5,4.09l14.31-16.76
		c0.07-0.08,0.2-0.1,0.28-0.03c0.09,0.07,0.11,0.19,0.04,0.28L36.4,99.77z"/>
	<path class="st0" d="M36.13,99.77l-3.12,3.47c0,0-5.11-1.72-4.89-0.75c0.22,0.97,6.88,6.38,7.22,6.49
		c0.34,0.11,5.14-4.91,5.14-4.91"/>
	<path class="st1" d="M35.34,109.2h-0.06c-0.42-0.14-7.11-5.59-7.36-6.66c-0.04-0.14,0-0.29,0.11-0.39
		c0.57-0.52,3.74,0.47,4.91,0.83l3.03-3.36c0.08-0.08,0.21-0.08,0.29,0c0.07,0.08,0.08,0.19,0.01,0.28l-3.12,3.46
		c-0.06,0.06-0.14,0.08-0.22,0.06c-2.26-0.76-4.39-1.21-4.63-0.98c0.21,0.83,6.3,5.83,7.05,6.31c0.49-0.27,2.88-2.65,4.96-4.83
		c0.08-0.08,0.21-0.08,0.29,0c0,0,0,0,0,0c0.08,0.08,0.08,0.21,0,0.29c0,0,0,0,0,0C36.27,108.8,35.55,109.2,35.34,109.2z"/>
	<path class="st0" d="M40.99,101.4c-0.05,0-0.11-0.02-0.14-0.07c-0.07-0.07-0.06-0.19,0.01-0.25c0,0,0,0,0.01-0.01
		c0.16-0.14,16.17-13.8,19.35-21.51c3.15-7.64,1.49-10.68,1.48-10.71c-0.05-0.09-0.02-0.2,0.07-0.25c0.09-0.05,0.2-0.02,0.25,0.07
		c0.07,0.12,1.78,3.2-1.46,11.03c-3.24,7.84-19.29,21.51-19.46,21.64C41.07,101.37,41.03,101.39,40.99,101.4z"/>
	<path class="st0" d="M49.25,76.01c-0.05,0-0.09-0.02-0.12-0.05c-0.07-0.07-0.07-0.18,0-0.25c0,0,0,0,0,0l4.03-4.39
		c0.05-0.06,0.13-0.07,0.2-0.05c0.07,0.03,0.12,0.1,0.12,0.17v3.27c0,0.1-0.08,0.18-0.18,0.18s-0.18-0.08-0.18-0.18v-2.81
		l-3.71,4.04C49.36,75.98,49.31,76.01,49.25,76.01z"/>
	<polygon class="st0" points="45.27,78.18 50.62,72.11 37.34,72.11 30.21,79.18 	"/>
	<path class="st1" d="M30.21,79.38c-0.08,0-0.14-0.04-0.17-0.11c-0.03-0.07-0.02-0.16,0.04-0.21l7.13-7.07
		c0.04-0.03,0.08-0.05,0.13-0.05h13.28c0.08,0,0.14,0.04,0.17,0.11c0.03,0.07,0.02,0.15-0.03,0.2L45.4,78.3
		c-0.03,0.04-0.08,0.06-0.13,0.06l-15.05,1.02H30.21z M37.42,72.31l-6.71,6.66L45.18,78l5.03-5.7H37.42z M45.27,78.18L45.27,78.18z"
		/>
	<path class="st0" d="M55.19,52.28c0,0,3.27,13.13,2.36,13.54c-0.91,0.42-12.24,4.04-12.87,4.31c-0.63,0.27-2.16,1.38-2.43,1.98
		s-0.53,2.98,0,2.82c0.78-0.18,1.55-0.41,2.3-0.69c0.42-0.22,1.02-1.47,1.02-1.47s-0.07,1.21,0.5,0.95
		c0.57-0.26,1.59-1.62,1.59-1.62s14.29-0.49,15.68-3.35s0.63-9.06-1.66-13.79S55.39,49.38,55.19,52.28z"/>
	<path class="st1" d="M42.2,75.13c-0.1,0-0.2-0.05-0.26-0.13c-0.39-0.45-0.1-2.47,0.14-2.98c0.3-0.65,1.86-1.77,2.53-2.08
		c0.28-0.12,2.57-0.87,5.22-1.74c3.33-1.09,7.15-2.34,7.65-2.57c0.42-0.5-0.94-7.17-2.47-13.31c0-0.02,0-0.04,0-0.06
		c0.07-0.99,0.58-1.66,1.39-1.81c1.5-0.29,3.84,1.14,5.44,4.43c2.33,4.79,3.07,11.06,1.66,13.96c-1.41,2.9-14.42,3.4-15.75,3.45
		c-0.24,0.31-1.07,1.36-1.61,1.61c-0.15,0.08-0.32,0.07-0.46-0.02c-0.13-0.11-0.22-0.27-0.25-0.44c-0.19,0.38-0.46,0.71-0.79,0.97
		c-0.58,0.23-1.17,0.41-1.78,0.55c-0.22,0.06-0.42,0.11-0.55,0.15C42.27,75.12,42.23,75.13,42.2,75.13z M55.38,52.25
		c0.08,0.34,0.85,3.46,1.51,6.59c1.44,6.81,0.99,7.02,0.74,7.14c-0.52,0.24-4.33,1.49-7.69,2.59c-2.53,0.83-4.92,1.61-5.18,1.73
		c-0.64,0.29-2.08,1.37-2.34,1.88c-0.26,0.52-0.42,2.38-0.19,2.57c0.17-0.07,0.35-0.12,0.53-0.16c0.58-0.13,1.14-0.31,1.7-0.52
		c0.26-0.14,0.71-0.92,0.93-1.39c0.05-0.09,0.16-0.13,0.26-0.08c0.07,0.03,0.11,0.1,0.1,0.18c-0.04,0.27,0.01,0.55,0.14,0.79
		c0.02,0,0.06,0,0.09,0c0.42-0.2,1.25-1.19,1.51-1.56c0.03-0.05,0.09-0.07,0.15-0.07c0.03,0,3.61-0.12,7.3-0.6
		c6.11-0.78,7.84-1.87,8.21-2.65c1.36-2.81,0.61-8.92-1.66-13.63c-1.5-3.08-3.71-4.47-5.02-4.22c-0.64,0.12-1.02,0.63-1.08,1.44
		L55.38,52.25z"/>
	<path class="st0" d="M45.27,78.18c-0.51-0.73-7.12-11.65-7.12-11.65l-15.59,1.53l7.66,11.13L45.27,78.18z"/>
	<path class="st1" d="M30.21,79.38c-0.06,0-0.12-0.03-0.16-0.08L22.4,68.15c-0.03-0.06-0.03-0.13,0-0.19
		c0.03-0.06,0.09-0.1,0.15-0.11l15.58-1.53c0.07-0.01,0.14,0.02,0.18,0.09c0.07,0.11,6.62,10.93,7.12,11.65
		c0.04,0.06,0.04,0.13,0,0.19c-0.03,0.06-0.09,0.1-0.16,0.11l-15.05,1.02H30.21z M22.9,68.21l7.41,10.78l14.63-0.97
		c-1.11-1.75-6.24-10.19-6.89-11.29L22.9,68.21z"/>
	<path class="st0" d="M35.63,73.46c-0.24-0.51-0.6-0.94-1.04-1.27c-0.28-0.23-0.61-0.37-0.97-0.42c-0.36-0.03-0.71,0.12-0.93,0.42
		c-0.14,0.24-0.2,0.53-0.15,0.81c0.06,0.67,0.4,1.27,0.94,1.66C34.43,75.3,36.33,74.95,35.63,73.46z"/>
	<path class="st1" d="M34.55,75.15c-0.42,0-0.83-0.11-1.18-0.34c-0.59-0.41-0.97-1.07-1.03-1.79c-0.05-0.32,0.02-0.65,0.18-0.93
		c0.25-0.35,0.67-0.54,1.1-0.5c0.39,0.04,0.76,0.19,1.07,0.44c0.47,0.35,0.85,0.81,1.1,1.34l0,0c0.37,0.8,0.05,1.25-0.18,1.44
		C35.32,75.05,34.94,75.16,34.55,75.15z M33.53,71.97c-0.27-0.01-0.52,0.11-0.69,0.33c-0.12,0.21-0.16,0.45-0.12,0.68
		c0.05,0.61,0.37,1.16,0.87,1.51c0.54,0.36,1.24,0.37,1.79,0.03c0.26-0.22,0.28-0.55,0.08-0.99c-0.22-0.48-0.56-0.89-0.99-1.2
		c-0.25-0.2-0.55-0.33-0.87-0.37L33.53,71.97z"/>
	<path class="st0" d="M33.65,72.85c0.18,0.25,0.35,0.51,0.5,0.78l0.33-0.78"/>
	<path class="st1" d="M34.17,73.82c-0.07,0-0.13-0.04-0.16-0.1c-0.18-0.3-0.42-0.65-0.46-0.73c-0.04-0.04-0.07-0.09-0.07-0.15
		c0-0.1,0.08-0.19,0.19-0.19c0.11,0,0.14,0,0.47,0.55l0.19-0.42c0.04-0.1,0.15-0.14,0.25-0.1c0.1,0.04,0.14,0.15,0.1,0.25
		l-0.33,0.78c-0.03,0.07-0.09,0.11-0.16,0.12L34.17,73.82z"/>
</g>
</svg>
